<svg width="20" height="21" viewBox="0 0 20 21" fill="none" xmlns="http://www.w3.org/2000/svg">
<path d="M8.83366 12.0531L7.04199 10.2614C6.88921 10.1086 6.69477 10.0322 6.45866 10.0322C6.22255 10.0322 6.0281 10.1086 5.87533 10.2614C5.72255 10.4142 5.64616 10.6086 5.64616 10.8447C5.64616 11.0808 5.72255 11.2753 5.87533 11.4281L8.25033 13.8031C8.41699 13.9697 8.61144 14.0531 8.83366 14.0531C9.05588 14.0531 9.25033 13.9697 9.41699 13.8031L14.1253 9.09473C14.2781 8.94195 14.3545 8.7475 14.3545 8.51139C14.3545 8.27528 14.2781 8.08084 14.1253 7.92806C13.9725 7.77528 13.7781 7.69889 13.542 7.69889C13.3059 7.69889 13.1114 7.77528 12.9587 7.92806L8.83366 12.0531ZM10.0003 18.8864C8.84755 18.8864 7.76421 18.6676 6.75033 18.2301C5.73644 17.7926 4.85449 17.1989 4.10449 16.4489C3.35449 15.6989 2.76074 14.8169 2.32324 13.8031C1.88574 12.7892 1.66699 11.7058 1.66699 10.5531C1.66699 9.40028 1.88574 8.31695 2.32324 7.30306C2.76074 6.28917 3.35449 5.40723 4.10449 4.65723C4.85449 3.90723 5.73644 3.31348 6.75033 2.87598C7.76421 2.43848 8.84755 2.21973 10.0003 2.21973C11.1531 2.21973 12.2364 2.43848 13.2503 2.87598C14.2642 3.31348 15.1462 3.90723 15.8962 4.65723C16.6462 5.40723 17.2399 6.28917 17.6774 7.30306C18.1149 8.31695 18.3337 9.40028 18.3337 10.5531C18.3337 11.7058 18.1149 12.7892 17.6774 13.8031C17.2399 14.8169 16.6462 15.6989 15.8962 16.4489C15.1462 17.1989 14.2642 17.7926 13.2503 18.2301C12.2364 18.6676 11.1531 18.8864 10.0003 18.8864Z" fill="#16B364"/>
</svg>
