<svg width="20" height="21" viewBox="0 0 20 21" fill="none" xmlns="http://www.w3.org/2000/svg">
<path d="M9.95866 15.5531C10.2503 15.5531 10.4969 15.4524 10.6982 15.251C10.8996 15.0496 11.0003 14.8031 11.0003 14.5114C11.0003 14.2197 10.8996 13.9732 10.6982 13.7718C10.4969 13.5704 10.2503 13.4697 9.95866 13.4697C9.66699 13.4697 9.42046 13.5704 9.21908 13.7718C9.01769 13.9732 8.91699 14.2197 8.91699 14.5114C8.91699 14.8031 9.01769 15.0496 9.21908 15.251C9.42046 15.4524 9.66699 15.5531 9.95866 15.5531ZM10.0003 18.8864C8.84755 18.8864 7.76421 18.6676 6.75033 18.2301C5.73644 17.7926 4.85449 17.1989 4.10449 16.4489C3.35449 15.6989 2.76074 14.8169 2.32324 13.8031C1.88574 12.7892 1.66699 11.7058 1.66699 10.5531C1.66699 9.40028 1.88574 8.31695 2.32324 7.30306C2.76074 6.28917 3.35449 5.40723 4.10449 4.65723C4.85449 3.90723 5.73644 3.31348 6.75033 2.87598C7.76421 2.43848 8.84755 2.21973 10.0003 2.21973C11.1531 2.21973 12.2364 2.43848 13.2503 2.87598C14.2642 3.31348 15.1462 3.90723 15.8962 4.65723C16.6462 5.40723 17.2399 6.28917 17.6774 7.30306C18.1149 8.31695 18.3337 9.40028 18.3337 10.5531C18.3337 11.7058 18.1149 12.7892 17.6774 13.8031C17.2399 14.8169 16.6462 15.6989 15.8962 16.4489C15.1462 17.1989 14.2642 17.7926 13.2503 18.2301C12.2364 18.6676 11.1531 18.8864 10.0003 18.8864ZM10.0837 6.96973C10.4309 6.96973 10.733 7.08084 10.9899 7.30306C11.2469 7.52528 11.3753 7.80306 11.3753 8.13639C11.3753 8.44195 11.2816 8.71278 11.0941 8.94889C10.9066 9.185 10.6948 9.40723 10.4587 9.61556C10.1392 9.89334 9.85796 10.1989 9.61491 10.5322C9.37185 10.8656 9.25033 11.2406 9.25033 11.6572C9.25033 11.8517 9.32324 12.0149 9.46908 12.1468C9.61491 12.2788 9.78505 12.3447 9.97949 12.3447C10.1878 12.3447 10.3649 12.2753 10.5107 12.1364C10.6566 11.9975 10.7503 11.8239 10.792 11.6156C10.8475 11.3239 10.9725 11.0635 11.167 10.8343C11.3614 10.6051 11.5698 10.3864 11.792 10.1781C12.1114 9.8725 12.3857 9.53917 12.6149 9.17806C12.8441 8.81695 12.9587 8.41417 12.9587 7.96973C12.9587 7.26139 12.6705 6.68153 12.0941 6.23014C11.5177 5.77875 10.8475 5.55306 10.0837 5.55306C9.55588 5.55306 9.05241 5.66417 8.57324 5.88639C8.09408 6.10862 7.72949 6.44889 7.47949 6.90723C7.38227 7.07389 7.35102 7.25098 7.38574 7.43848C7.42046 7.62598 7.51421 7.76834 7.66699 7.86556C7.86144 7.97667 8.06283 8.01139 8.27116 7.96973C8.47949 7.92806 8.6531 7.81 8.79199 7.61556C8.94477 7.40723 9.13574 7.2475 9.36491 7.13639C9.59408 7.02528 9.83366 6.96973 10.0837 6.96973Z" fill="#2970FF"/>
</svg>
