<svg width="20" height="21" viewBox="0 0 20 21" fill="none" xmlns="http://www.w3.org/2000/svg">
<path d="M6.66699 11.3864H13.3337C13.5698 11.3864 13.7677 11.3065 13.9274 11.1468C14.0871 10.9871 14.167 10.7892 14.167 10.5531C14.167 10.3169 14.0871 10.119 13.9274 9.95931C13.7677 9.79959 13.5698 9.71973 13.3337 9.71973H6.66699C6.43088 9.71973 6.23296 9.79959 6.07324 9.95931C5.91352 10.119 5.83366 10.3169 5.83366 10.5531C5.83366 10.7892 5.91352 10.9871 6.07324 11.1468C6.23296 11.3065 6.43088 11.3864 6.66699 11.3864ZM10.0003 18.8864C8.84755 18.8864 7.76421 18.6676 6.75033 18.2301C5.73644 17.7926 4.85449 17.1989 4.10449 16.4489C3.35449 15.6989 2.76074 14.8169 2.32324 13.8031C1.88574 12.7892 1.66699 11.7058 1.66699 10.5531C1.66699 9.40028 1.88574 8.31695 2.32324 7.30306C2.76074 6.28917 3.35449 5.40723 4.10449 4.65723C4.85449 3.90723 5.73644 3.31348 6.75033 2.87598C7.76421 2.43848 8.84755 2.21973 10.0003 2.21973C11.1531 2.21973 12.2364 2.43848 13.2503 2.87598C14.2642 3.31348 15.1462 3.90723 15.8962 4.65723C16.6462 5.40723 17.2399 6.28917 17.6774 7.30306C18.1149 8.31695 18.3337 9.40028 18.3337 10.5531C18.3337 11.7058 18.1149 12.7892 17.6774 13.8031C17.2399 14.8169 16.6462 15.6989 15.8962 16.4489C15.1462 17.1989 14.2642 17.7926 13.2503 18.2301C12.2364 18.6676 11.1531 18.8864 10.0003 18.8864Z" fill="#42526D"/>
</svg>
