<svg width="24" height="25" viewBox="0 0 24 25" fill="none" xmlns="http://www.w3.org/2000/svg">
<path d="M7.5 6.31055C7.08333 6.31055 6.72917 6.45638 6.4375 6.74805C6.14583 7.03971 6 7.39388 6 7.81055C6 8.22721 6.14583 8.58138 6.4375 8.87305C6.72917 9.16471 7.08333 9.31055 7.5 9.31055C7.91667 9.31055 8.27083 9.16471 8.5625 8.87305C8.85417 8.58138 9 8.22721 9 7.81055C9 7.39388 8.85417 7.03971 8.5625 6.74805C8.27083 6.45638 7.91667 6.31055 7.5 6.31055ZM7.5 16.3105C7.08333 16.3105 6.72917 16.4564 6.4375 16.748C6.14583 17.0397 6 17.3939 6 17.8105C6 18.2272 6.14583 18.5814 6.4375 18.873C6.72917 19.1647 7.08333 19.3105 7.5 19.3105C7.91667 19.3105 8.27083 19.1647 8.5625 18.873C8.85417 18.5814 9 18.2272 9 17.8105C9 17.3939 8.85417 17.0397 8.5625 16.748C8.27083 16.4564 7.91667 16.3105 7.5 16.3105ZM4 3.31055H20C20.2833 3.31055 20.5208 3.40638 20.7125 3.59805C20.9042 3.78971 21 4.02721 21 4.31055V11.3105C21 11.5939 20.9042 11.8314 20.7125 12.023C20.5208 12.2147 20.2833 12.3105 20 12.3105H4C3.71667 12.3105 3.47917 12.2147 3.2875 12.023C3.09583 11.8314 3 11.5939 3 11.3105V4.31055C3 4.02721 3.09583 3.78971 3.2875 3.59805C3.47917 3.40638 3.71667 3.31055 4 3.31055ZM5 5.31055V10.3105H19V5.31055H5ZM4 13.3105H20C20.2833 13.3105 20.5208 13.4064 20.7125 13.598C20.9042 13.7897 21 14.0272 21 14.3105V21.3105C21 21.5939 20.9042 21.8314 20.7125 22.023C20.5208 22.2147 20.2833 22.3105 20 22.3105H4C3.71667 22.3105 3.47917 22.2147 3.2875 22.023C3.09583 21.8314 3 21.5939 3 21.3105V14.3105C3 14.0272 3.09583 13.7897 3.2875 13.598C3.47917 13.4064 3.71667 13.3105 4 13.3105ZM5 15.3105V20.3105H19V15.3105H5Z" fill="#2173E3"/>
</svg>
