<svg width="24" height="25" viewBox="0 0 24 25" fill="none" xmlns="http://www.w3.org/2000/svg">
<path d="M4.82505 12.8359L8.70005 16.7109C8.88338 16.8943 8.97505 17.1276 8.97505 17.4109C8.97505 17.6943 8.88338 17.9276 8.70005 18.1109C8.51672 18.2943 8.28338 18.3859 8.00005 18.3859C7.71672 18.3859 7.48338 18.2943 7.30005 18.1109L2.70005 13.5109C2.60005 13.4109 2.52922 13.3026 2.48755 13.1859C2.44588 13.0693 2.42505 12.9443 2.42505 12.8109C2.42505 12.6776 2.44588 12.5526 2.48755 12.4359C2.52922 12.3193 2.60005 12.2109 2.70005 12.1109L7.30005 7.51094C7.50005 7.31094 7.73755 7.21094 8.01255 7.21094C8.28755 7.21094 8.52505 7.31094 8.72505 7.51094C8.92505 7.71094 9.02505 7.94844 9.02505 8.22344C9.02505 8.49844 8.92505 8.73594 8.72505 8.93594L4.82505 12.8359ZM19.175 12.7859L15.3 8.91094C15.1167 8.7276 15.025 8.49427 15.025 8.21094C15.025 7.9276 15.1167 7.69427 15.3 7.51094C15.4834 7.3276 15.7167 7.23594 16 7.23594C16.2834 7.23594 16.5167 7.3276 16.7 7.51094L21.3 12.1109C21.4 12.2109 21.4709 12.3193 21.5125 12.4359C21.5542 12.5526 21.575 12.6776 21.575 12.8109C21.575 12.9443 21.5542 13.0693 21.5125 13.1859C21.4709 13.3026 21.4 13.4109 21.3 13.5109L16.7 18.1109C16.5 18.3109 16.2667 18.4068 16 18.3984C15.7334 18.3901 15.5 18.2859 15.3 18.0859C15.1 17.8859 15 17.6484 15 17.3734C15 17.0984 15.1 16.8609 15.3 16.6609L19.175 12.7859Z" fill="#2173E3"/>
</svg>
