<svg width="24" height="25" viewBox="0 0 24 25" fill="none" xmlns="http://www.w3.org/2000/svg">
<path d="M12 22.8105C10.6167 22.8105 9.31667 22.548 8.1 22.023C6.88333 21.498 5.825 20.7855 4.925 19.8855C4.025 18.9855 3.3125 17.9272 2.7875 16.7105C2.2625 15.4939 2 14.1939 2 12.8105C2 11.4272 2.2625 10.1272 2.7875 8.91055C3.3125 7.69388 4.025 6.63555 4.925 5.73555C5.825 4.83555 6.88333 4.12305 8.1 3.59805C9.31667 3.07305 10.6167 2.81055 12 2.81055C13.3833 2.81055 14.6833 3.07305 15.9 3.59805C17.1167 4.12305 18.175 4.83555 19.075 5.73555C19.975 6.63555 20.6875 7.69388 21.2125 8.91055C21.7375 10.1272 22 11.4272 22 12.8105C22 14.1939 21.7375 15.4939 21.2125 16.7105C20.6875 17.9272 19.975 18.9855 19.075 19.8855C18.175 20.7855 17.1167 21.498 15.9 22.023C14.6833 22.548 13.3833 22.8105 12 22.8105ZM12 20.8105C12.9 20.8105 13.7667 20.6647 14.6 20.373C15.4333 20.0814 16.2 19.6605 16.9 19.1105L5.7 7.91055C5.15 8.61055 4.72917 9.37721 4.4375 10.2105C4.14583 11.0439 4 11.9105 4 12.8105C4 15.0439 4.775 16.9355 6.325 18.4855C7.875 20.0355 9.76667 20.8105 12 20.8105ZM18.3 17.7105C18.85 17.0105 19.2708 16.2439 19.5625 15.4105C19.8542 14.5772 20 13.7105 20 12.8105C20 10.5772 19.225 8.68555 17.675 7.13555C16.125 5.58555 14.2333 4.81055 12 4.81055C11.1 4.81055 10.2333 4.95638 9.4 5.24805C8.56667 5.53971 7.8 5.96055 7.1 6.51055L18.3 17.7105Z" fill="#2173E3"/>
</svg>
