<svg width="20" height="21" viewBox="0 0 20 21" fill="none" xmlns="http://www.w3.org/2000/svg">
<path d="M10 18.8864C9.54167 18.8864 9.14931 18.7232 8.82292 18.3968C8.49653 18.0704 8.33333 17.6781 8.33333 17.2197H11.6667C11.6667 17.6781 11.5035 18.0704 11.1771 18.3968C10.8507 18.7232 10.4583 18.8864 10 18.8864ZM7.5 16.3864C7.26389 16.3864 7.06597 16.3065 6.90625 16.1468C6.74653 15.9871 6.66667 15.7892 6.66667 15.5531C6.66667 15.3169 6.74653 15.119 6.90625 14.9593C7.06597 14.7996 7.26389 14.7197 7.5 14.7197H12.5C12.7361 14.7197 12.934 14.7996 13.0938 14.9593C13.2535 15.119 13.3333 15.3169 13.3333 15.5531C13.3333 15.7892 13.2535 15.9871 13.0938 16.1468C12.934 16.3065 12.7361 16.3864 12.5 16.3864H7.5ZM6.875 13.8864C5.91667 13.3169 5.15625 12.5531 4.59375 11.5947C4.03125 10.6364 3.75 9.59473 3.75 8.46973C3.75 6.73361 4.35764 5.25792 5.57292 4.04264C6.78819 2.82737 8.26389 2.21973 10 2.21973C11.7361 2.21973 13.2118 2.82737 14.4271 4.04264C15.6424 5.25792 16.25 6.73361 16.25 8.46973C16.25 9.59473 15.9688 10.6364 15.4062 11.5947C14.8438 12.5531 14.0833 13.3169 13.125 13.8864H6.875Z" fill="#2E90FA"/>
</svg>
