<svg width="24" height="25" viewBox="0 0 24 25" fill="none" xmlns="http://www.w3.org/2000/svg">
<path d="M6 22.8105C5.45 22.8105 4.97917 22.6147 4.5875 22.223C4.19583 21.8314 4 21.3605 4 20.8105V10.8105C4 10.2605 4.19583 9.78971 4.5875 9.39805C4.97917 9.00638 5.45 8.81055 6 8.81055H7V6.81055C7 5.42721 7.4875 4.24805 8.4625 3.27305C9.4375 2.29805 10.6167 1.81055 12 1.81055C13.3833 1.81055 14.5625 2.29805 15.5375 3.27305C16.5125 4.24805 17 5.42721 17 6.81055V8.81055H18C18.55 8.81055 19.0208 9.00638 19.4125 9.39805C19.8042 9.78971 20 10.2605 20 10.8105V20.8105C20 21.3605 19.8042 21.8314 19.4125 22.223C19.0208 22.6147 18.55 22.8105 18 22.8105H6ZM6 20.8105H18V10.8105H6V20.8105ZM12 17.8105C12.55 17.8105 13.0208 17.6147 13.4125 17.223C13.8042 16.8314 14 16.3605 14 15.8105C14 15.2605 13.8042 14.7897 13.4125 14.398C13.0208 14.0064 12.55 13.8105 12 13.8105C11.45 13.8105 10.9792 14.0064 10.5875 14.398C10.1958 14.7897 10 15.2605 10 15.8105C10 16.3605 10.1958 16.8314 10.5875 17.223C10.9792 17.6147 11.45 17.8105 12 17.8105ZM9 8.81055H15V6.81055C15 5.97721 14.7083 5.26888 14.125 4.68555C13.5417 4.10221 12.8333 3.81055 12 3.81055C11.1667 3.81055 10.4583 4.10221 9.875 4.68555C9.29167 5.26888 9 5.97721 9 6.81055V8.81055Z" fill="#2173E3"/>
</svg>
