<svg width="24" height="25" viewBox="0 0 24 25" fill="none" xmlns="http://www.w3.org/2000/svg">
<path d="M11.9993 22.8096C10.6159 22.8096 9.31593 22.5471 8.09927 22.0221C6.8826 21.4971 5.82427 20.7846 4.92427 19.8846C4.02427 18.9846 3.31177 17.9262 2.78677 16.7096C2.26177 15.4929 1.99927 14.1929 1.99927 12.8096C1.99927 11.4262 2.26177 10.1262 2.78677 8.90957C3.31177 7.6929 4.02427 6.63457 4.92427 5.73457C5.82427 4.83457 6.8826 4.12207 8.09927 3.59707C9.31593 3.07207 10.6159 2.80957 11.9993 2.80957C13.3826 2.80957 14.6826 3.07207 15.8993 3.59707C17.1159 4.12207 18.1743 4.83457 19.0743 5.73457C19.9743 6.63457 20.6868 7.6929 21.2118 8.90957C21.7368 10.1262 21.9993 11.4262 21.9993 12.8096C21.9993 14.1929 21.7368 15.4929 21.2118 16.7096C20.6868 17.9262 19.9743 18.9846 19.0743 19.8846C18.1743 20.7846 17.1159 21.4971 15.8993 22.0221C14.6826 22.5471 13.3826 22.8096 11.9993 22.8096ZM10.9993 20.7596V18.8096C10.4493 18.8096 9.97843 18.6137 9.58677 18.2221C9.1951 17.8304 8.99927 17.3596 8.99927 16.8096V15.8096L4.19927 11.0096C4.14927 11.3096 4.10343 11.6096 4.06177 11.9096C4.0201 12.2096 3.99927 12.5096 3.99927 12.8096C3.99927 14.8262 4.66177 16.5929 5.98677 18.1096C7.31177 19.6262 8.9826 20.5096 10.9993 20.7596ZM17.8993 18.2096C18.2326 17.8429 18.5326 17.4471 18.7993 17.0221C19.0659 16.5971 19.2868 16.1554 19.4618 15.6971C19.6368 15.2387 19.7701 14.7679 19.8618 14.2846C19.9534 13.8012 19.9993 13.3096 19.9993 12.8096C19.9993 11.1762 19.5451 9.68457 18.6368 8.33457C17.7284 6.98457 16.5159 6.00957 14.9993 5.40957V5.80957C14.9993 6.35957 14.8034 6.8304 14.4118 7.22207C14.0201 7.61374 13.5493 7.80957 12.9993 7.80957H10.9993V9.80957C10.9993 10.0929 10.9034 10.3304 10.7118 10.5221C10.5201 10.7137 10.2826 10.8096 9.99927 10.8096H7.99927V12.8096H13.9993C14.2826 12.8096 14.5201 12.9054 14.7118 13.0971C14.9034 13.2887 14.9993 13.5262 14.9993 13.8096V16.8096H15.9993C16.4326 16.8096 16.8243 16.9387 17.1743 17.1971C17.5243 17.4554 17.7659 17.7929 17.8993 18.2096Z" fill="#2173E3"/>
</svg>
