<svg width="24" height="25" viewBox="0 0 24 25" fill="none" xmlns="http://www.w3.org/2000/svg">
<path d="M7 17.8105C5.61667 17.8105 4.4375 17.323 3.4625 16.348C2.4875 15.373 2 14.1939 2 12.8105C2 11.4272 2.4875 10.248 3.4625 9.27305C4.4375 8.29805 5.61667 7.81055 7 7.81055H10C10.2833 7.81055 10.5208 7.90638 10.7125 8.09805C10.9042 8.28971 11 8.52721 11 8.81055C11 9.09388 10.9042 9.33138 10.7125 9.52305C10.5208 9.71471 10.2833 9.81055 10 9.81055H7C6.16667 9.81055 5.45833 10.1022 4.875 10.6855C4.29167 11.2689 4 11.9772 4 12.8105C4 13.6439 4.29167 14.3522 4.875 14.9355C5.45833 15.5189 6.16667 15.8105 7 15.8105H10C10.2833 15.8105 10.5208 15.9064 10.7125 16.098C10.9042 16.2897 11 16.5272 11 16.8105C11 17.0939 10.9042 17.3314 10.7125 17.523C10.5208 17.7147 10.2833 17.8105 10 17.8105H7ZM9 13.8105C8.71667 13.8105 8.47917 13.7147 8.2875 13.523C8.09583 13.3314 8 13.0939 8 12.8105C8 12.5272 8.09583 12.2897 8.2875 12.098C8.47917 11.9064 8.71667 11.8105 9 11.8105H15C15.2833 11.8105 15.5208 11.9064 15.7125 12.098C15.9042 12.2897 16 12.5272 16 12.8105C16 13.0939 15.9042 13.3314 15.7125 13.523C15.5208 13.7147 15.2833 13.8105 15 13.8105H9ZM14 17.8105C13.7167 17.8105 13.4792 17.7147 13.2875 17.523C13.0958 17.3314 13 17.0939 13 16.8105C13 16.5272 13.0958 16.2897 13.2875 16.098C13.4792 15.9064 13.7167 15.8105 14 15.8105H17C17.8333 15.8105 18.5417 15.5189 19.125 14.9355C19.7083 14.3522 20 13.6439 20 12.8105C20 11.9772 19.7083 11.2689 19.125 10.6855C18.5417 10.1022 17.8333 9.81055 17 9.81055H14C13.7167 9.81055 13.4792 9.71471 13.2875 9.52305C13.0958 9.33138 13 9.09388 13 8.81055C13 8.52721 13.0958 8.28971 13.2875 8.09805C13.4792 7.90638 13.7167 7.81055 14 7.81055H17C18.3833 7.81055 19.5625 8.29805 20.5375 9.27305C21.5125 10.248 22 11.4272 22 12.8105C22 14.1939 21.5125 15.373 20.5375 16.348C19.5625 17.323 18.3833 17.8105 17 17.8105H14Z" fill="#2173E3"/>
</svg>
