<svg width="20" height="21" viewBox="0 0 20 21" fill="none" xmlns="http://www.w3.org/2000/svg">
<path d="M2.2705 18.0527C2.11772 18.0527 1.97883 18.0145 1.85383 17.9382C1.72883 17.8618 1.63161 17.7611 1.56216 17.6361C1.49272 17.5111 1.45452 17.3757 1.44758 17.2298C1.44063 17.084 1.47883 16.9416 1.56216 16.8027L9.27049 3.4694C9.35383 3.33051 9.46147 3.22635 9.59341 3.1569C9.72536 3.08746 9.86077 3.05273 9.99966 3.05273C10.1385 3.05273 10.274 3.08746 10.4059 3.1569C10.5379 3.22635 10.6455 3.33051 10.7288 3.4694L18.4372 16.8027C18.5205 16.9416 18.5587 17.084 18.5517 17.2298C18.5448 17.3757 18.5066 17.5111 18.4372 17.6361C18.3677 17.7611 18.2705 17.8618 18.1455 17.9382C18.0205 18.0145 17.8816 18.0527 17.7288 18.0527H2.2705ZM9.99966 15.5527C10.2358 15.5527 10.4337 15.4729 10.5934 15.3132C10.7531 15.1534 10.833 14.9555 10.833 14.7194C10.833 14.4833 10.7531 14.2854 10.5934 14.1257C10.4337 13.9659 10.2358 13.8861 9.99966 13.8861C9.76355 13.8861 9.56563 13.9659 9.40591 14.1257C9.24619 14.2854 9.16633 14.4833 9.16633 14.7194C9.16633 14.9555 9.24619 15.1534 9.40591 15.3132C9.56563 15.4729 9.76355 15.5527 9.99966 15.5527ZM9.99966 13.0527C10.2358 13.0527 10.4337 12.9729 10.5934 12.8132C10.7531 12.6534 10.833 12.4555 10.833 12.2194V9.7194C10.833 9.48329 10.7531 9.28537 10.5934 9.12565C10.4337 8.96593 10.2358 8.88607 9.99966 8.88607C9.76355 8.88607 9.56563 8.96593 9.40591 9.12565C9.24619 9.28537 9.16633 9.48329 9.16633 9.7194V12.2194C9.16633 12.4555 9.24619 12.6534 9.40591 12.8132C9.56563 12.9729 9.76355 13.0527 9.99966 13.0527Z" fill="white"/>
</svg>
