<svg width="24" height="25" viewBox="0 0 24 25" fill="none" xmlns="http://www.w3.org/2000/svg">
<path d="M2 21.8105C1.71667 21.8105 1.47917 21.7147 1.2875 21.523C1.09583 21.3314 1 21.0939 1 20.8105C1 20.5272 1.09583 20.2897 1.2875 20.098C1.47917 19.9064 1.71667 19.8105 2 19.8105H22C22.2833 19.8105 22.5208 19.9064 22.7125 20.098C22.9042 20.2897 23 20.5272 23 20.8105C23 21.0939 22.9042 21.3314 22.7125 21.523C22.5208 21.7147 22.2833 21.8105 22 21.8105H2ZM4 18.8105C3.45 18.8105 2.97917 18.6147 2.5875 18.223C2.19583 17.8314 2 17.3605 2 16.8105V5.81055C2 5.26055 2.19583 4.78971 2.5875 4.39805C2.97917 4.00638 3.45 3.81055 4 3.81055H20C20.55 3.81055 21.0208 4.00638 21.4125 4.39805C21.8042 4.78971 22 5.26055 22 5.81055V16.8105C22 17.3605 21.8042 17.8314 21.4125 18.223C21.0208 18.6147 20.55 18.8105 20 18.8105H4ZM4 16.8105H20V5.81055H4V16.8105Z" fill="#2173E3"/>
</svg>
