<svg width="41" height="41" viewBox="0 0 41 41" fill="none" xmlns="http://www.w3.org/2000/svg">
<rect x="0.333496" y="0.552734" width="40" height="40" rx="10" fill="url(#paint0_linear_6285_4498)"/>
<path d="M12.3335 23.5527C11.5002 23.5527 10.7918 23.2611 10.2085 22.6777C9.62516 22.0944 9.3335 21.3861 9.3335 20.5527C9.3335 19.7194 9.62516 19.0111 10.2085 18.4277C10.7918 17.8444 11.5002 17.5527 12.3335 17.5527V15.5527C12.3335 15.0027 12.5293 14.5319 12.921 14.1402C13.3127 13.7486 13.7835 13.5527 14.3335 13.5527H17.3335C17.3335 12.7194 17.6252 12.0111 18.2085 11.4277C18.7918 10.8444 19.5002 10.5527 20.3335 10.5527C21.1668 10.5527 21.8752 10.8444 22.4585 11.4277C23.0418 12.0111 23.3335 12.7194 23.3335 13.5527H26.3335C26.8835 13.5527 27.3543 13.7486 27.746 14.1402C28.1377 14.5319 28.3335 15.0027 28.3335 15.5527V17.5527C29.1668 17.5527 29.8752 17.8444 30.4585 18.4277C31.0418 19.0111 31.3335 19.7194 31.3335 20.5527C31.3335 21.3861 31.0418 22.0944 30.4585 22.6777C29.8752 23.2611 29.1668 23.5527 28.3335 23.5527V27.5527C28.3335 28.1027 28.1377 28.5736 27.746 28.9652C27.3543 29.3569 26.8835 29.5527 26.3335 29.5527H14.3335C13.7835 29.5527 13.3127 29.3569 12.921 28.9652C12.5293 28.5736 12.3335 28.1027 12.3335 27.5527V23.5527ZM17.3335 21.5527C17.7502 21.5527 18.1043 21.4069 18.396 21.1152C18.6877 20.8236 18.8335 20.4694 18.8335 20.0527C18.8335 19.6361 18.6877 19.2819 18.396 18.9902C18.1043 18.6986 17.7502 18.5527 17.3335 18.5527C16.9168 18.5527 16.5627 18.6986 16.271 18.9902C15.9793 19.2819 15.8335 19.6361 15.8335 20.0527C15.8335 20.4694 15.9793 20.8236 16.271 21.1152C16.5627 21.4069 16.9168 21.5527 17.3335 21.5527ZM23.3335 21.5527C23.7502 21.5527 24.1043 21.4069 24.396 21.1152C24.6877 20.8236 24.8335 20.4694 24.8335 20.0527C24.8335 19.6361 24.6877 19.2819 24.396 18.9902C24.1043 18.6986 23.7502 18.5527 23.3335 18.5527C22.9168 18.5527 22.5627 18.6986 22.271 18.9902C21.9793 19.2819 21.8335 19.6361 21.8335 20.0527C21.8335 20.4694 21.9793 20.8236 22.271 21.1152C22.5627 21.4069 22.9168 21.5527 23.3335 21.5527ZM17.3335 25.5527H23.3335C23.6168 25.5527 23.8543 25.4569 24.046 25.2652C24.2377 25.0736 24.3335 24.8361 24.3335 24.5527C24.3335 24.2694 24.2377 24.0319 24.046 23.8402C23.8543 23.6486 23.6168 23.5527 23.3335 23.5527H17.3335C17.0502 23.5527 16.8127 23.6486 16.621 23.8402C16.4293 24.0319 16.3335 24.2694 16.3335 24.5527C16.3335 24.8361 16.4293 25.0736 16.621 25.2652C16.8127 25.4569 17.0502 25.5527 17.3335 25.5527ZM14.3335 27.5527H26.3335V15.5527H14.3335V27.5527Z" fill="white"/>
<defs>
<linearGradient id="paint0_linear_6285_4498" x1="34.207" y1="-12.7758" x2="50.6804" y2="115.603" gradientUnits="userSpaceOnUse">
<stop stop-color="#2CD7B2"/>
<stop offset="1" stop-color="#2173E3"/>
</linearGradient>
</defs>
</svg>
