<svg width="40" height="41" viewBox="0 0 40 41" fill="none" xmlns="http://www.w3.org/2000/svg">
<rect y="0.552734" width="40" height="40" rx="10" fill="url(#paint0_linear_6285_4476)"/>
<path d="M16.4805 19.1453V16.3297C16.4804 16.1448 16.5168 15.9617 16.5876 15.7909C16.6584 15.6202 16.7621 15.465 16.893 15.3344C17.1569 15.07 17.5149 14.9219 17.8883 14.9219C18.2617 14.9219 18.6196 15.07 18.8836 15.3344C19.0144 15.465 19.1181 15.6202 19.1889 15.7909C19.2597 15.9617 19.2961 16.1448 19.2961 16.3297V19.1453M16.4805 17.7375H19.2961M21.4078 14.9219H23.5195M21.4078 19.1453H23.5195M22.4636 14.9219V19.1453" stroke="white" stroke-width="1.5" stroke-miterlimit="10" stroke-linecap="round" stroke-linejoin="round"/>
<path d="M12.2569 27.592C13.0344 27.592 13.6647 26.9617 13.6647 26.1842C13.6647 25.4067 13.0344 24.7764 12.2569 24.7764C11.4794 24.7764 10.8491 25.4067 10.8491 26.1842C10.8491 26.9617 11.4794 27.592 12.2569 27.592Z" stroke="white" stroke-width="1.5" stroke-miterlimit="10" stroke-linecap="round" stroke-linejoin="round"/>
<path d="M27.7428 27.592C28.5203 27.592 29.1506 26.9617 29.1506 26.1842C29.1506 25.4067 28.5203 24.7764 27.7428 24.7764C26.9653 24.7764 26.335 25.4067 26.335 26.1842C26.335 26.9617 26.9653 27.592 27.7428 27.592Z" stroke="white" stroke-width="1.5" stroke-miterlimit="10" stroke-linecap="round" stroke-linejoin="round"/>
<path d="M22.8155 31.1115C23.593 31.1115 24.2233 30.4812 24.2233 29.7037C24.2233 28.9262 23.593 28.2959 22.8155 28.2959C22.038 28.2959 21.4077 28.9262 21.4077 29.7037C21.4077 30.4812 22.038 31.1115 22.8155 31.1115Z" stroke="white" stroke-width="1.5" stroke-miterlimit="10" stroke-linecap="round" stroke-linejoin="round"/>
<path d="M17.1842 31.1115C17.9617 31.1115 18.592 30.4812 18.592 29.7037C18.592 28.9262 17.9617 28.2959 17.1842 28.2959C16.4067 28.2959 15.7764 28.9262 15.7764 29.7037C15.7764 30.4812 16.4067 31.1115 17.1842 31.1115Z" stroke="white" stroke-width="1.5" stroke-miterlimit="10" stroke-linecap="round" stroke-linejoin="round"/>
<path d="M13.2524 25.1891L15.0727 23.3688V21.9609M26.7477 25.1891L24.9274 23.3688V21.9609M21.4079 21.9609V24.7766L22.8157 26.1844V28.2961M18.5923 21.9609V24.7766L17.1844 26.1844V28.2961" stroke="white" stroke-width="1.5" stroke-miterlimit="10" stroke-linecap="round" stroke-linejoin="round"/>
<path d="M15.5024 12.9073C16.2732 11.1908 17.9981 9.99414 20 9.99414C22.0019 9.99414 23.7268 11.1908 24.4976 12.9073C24.7531 12.8423 25.0157 12.8096 25.2793 12.8098C27.0275 12.8098 28.4469 14.2292 28.4469 15.9774V17.7371C29.6122 17.7371 30.5586 18.6836 30.5586 19.8489C30.5586 21.0142 29.6122 21.9606 28.4469 21.9606H11.5531C10.3878 21.9606 9.44141 21.0142 9.44141 19.8489C9.44141 18.6836 10.3878 17.7371 11.5531 17.7371V15.9774C11.5531 14.2292 12.9725 12.8098 14.7207 12.8098C14.9903 12.8098 15.2525 12.8436 15.5024 12.9073Z" stroke="white" stroke-width="1.5" stroke-miterlimit="10" stroke-linecap="round" stroke-linejoin="round"/>
<defs>
<linearGradient id="paint0_linear_6285_4476" x1="33.8735" y1="-12.7758" x2="50.3469" y2="115.603" gradientUnits="userSpaceOnUse">
<stop stop-color="#2CD7B2"/>
<stop offset="1" stop-color="#2173E3"/>
</linearGradient>
</defs>
</svg>
