<svg width="41" height="41" viewBox="0 0 41 41" fill="none" xmlns="http://www.w3.org/2000/svg">
<rect x="0.666504" y="0.552734" width="40" height="40" rx="10" fill="url(#paint0_linear_6285_4487)"/>
<path d="M20.6665 21.5529C19.6998 21.5529 18.8748 21.2113 18.1915 20.5279C17.5082 19.8446 17.1665 19.0196 17.1665 18.0529C17.1665 17.0863 17.5082 16.2613 18.1915 15.5779C18.8748 14.8946 19.6998 14.5529 20.6665 14.5529C21.6332 14.5529 22.4582 14.8946 23.1415 15.5779C23.8248 16.2613 24.1665 17.0863 24.1665 18.0529C24.1665 19.0196 23.8248 19.8446 23.1415 20.5279C22.4582 21.2113 21.6332 21.5529 20.6665 21.5529ZM20.6665 19.5529C21.0832 19.5529 21.4373 19.4071 21.729 19.1154C22.0207 18.8238 22.1665 18.4696 22.1665 18.0529C22.1665 17.6363 22.0207 17.2821 21.729 16.9904C21.4373 16.6988 21.0832 16.5529 20.6665 16.5529C20.2498 16.5529 19.8957 16.6988 19.604 16.9904C19.3123 17.2821 19.1665 17.6363 19.1665 18.0529C19.1665 18.4696 19.3123 18.8238 19.604 19.1154C19.8957 19.4071 20.2498 19.5529 20.6665 19.5529ZM12.6165 26.1279C12.3165 25.9446 12.0832 25.7029 11.9165 25.4029C11.7498 25.1029 11.6665 24.7779 11.6665 24.4279V16.6779C11.6665 16.3279 11.7498 16.0029 11.9165 15.7029C12.0832 15.4029 12.3165 15.1613 12.6165 14.9779L19.6165 10.6779C19.9498 10.4779 20.2998 10.3779 20.6665 10.3779C21.0332 10.3779 21.3832 10.4779 21.7165 10.6779L28.7165 14.9779C29.0165 15.1613 29.2498 15.4029 29.4165 15.7029C29.5832 16.0029 29.6665 16.3279 29.6665 16.6779V24.4279C29.6665 24.7779 29.5832 25.1029 29.4165 25.4029C29.2498 25.7029 29.0165 25.9446 28.7165 26.1279L21.7165 30.4279C21.3832 30.6279 21.0332 30.7279 20.6665 30.7279C20.2998 30.7279 19.9498 30.6279 19.6165 30.4279L12.6165 26.1279ZM20.6665 25.5529C20.0332 25.5529 19.404 25.6279 18.779 25.7779C18.154 25.9279 17.5582 26.1529 16.9915 26.4529L20.6665 28.7279L24.3415 26.4529C23.7748 26.1529 23.179 25.9279 22.554 25.7779C21.929 25.6279 21.2998 25.5529 20.6665 25.5529ZM15.0665 25.2779C15.8998 24.7113 16.7915 24.2821 17.7415 23.9904C18.6915 23.6988 19.6665 23.5529 20.6665 23.5529C21.6665 23.5529 22.6415 23.6988 23.5915 23.9904C24.5415 24.2821 25.4332 24.7113 26.2665 25.2779L27.6665 24.4529V16.6779L20.6665 12.4029L13.6665 16.6779V24.4529L15.0665 25.2779Z" fill="white"/>
<defs>
<linearGradient id="paint0_linear_6285_4487" x1="34.54" y1="-12.7758" x2="51.0134" y2="115.603" gradientUnits="userSpaceOnUse">
<stop stop-color="#2CD7B2"/>
<stop offset="1" stop-color="#2173E3"/>
</linearGradient>
</defs>
</svg>
