<svg width="21" height="20" viewBox="0 0 21 20" fill="none" xmlns="http://www.w3.org/2000/svg">
<path d="M16.3054 10.0715L15.6743 10.4768V10.4768L16.3054 10.0715ZM17.2282 11.5083L17.8593 11.1029L17.2282 11.5083ZM2.97881 11.5083L2.34778 11.1029H2.34778L2.97881 11.5083ZM3.90168 10.0715L4.53272 10.4768H4.53272L3.90168 10.0715ZM15.9615 15.0194L15.7573 14.2978H15.7573L15.9615 15.0194ZM4.24548 15.0194L4.44976 14.2978H4.44976L4.24548 15.0194ZM7.05581 15.5705C6.91045 15.1826 6.47818 14.986 6.09031 15.1314C5.70244 15.2767 5.50585 15.709 5.65122 16.0969L7.05581 15.5705ZM14.5558 16.0969C14.7012 15.709 14.5046 15.2767 14.1167 15.1314C13.7289 14.986 13.2966 15.1826 13.1512 15.5705L14.5558 16.0969ZM14.9778 7.50446V8.09163H16.4778V7.50446H14.9778ZM15.6743 10.4768L16.5972 11.9136L17.8593 11.1029L16.9364 9.66617L15.6743 10.4768ZM3.60985 11.9136L4.53272 10.4768L3.27064 9.66616L2.34778 11.1029L3.60985 11.9136ZM5.22924 8.09163V7.50446H3.72924V8.09163H5.22924ZM15.7573 14.2978C12.0555 15.3456 8.15151 15.3456 4.44976 14.2978L4.04121 15.7411C8.01009 16.8645 12.1969 16.8645 16.1658 15.7411L15.7573 14.2978ZM4.53272 10.4768C4.98791 9.76816 5.22924 8.9383 5.22924 8.09163H3.72924C3.72924 8.65428 3.56865 9.20221 3.27064 9.66616L4.53272 10.4768ZM14.9778 8.09163C14.9778 8.9383 15.2191 9.76816 15.6743 10.4768L16.9364 9.66617C16.6384 9.20221 16.4778 8.65428 16.4778 8.09163H14.9778ZM2.34778 11.1029C1.2471 12.8165 2.06528 15.1818 4.04121 15.7411L4.44976 14.2978C3.4935 14.0271 3.02464 12.8247 3.60985 11.9136L2.34778 11.1029ZM16.5972 11.9136C17.1824 12.8247 16.7135 14.0271 15.7573 14.2978L16.1658 15.7411C18.1418 15.1818 18.9599 12.8165 17.8593 11.1029L16.5972 11.9136ZM10.1035 2.41699C12.7694 2.41699 14.9778 4.66819 14.9778 7.50446H16.4778C16.4778 3.89285 13.65 0.916992 10.1035 0.916992V2.41699ZM10.1035 0.916992C6.55704 0.916992 3.72924 3.89285 3.72924 7.50446H5.22924C5.22924 4.66818 7.43758 2.41699 10.1035 2.41699V0.916992ZM5.65122 16.0969C6.31104 17.8575 8.07178 19.0837 10.1035 19.0837V17.5837C8.67268 17.5837 7.4877 16.7228 7.05581 15.5705L5.65122 16.0969ZM10.1035 19.0837C12.1353 19.0837 13.896 17.8575 14.5558 16.0969L13.1512 15.5705C12.7193 16.7228 11.5344 17.5837 10.1035 17.5837V19.0837Z" fill="#666E80"/>
</svg>
