<svg width="21" height="20" viewBox="0 0 21 20" fill="none" xmlns="http://www.w3.org/2000/svg">
<path d="M12.6039 10.0003C12.6039 11.381 11.4846 12.5003 10.1039 12.5003C8.7232 12.5003 7.60391 11.381 7.60391 10.0003C7.60391 8.61961 8.7232 7.50033 10.1039 7.50033C11.4846 7.50033 12.6039 8.61961 12.6039 10.0003Z" stroke="#666E80" stroke-width="1.5"/>
<path d="M11.5751 1.79386C11.2688 1.66699 10.8805 1.66699 10.1039 1.66699C9.32734 1.66699 8.93906 1.66699 8.63277 1.79386C8.22439 1.96302 7.89994 2.28747 7.73078 2.69585C7.65356 2.88228 7.62334 3.09908 7.61152 3.41532C7.59414 3.88006 7.3558 4.31024 6.95304 4.54277C6.55029 4.7753 6.05858 4.76661 5.64742 4.54929C5.36763 4.40141 5.16476 4.31918 4.9647 4.29284C4.52646 4.23514 4.08324 4.3539 3.73256 4.62299C3.46954 4.82481 3.2754 5.16107 2.88712 5.8336C2.49883 6.50613 2.30469 6.8424 2.26142 7.17108C2.20372 7.60933 2.32248 8.05254 2.59157 8.40323C2.71439 8.56329 2.88701 8.69785 3.15491 8.86618C3.54875 9.11365 3.80216 9.53521 3.80214 10.0003C3.80211 10.4654 3.54871 10.8869 3.15491 11.1344C2.88696 11.3027 2.71432 11.4373 2.59149 11.5974C2.3224 11.9481 2.20364 12.3913 2.26134 12.8295C2.30461 13.1582 2.49875 13.4945 2.88703 14.167C3.27532 14.8395 3.46946 15.1758 3.73247 15.3776C4.08316 15.6467 4.52637 15.7655 4.96462 15.7078C5.16467 15.6814 5.36752 15.5992 5.64729 15.4513C6.05848 15.234 6.55022 15.2253 6.95301 15.4579C7.35579 15.6904 7.59414 16.1206 7.61152 16.5854C7.62335 16.9016 7.65357 17.1184 7.73078 17.3048C7.89994 17.7132 8.22439 18.0376 8.63277 18.2068C8.93906 18.3337 9.32734 18.3337 10.1039 18.3337C10.8805 18.3337 11.2688 18.3337 11.5751 18.2068C11.9834 18.0376 12.3079 17.7132 12.477 17.3048C12.5543 17.1184 12.5845 16.9016 12.5963 16.5853C12.6137 16.1206 12.852 15.6904 13.2547 15.4579C13.6575 15.2253 14.1493 15.234 14.5605 15.4513C14.8402 15.5991 15.0431 15.6814 15.2431 15.7077C15.6814 15.7654 16.1246 15.6466 16.4753 15.3775C16.7383 15.1757 16.9324 14.8395 17.3207 14.1669C17.709 13.4944 17.9031 13.1581 17.9464 12.8295C18.0041 12.3912 17.8853 11.948 17.6163 11.5973C17.4934 11.4372 17.3208 11.3027 17.0529 11.1343C16.6591 10.8869 16.4057 10.4654 16.4057 10.0003C16.4057 9.5352 16.6591 9.11373 17.0529 8.86632C17.3208 8.69795 17.4935 8.56337 17.6163 8.40328C17.8854 8.0526 18.0042 7.60938 17.9465 7.17114C17.9032 6.84245 17.7091 6.50619 17.3208 5.83366C16.9325 5.16113 16.7384 4.82487 16.4754 4.62305C16.1247 4.35396 15.6815 4.2352 15.2432 4.2929C15.0432 4.31923 14.8403 4.40146 14.5605 4.54932C14.1493 4.76665 13.6576 4.77534 13.2548 4.54279C12.852 4.31025 12.6137 3.88004 12.5963 3.41527C12.5845 3.09906 12.5543 2.88227 12.477 2.69585C12.3079 2.28747 11.9834 1.96302 11.5751 1.79386Z" stroke="#666E80" stroke-width="1.5"/>
</svg>
