<svg width="18" height="18" viewBox="0 0 18 18" fill="none" xmlns="http://www.w3.org/2000/svg">
<path d="M9.00008 13.167C9.23619 13.167 9.43411 13.0871 9.59383 12.9274C9.75355 12.7677 9.83341 12.5698 9.83341 12.3337V9.00033C9.83341 8.76421 9.75355 8.5663 9.59383 8.40658C9.43411 8.24685 9.23619 8.16699 9.00008 8.16699C8.76397 8.16699 8.56605 8.24685 8.40633 8.40658C8.24661 8.5663 8.16675 8.76421 8.16675 9.00033V12.3337C8.16675 12.5698 8.24661 12.7677 8.40633 12.9274C8.56605 13.0871 8.76397 13.167 9.00008 13.167ZM9.00008 6.50033C9.23619 6.50033 9.43411 6.42046 9.59383 6.26074C9.75355 6.10102 9.83341 5.9031 9.83341 5.66699C9.83341 5.43088 9.75355 5.23296 9.59383 5.07324C9.43411 4.91352 9.23619 4.83366 9.00008 4.83366C8.76397 4.83366 8.56605 4.91352 8.40633 5.07324C8.24661 5.23296 8.16675 5.43088 8.16675 5.66699C8.16675 5.9031 8.24661 6.10102 8.40633 6.26074C8.56605 6.42046 8.76397 6.50033 9.00008 6.50033ZM9.00008 17.3337C7.8473 17.3337 6.76397 17.1149 5.75008 16.6774C4.73619 16.2399 3.85425 15.6462 3.10425 14.8962C2.35425 14.1462 1.7605 13.2642 1.323 12.2503C0.885498 11.2364 0.666748 10.1531 0.666748 9.00033C0.666748 7.84755 0.885498 6.76421 1.323 5.75033C1.7605 4.73644 2.35425 3.85449 3.10425 3.10449C3.85425 2.35449 4.73619 1.76074 5.75008 1.32324C6.76397 0.885742 7.8473 0.666992 9.00008 0.666992C10.1529 0.666992 11.2362 0.885742 12.2501 1.32324C13.264 1.76074 14.1459 2.35449 14.8959 3.10449C15.6459 3.85449 16.2397 4.73644 16.6772 5.75033C17.1147 6.76421 17.3334 7.84755 17.3334 9.00033C17.3334 10.1531 17.1147 11.2364 16.6772 12.2503C16.2397 13.2642 15.6459 14.1462 14.8959 14.8962C14.1459 15.6462 13.264 16.2399 12.2501 16.6774C11.2362 17.1149 10.1529 17.3337 9.00008 17.3337Z" fill="#F04438"/>
</svg>
