<svg width="18" height="18" viewBox="0 0 18 18" fill="none" xmlns="http://www.w3.org/2000/svg">
<path d="M5.66675 9.83366H12.3334C12.5695 9.83366 12.7674 9.7538 12.9272 9.59408C13.0869 9.43435 13.1667 9.23644 13.1667 9.00033C13.1667 8.76421 13.0869 8.5663 12.9272 8.40658C12.7674 8.24685 12.5695 8.16699 12.3334 8.16699H5.66675C5.43064 8.16699 5.23272 8.24685 5.073 8.40658C4.91328 8.5663 4.83341 8.76421 4.83341 9.00033C4.83341 9.23644 4.91328 9.43435 5.073 9.59408C5.23272 9.7538 5.43064 9.83366 5.66675 9.83366ZM9.00008 17.3337C7.8473 17.3337 6.76397 17.1149 5.75008 16.6774C4.73619 16.2399 3.85425 15.6462 3.10425 14.8962C2.35425 14.1462 1.7605 13.2642 1.323 12.2503C0.885498 11.2364 0.666748 10.1531 0.666748 9.00033C0.666748 7.84755 0.885498 6.76421 1.323 5.75033C1.7605 4.73644 2.35425 3.85449 3.10425 3.10449C3.85425 2.35449 4.73619 1.76074 5.75008 1.32324C6.76397 0.885742 7.8473 0.666992 9.00008 0.666992C10.1529 0.666992 11.2362 0.885742 12.2501 1.32324C13.264 1.76074 14.1459 2.35449 14.8959 3.10449C15.6459 3.85449 16.2397 4.73644 16.6772 5.75033C17.1147 6.76421 17.3334 7.84755 17.3334 9.00033C17.3334 10.1531 17.1147 11.2364 16.6772 12.2503C16.2397 13.2642 15.6459 14.1462 14.8959 14.8962C14.1459 15.6462 13.264 16.2399 12.2501 16.6774C11.2362 17.1149 10.1529 17.3337 9.00008 17.3337Z" fill="#42526D"/>
</svg>
