<svg width="14" height="18" viewBox="0 0 14 18" fill="none" xmlns="http://www.w3.org/2000/svg">
<path d="M7 17.3337C6.54167 17.3337 6.14931 17.1705 5.82292 16.8441C5.49653 16.5177 5.33333 16.1253 5.33333 15.667H8.66667C8.66667 16.1253 8.50347 16.5177 8.17708 16.8441C7.85069 17.1705 7.45833 17.3337 7 17.3337ZM4.5 14.8337C4.26389 14.8337 4.06597 14.7538 3.90625 14.5941C3.74653 14.4344 3.66667 14.2364 3.66667 14.0003C3.66667 13.7642 3.74653 13.5663 3.90625 13.4066C4.06597 13.2469 4.26389 13.167 4.5 13.167H9.5C9.73611 13.167 9.93403 13.2469 10.0938 13.4066C10.2535 13.5663 10.3333 13.7642 10.3333 14.0003C10.3333 14.2364 10.2535 14.4344 10.0938 14.5941C9.93403 14.7538 9.73611 14.8337 9.5 14.8337H4.5ZM3.875 12.3337C2.91667 11.7642 2.15625 11.0003 1.59375 10.042C1.03125 9.08366 0.75 8.04199 0.75 6.91699C0.75 5.18088 1.35764 3.70519 2.57292 2.48991C3.78819 1.27463 5.26389 0.666992 7 0.666992C8.73611 0.666992 10.2118 1.27463 11.4271 2.48991C12.6424 3.70519 13.25 5.18088 13.25 6.91699C13.25 8.04199 12.9688 9.08366 12.4062 10.042C11.8438 11.0003 11.0833 11.7642 10.125 12.3337H3.875Z" fill="#2E90FA"/>
</svg>
