<svg width="18" height="16" viewBox="0 0 18 16" fill="none" xmlns="http://www.w3.org/2000/svg">
<path d="M1.2705 15.5C1.11772 15.5 0.978829 15.4618 0.853829 15.3854C0.728829 15.309 0.631606 15.2083 0.562162 15.0833C0.492718 14.9583 0.454523 14.8229 0.447579 14.6771C0.440634 14.5312 0.478829 14.3889 0.562162 14.25L8.27049 0.916667C8.35383 0.777778 8.46147 0.673611 8.59341 0.604167C8.72536 0.534722 8.86077 0.5 8.99966 0.5C9.13855 0.5 9.27397 0.534722 9.40591 0.604167C9.53786 0.673611 9.64549 0.777778 9.72883 0.916667L17.4372 14.25C17.5205 14.3889 17.5587 14.5312 17.5517 14.6771C17.5448 14.8229 17.5066 14.9583 17.4372 15.0833C17.3677 15.2083 17.2705 15.309 17.1455 15.3854C17.0205 15.4618 16.8816 15.5 16.7288 15.5H1.2705ZM8.99966 13C9.23577 13 9.43369 12.9201 9.59341 12.7604C9.75313 12.6007 9.83299 12.4028 9.83299 12.1667C9.83299 11.9306 9.75313 11.7326 9.59341 11.5729C9.43369 11.4132 9.23577 11.3333 8.99966 11.3333C8.76355 11.3333 8.56563 11.4132 8.40591 11.5729C8.24619 11.7326 8.16633 11.9306 8.16633 12.1667C8.16633 12.4028 8.24619 12.6007 8.40591 12.7604C8.56563 12.9201 8.76355 13 8.99966 13ZM8.99966 10.5C9.23577 10.5 9.43369 10.4201 9.59341 10.2604C9.75313 10.1007 9.83299 9.90278 9.83299 9.66667V7.16667C9.83299 6.93056 9.75313 6.73264 9.59341 6.57292C9.43369 6.41319 9.23577 6.33333 8.99966 6.33333C8.76355 6.33333 8.56563 6.41319 8.40591 6.57292C8.24619 6.73264 8.16633 6.93056 8.16633 7.16667V9.66667C8.16633 9.90278 8.24619 10.1007 8.40591 10.2604C8.56563 10.4201 8.76355 10.5 8.99966 10.5Z" fill="#912018"/>
</svg>
