<svg width="18" height="18" viewBox="0 0 18 18" fill="none" xmlns="http://www.w3.org/2000/svg">
<path d="M8.95841 14.0003C9.25008 14.0003 9.49661 13.8996 9.698 13.6982C9.89939 13.4969 10.0001 13.2503 10.0001 12.9587C10.0001 12.667 9.89939 12.4205 9.698 12.2191C9.49661 12.0177 9.25008 11.917 8.95841 11.917C8.66675 11.917 8.42022 12.0177 8.21883 12.2191C8.01744 12.4205 7.91675 12.667 7.91675 12.9587C7.91675 13.2503 8.01744 13.4969 8.21883 13.6982C8.42022 13.8996 8.66675 14.0003 8.95841 14.0003ZM9.00008 17.3337C7.8473 17.3337 6.76397 17.1149 5.75008 16.6774C4.73619 16.2399 3.85425 15.6462 3.10425 14.8962C2.35425 14.1462 1.7605 13.2642 1.323 12.2503C0.885498 11.2364 0.666748 10.1531 0.666748 9.00033C0.666748 7.84755 0.885498 6.76421 1.323 5.75033C1.7605 4.73644 2.35425 3.85449 3.10425 3.10449C3.85425 2.35449 4.73619 1.76074 5.75008 1.32324C6.76397 0.885742 7.8473 0.666992 9.00008 0.666992C10.1529 0.666992 11.2362 0.885742 12.2501 1.32324C13.264 1.76074 14.1459 2.35449 14.8959 3.10449C15.6459 3.85449 16.2397 4.73644 16.6772 5.75033C17.1147 6.76421 17.3334 7.84755 17.3334 9.00033C17.3334 10.1531 17.1147 11.2364 16.6772 12.2503C16.2397 13.2642 15.6459 14.1462 14.8959 14.8962C14.1459 15.6462 13.264 16.2399 12.2501 16.6774C11.2362 17.1149 10.1529 17.3337 9.00008 17.3337ZM9.08341 5.41699C9.43064 5.41699 9.73272 5.5281 9.98966 5.75033C10.2466 5.97255 10.3751 6.25033 10.3751 6.58366C10.3751 6.88921 10.2813 7.16005 10.0938 7.39616C9.90633 7.63227 9.69453 7.85449 9.45841 8.06283C9.13897 8.3406 8.85772 8.64616 8.61466 8.97949C8.37161 9.31283 8.25008 9.68783 8.25008 10.1045C8.25008 10.2989 8.323 10.4621 8.46883 10.5941C8.61466 10.726 8.7848 10.792 8.97925 10.792C9.18758 10.792 9.36466 10.7225 9.5105 10.5837C9.65633 10.4448 9.75008 10.2712 9.79175 10.0628C9.8473 9.77116 9.9723 9.51074 10.1667 9.28158C10.3612 9.05241 10.5695 8.83366 10.7917 8.62533C11.1112 8.31977 11.3855 7.98644 11.6147 7.62533C11.8438 7.26421 11.9584 6.86144 11.9584 6.41699C11.9584 5.70866 11.6702 5.1288 11.0938 4.67741C10.5174 4.22602 9.8473 4.00033 9.08341 4.00033C8.55564 4.00033 8.05216 4.11144 7.573 4.33366C7.09383 4.55588 6.72925 4.89616 6.47925 5.35449C6.38203 5.52116 6.35078 5.69824 6.3855 5.88574C6.42022 6.07324 6.51397 6.2156 6.66675 6.31283C6.86119 6.42394 7.06258 6.45866 7.27091 6.41699C7.47925 6.37533 7.65286 6.25727 7.79175 6.06283C7.94453 5.85449 8.1355 5.69477 8.36466 5.58366C8.59383 5.47255 8.83341 5.41699 9.08341 5.41699Z" fill="#2970FF"/>
</svg>
