<svg width="41" height="40" viewBox="0 0 41 40" fill="none" xmlns="http://www.w3.org/2000/svg">
<rect x="1.13965" y="0.625" width="38.75" height="38.75" rx="9.375" fill="#2173E3"/>
<rect x="1.13965" y="0.625" width="38.75" height="38.75" rx="9.375" stroke="#2173E3" stroke-width="1.25"/>
<path d="M12.5146 20.025C12.5146 21.4417 12.8688 22.7583 13.5771 23.975C14.2855 25.1917 15.248 26.1667 16.4646 26.9C16.698 27.05 16.8605 27.2542 16.9521 27.5125C17.0438 27.7708 17.023 28.0167 16.8896 28.25C16.7563 28.5 16.5521 28.6625 16.2771 28.7375C16.0021 28.8125 15.7396 28.7833 15.4896 28.65C13.9396 27.75 12.723 26.5333 11.8396 25C10.9563 23.4667 10.5146 21.8083 10.5146 20.025C10.5146 19.5917 10.5438 19.1667 10.6021 18.75C10.6605 18.3333 10.7396 17.9167 10.8396 17.5L10.5146 17.7C10.2813 17.85 10.0313 17.8875 9.76462 17.8125C9.49795 17.7375 9.29795 17.5833 9.16462 17.35C9.03129 17.1167 9.00212 16.8625 9.07712 16.5875C9.15212 16.3125 9.30629 16.1083 9.53962 15.975L12.5646 14.225C12.798 14.0917 13.0521 14.0625 13.3271 14.1375C13.6021 14.2125 13.8063 14.3667 13.9396 14.6L15.6896 17.6C15.823 17.8333 15.8521 18.0875 15.7771 18.3625C15.7021 18.6375 15.548 18.8417 15.3146 18.975C15.0813 19.1083 14.8271 19.1375 14.5521 19.0625C14.2771 18.9875 14.073 18.8333 13.9396 18.6L13.0896 17.125C12.9063 17.5917 12.7646 18.0667 12.6646 18.55C12.5646 19.0333 12.5146 19.525 12.5146 20.025ZM20.5146 12C19.8313 12 19.1563 12.0875 18.4896 12.2625C17.823 12.4375 17.1896 12.6917 16.5896 13.025C16.3396 13.1583 16.0771 13.2042 15.8021 13.1625C15.5271 13.1208 15.323 12.9833 15.1896 12.75C15.0396 12.4833 15.0063 12.2125 15.0896 11.9375C15.173 11.6625 15.348 11.45 15.6146 11.3C16.3646 10.8667 17.1521 10.5417 17.9771 10.325C18.8021 10.1083 19.648 10 20.5146 10C21.8313 10 23.0938 10.2458 24.3021 10.7375C25.5105 11.2292 26.5896 11.9417 27.5396 12.875V12.5C27.5396 12.2167 27.6355 11.9792 27.8271 11.7875C28.0188 11.5958 28.2563 11.5 28.5396 11.5C28.823 11.5 29.0605 11.5958 29.2521 11.7875C29.4438 11.9792 29.5396 12.2167 29.5396 12.5V16C29.5396 16.2833 29.4438 16.5208 29.2521 16.7125C29.0605 16.9042 28.823 17 28.5396 17H25.0396C24.7563 17 24.5188 16.9042 24.3271 16.7125C24.1355 16.5208 24.0396 16.2833 24.0396 16C24.0396 15.7167 24.1355 15.4792 24.3271 15.2875C24.5188 15.0958 24.7563 15 25.0396 15H26.7646C25.998 14.05 25.073 13.3125 23.9896 12.7875C22.9063 12.2625 21.748 12 20.5146 12ZM26.5646 25.275C27.198 24.5417 27.6813 23.7333 28.0146 22.85C28.348 21.9667 28.5146 21.0417 28.5146 20.075C28.5146 19.7917 28.6105 19.5417 28.8021 19.325C28.9938 19.1083 29.2313 19 29.5146 19C29.798 19 30.0355 19.1083 30.2271 19.325C30.4188 19.5417 30.5146 19.7917 30.5146 20.075C30.5146 21.1583 30.3438 22.2042 30.0021 23.2125C29.6605 24.2208 29.1646 25.1583 28.5146 26.025C27.8646 26.8917 27.0938 27.6333 26.2021 28.25C25.3105 28.8667 24.3396 29.325 23.2896 29.625L23.5396 29.775C23.773 29.9083 23.923 30.1125 23.9896 30.3875C24.0563 30.6625 24.023 30.9167 23.8896 31.15C23.7563 31.3833 23.5563 31.5333 23.2896 31.6C23.023 31.6667 22.773 31.6333 22.5396 31.5L19.4896 29.75C19.2563 29.6167 19.1021 29.4125 19.0271 29.1375C18.9521 28.8625 18.9813 28.6083 19.1146 28.375L20.8646 25.35C20.998 25.1167 21.198 24.9667 21.4646 24.9C21.7313 24.8333 21.9813 24.8667 22.2146 25C22.448 25.1333 22.6021 25.3375 22.6771 25.6125C22.7521 25.8875 22.723 26.1417 22.5896 26.375L21.6646 27.95C22.6146 27.8167 23.5105 27.5208 24.3521 27.0625C25.1938 26.6042 25.9313 26.0083 26.5646 25.275Z" fill="white"/>
</svg>
