<svg width="41" height="40" viewBox="0 0 41 40" fill="none" xmlns="http://www.w3.org/2000/svg">
<rect x="1.13965" y="0.625" width="38.75" height="38.75" rx="9.375" fill="#2173E3"/>
<rect x="1.13965" y="0.625" width="38.75" height="38.75" rx="9.375" stroke="#2173E3" stroke-width="1.25"/>
<path d="M11.2397 29C11.0563 29 10.8897 28.9542 10.7397 28.8625C10.5897 28.7708 10.473 28.65 10.3897 28.5C10.3063 28.35 10.2605 28.1875 10.2522 28.0125C10.2438 27.8375 10.2897 27.6667 10.3897 27.5L19.6397 11.5C19.7397 11.3333 19.8688 11.2083 20.0272 11.125C20.1855 11.0417 20.348 11 20.5147 11C20.6813 11 20.8438 11.0417 21.0022 11.125C21.1605 11.2083 21.2897 11.3333 21.3897 11.5L30.6397 27.5C30.7397 27.6667 30.7855 27.8375 30.7772 28.0125C30.7688 28.1875 30.723 28.35 30.6397 28.5C30.5563 28.65 30.4397 28.7708 30.2897 28.8625C30.1397 28.9542 29.973 29 29.7897 29H11.2397ZM12.9647 27H28.0647L20.5147 14L12.9647 27ZM20.5147 26C20.798 26 21.0355 25.9042 21.2272 25.7125C21.4188 25.5208 21.5147 25.2833 21.5147 25C21.5147 24.7167 21.4188 24.4792 21.2272 24.2875C21.0355 24.0958 20.798 24 20.5147 24C20.2313 24 19.9938 24.0958 19.8022 24.2875C19.6105 24.4792 19.5147 24.7167 19.5147 25C19.5147 25.2833 19.6105 25.5208 19.8022 25.7125C19.9938 25.9042 20.2313 26 20.5147 26ZM20.5147 23C20.798 23 21.0355 22.9042 21.2272 22.7125C21.4188 22.5208 21.5147 22.2833 21.5147 22V19C21.5147 18.7167 21.4188 18.4792 21.2272 18.2875C21.0355 18.0958 20.798 18 20.5147 18C20.2313 18 19.9938 18.0958 19.8022 18.2875C19.6105 18.4792 19.5147 18.7167 19.5147 19V22C19.5147 22.2833 19.6105 22.5208 19.8022 22.7125C19.9938 22.9042 20.2313 23 20.5147 23Z" fill="white"/>
</svg>
