<svg width="41" height="40" viewBox="0 0 41 40" fill="none" xmlns="http://www.w3.org/2000/svg">
<rect x="1.13965" y="0.625" width="38.75" height="38.75" rx="9.375" fill="#2173E3"/>
<rect x="1.13965" y="0.625" width="38.75" height="38.75" rx="9.375" stroke="#2173E3" stroke-width="1.25"/>
<path d="M12.5146 23C11.6813 23 10.973 22.7083 10.3896 22.125C9.80632 21.5417 9.51465 20.8333 9.51465 20C9.51465 19.1667 9.80632 18.4583 10.3896 17.875C10.973 17.2917 11.6813 17 12.5146 17V15C12.5146 14.45 12.7105 13.9792 13.1021 13.5875C13.4938 13.1958 13.9646 13 14.5146 13H17.5146C17.5146 12.1667 17.8063 11.4583 18.3896 10.875C18.973 10.2917 19.6813 10 20.5146 10C21.348 10 22.0563 10.2917 22.6396 10.875C23.223 11.4583 23.5146 12.1667 23.5146 13H26.5146C27.0646 13 27.5355 13.1958 27.9271 13.5875C28.3188 13.9792 28.5146 14.45 28.5146 15V17C29.348 17 30.0563 17.2917 30.6396 17.875C31.223 18.4583 31.5146 19.1667 31.5146 20C31.5146 20.8333 31.223 21.5417 30.6396 22.125C30.0563 22.7083 29.348 23 28.5146 23V27C28.5146 27.55 28.3188 28.0208 27.9271 28.4125C27.5355 28.8042 27.0646 29 26.5146 29H14.5146C13.9646 29 13.4938 28.8042 13.1021 28.4125C12.7105 28.0208 12.5146 27.55 12.5146 27V23ZM17.5146 21C17.9313 21 18.2855 20.8542 18.5771 20.5625C18.8688 20.2708 19.0146 19.9167 19.0146 19.5C19.0146 19.0833 18.8688 18.7292 18.5771 18.4375C18.2855 18.1458 17.9313 18 17.5146 18C17.098 18 16.7438 18.1458 16.4521 18.4375C16.1605 18.7292 16.0146 19.0833 16.0146 19.5C16.0146 19.9167 16.1605 20.2708 16.4521 20.5625C16.7438 20.8542 17.098 21 17.5146 21ZM23.5146 21C23.9313 21 24.2855 20.8542 24.5771 20.5625C24.8688 20.2708 25.0146 19.9167 25.0146 19.5C25.0146 19.0833 24.8688 18.7292 24.5771 18.4375C24.2855 18.1458 23.9313 18 23.5146 18C23.098 18 22.7438 18.1458 22.4521 18.4375C22.1605 18.7292 22.0146 19.0833 22.0146 19.5C22.0146 19.9167 22.1605 20.2708 22.4521 20.5625C22.7438 20.8542 23.098 21 23.5146 21ZM17.5146 25H23.5146C23.798 25 24.0355 24.9042 24.2271 24.7125C24.4188 24.5208 24.5146 24.2833 24.5146 24C24.5146 23.7167 24.4188 23.4792 24.2271 23.2875C24.0355 23.0958 23.798 23 23.5146 23H17.5146C17.2313 23 16.9938 23.0958 16.8021 23.2875C16.6105 23.4792 16.5146 23.7167 16.5146 24C16.5146 24.2833 16.6105 24.5208 16.8021 24.7125C16.9938 24.9042 17.2313 25 17.5146 25ZM14.5146 27H26.5146V15H14.5146V27Z" fill="white"/>
</svg>
