<svg width="41" height="41" viewBox="0 0 41 41" fill="none" xmlns="http://www.w3.org/2000/svg">
<rect x="0.5" y="0.300781" width="40" height="40" rx="10" fill="#F04438"/>
<path d="M20.5 29.3012C19.4167 29.3012 18.4125 29.0345 17.4875 28.5012C16.5625 27.9678 15.8333 27.2345 15.3 26.3012H13.5C13.2167 26.3012 12.9792 26.2053 12.7875 26.0137C12.5958 25.822 12.5 25.5845 12.5 25.3012C12.5 25.0178 12.5958 24.7803 12.7875 24.5887C12.9792 24.397 13.2167 24.3012 13.5 24.3012H14.6C14.55 23.9678 14.5208 23.6345 14.5125 23.3012C14.5042 22.9678 14.5 22.6345 14.5 22.3012H13.5C13.2167 22.3012 12.9792 22.2053 12.7875 22.0137C12.5958 21.822 12.5 21.5845 12.5 21.3012C12.5 21.0178 12.5958 20.7803 12.7875 20.5887C12.9792 20.397 13.2167 20.3012 13.5 20.3012H14.5C14.5 19.9678 14.5042 19.6345 14.5125 19.3012C14.5208 18.9678 14.55 18.6345 14.6 18.3012H13.5C13.2167 18.3012 12.9792 18.2053 12.7875 18.0137C12.5958 17.822 12.5 17.5845 12.5 17.3012C12.5 17.0178 12.5958 16.7803 12.7875 16.5887C12.9792 16.397 13.2167 16.3012 13.5 16.3012H15.3C15.5333 15.9178 15.7958 15.5595 16.0875 15.2262C16.3792 14.8928 16.7167 14.6012 17.1 14.3512L16.175 13.4012C15.9917 13.2178 15.9 12.9887 15.9 12.7137C15.9 12.4387 16 12.2012 16.2 12.0012C16.3833 11.8178 16.6167 11.7262 16.9 11.7262C17.1833 11.7262 17.4167 11.8178 17.6 12.0012L19.05 13.4512C19.5167 13.3012 19.9917 13.2262 20.475 13.2262C20.9583 13.2262 21.4333 13.3012 21.9 13.4512L23.4 11.9762C23.5833 11.7928 23.8125 11.7012 24.0875 11.7012C24.3625 11.7012 24.6 11.8012 24.8 12.0012C24.9833 12.1845 25.075 12.4178 25.075 12.7012C25.075 12.9845 24.9833 13.2178 24.8 13.4012L23.85 14.3512C24.2333 14.6012 24.5792 14.8887 24.8875 15.2137C25.1958 15.5387 25.4667 15.9012 25.7 16.3012H27.5C27.7833 16.3012 28.0208 16.397 28.2125 16.5887C28.4042 16.7803 28.5 17.0178 28.5 17.3012C28.5 17.5845 28.4042 17.822 28.2125 18.0137C28.0208 18.2053 27.7833 18.3012 27.5 18.3012H26.4C26.45 18.6345 26.4792 18.9678 26.4875 19.3012C26.4958 19.6345 26.5 19.9678 26.5 20.3012H27.5C27.7833 20.3012 28.0208 20.397 28.2125 20.5887C28.4042 20.7803 28.5 21.0178 28.5 21.3012C28.5 21.5845 28.4042 21.822 28.2125 22.0137C28.0208 22.2053 27.7833 22.3012 27.5 22.3012H26.5C26.5 22.6345 26.4958 22.9678 26.4875 23.3012C26.4792 23.6345 26.45 23.9678 26.4 24.3012H27.5C27.7833 24.3012 28.0208 24.397 28.2125 24.5887C28.4042 24.7803 28.5 25.0178 28.5 25.3012C28.5 25.5845 28.4042 25.822 28.2125 26.0137C28.0208 26.2053 27.7833 26.3012 27.5 26.3012H25.7C25.1667 27.2345 24.4375 27.9678 23.5125 28.5012C22.5875 29.0345 21.5833 29.3012 20.5 29.3012ZM20.5 27.3012C21.6 27.3012 22.5417 26.9095 23.325 26.1262C24.1083 25.3428 24.5 24.4012 24.5 23.3012V19.3012C24.5 18.2012 24.1083 17.2595 23.325 16.4762C22.5417 15.6928 21.6 15.3012 20.5 15.3012C19.4 15.3012 18.4583 15.6928 17.675 16.4762C16.8917 17.2595 16.5 18.2012 16.5 19.3012V23.3012C16.5 24.4012 16.8917 25.3428 17.675 26.1262C18.4583 26.9095 19.4 27.3012 20.5 27.3012ZM19.5 24.3012H21.5C21.7833 24.3012 22.0208 24.2053 22.2125 24.0137C22.4042 23.822 22.5 23.5845 22.5 23.3012C22.5 23.0178 22.4042 22.7803 22.2125 22.5887C22.0208 22.397 21.7833 22.3012 21.5 22.3012H19.5C19.2167 22.3012 18.9792 22.397 18.7875 22.5887C18.5958 22.7803 18.5 23.0178 18.5 23.3012C18.5 23.5845 18.5958 23.822 18.7875 24.0137C18.9792 24.2053 19.2167 24.3012 19.5 24.3012ZM19.5 20.3012H21.5C21.7833 20.3012 22.0208 20.2053 22.2125 20.0137C22.4042 19.822 22.5 19.5845 22.5 19.3012C22.5 19.0178 22.4042 18.7803 22.2125 18.5887C22.0208 18.397 21.7833 18.3012 21.5 18.3012H19.5C19.2167 18.3012 18.9792 18.397 18.7875 18.5887C18.5958 18.7803 18.5 19.0178 18.5 19.3012C18.5 19.5845 18.5958 19.822 18.7875 20.0137C18.9792 20.2053 19.2167 20.3012 19.5 20.3012Z" fill="white"/>
</svg>
