<svg width="40" height="41" viewBox="0 0 40 41" fill="none" xmlns="http://www.w3.org/2000/svg">
<rect y="0.300781" width="40" height="40" rx="10" fill="#16B364"/>
<path d="M17 26.3008H23C23.2833 26.3008 23.5208 26.2049 23.7125 26.0133C23.9042 25.8216 24 25.5841 24 25.3008C24 25.0174 23.9042 24.7799 23.7125 24.5883C23.5208 24.3966 23.2833 24.3008 23 24.3008H17C16.7167 24.3008 16.4792 24.3966 16.2875 24.5883C16.0958 24.7799 16 25.0174 16 25.3008C16 25.5841 16.0958 25.8216 16.2875 26.0133C16.4792 26.2049 16.7167 26.3008 17 26.3008ZM17 22.3008H23C23.2833 22.3008 23.5208 22.2049 23.7125 22.0133C23.9042 21.8216 24 21.5841 24 21.3008C24 21.0174 23.9042 20.7799 23.7125 20.5883C23.5208 20.3966 23.2833 20.3008 23 20.3008H17C16.7167 20.3008 16.4792 20.3966 16.2875 20.5883C16.0958 20.7799 16 21.0174 16 21.3008C16 21.5841 16.0958 21.8216 16.2875 22.0133C16.4792 22.2049 16.7167 22.3008 17 22.3008ZM14 30.3008C13.45 30.3008 12.9792 30.1049 12.5875 29.7133C12.1958 29.3216 12 28.8508 12 28.3008V12.3008C12 11.7508 12.1958 11.2799 12.5875 10.8883C12.9792 10.4966 13.45 10.3008 14 10.3008H21.175C21.4417 10.3008 21.6958 10.3508 21.9375 10.4508C22.1792 10.5508 22.3917 10.6924 22.575 10.8758L27.425 15.7258C27.6083 15.9091 27.75 16.1216 27.85 16.3633C27.95 16.6049 28 16.8591 28 17.1258V28.3008C28 28.8508 27.8042 29.3216 27.4125 29.7133C27.0208 30.1049 26.55 30.3008 26 30.3008H14ZM21 16.3008V12.3008H14V28.3008H26V17.3008H22C21.7167 17.3008 21.4792 17.2049 21.2875 17.0133C21.0958 16.8216 21 16.5841 21 16.3008Z" fill="white"/>
</svg>
