<svg width="24" height="25" viewBox="0 0 24 25" fill="none" xmlns="http://www.w3.org/2000/svg">
<g clip-path="url(#clip0_6316_4581)">
<path d="M8.48047 10.6316V7.816C8.48042 7.63113 8.51683 7.44806 8.58761 7.27727C8.65839 7.10649 8.76215 6.95133 8.89295 6.82069C9.15692 6.55637 9.51486 6.4082 9.88827 6.4082C10.2617 6.4082 10.6196 6.55637 10.8836 6.82069C11.0144 6.95133 11.1181 7.10649 11.1889 7.27727C11.2597 7.44806 11.2961 7.63113 11.2961 7.816V10.6316M8.48047 9.2238H11.2961M13.4078 6.4082H15.5195M13.4078 10.6316H15.5195M14.4636 6.4082V10.6316" stroke="#475467" stroke-width="1.5" stroke-miterlimit="10" stroke-linecap="round" stroke-linejoin="round"/>
<path d="M4.25704 19.0783C5.03455 19.0783 5.66484 18.448 5.66484 17.6705C5.66484 16.893 5.03455 16.2627 4.25704 16.2627C3.47954 16.2627 2.84924 16.893 2.84924 17.6705C2.84924 18.448 3.47954 19.0783 4.25704 19.0783Z" stroke="#475467" stroke-width="1.5" stroke-miterlimit="10" stroke-linecap="round" stroke-linejoin="round"/>
<path d="M19.7429 19.0783C20.5204 19.0783 21.1507 18.448 21.1507 17.6705C21.1507 16.893 20.5204 16.2627 19.7429 16.2627C18.9654 16.2627 18.3351 16.893 18.3351 17.6705C18.3351 18.448 18.9654 19.0783 19.7429 19.0783Z" stroke="#475467" stroke-width="1.5" stroke-miterlimit="10" stroke-linecap="round" stroke-linejoin="round"/>
<path d="M14.8156 22.5978C15.5931 22.5978 16.2234 21.9675 16.2234 21.19C16.2234 20.4125 15.5931 19.7822 14.8156 19.7822C14.0381 19.7822 13.4078 20.4125 13.4078 21.19C13.4078 21.9675 14.0381 22.5978 14.8156 22.5978Z" stroke="#475467" stroke-width="1.5" stroke-miterlimit="10" stroke-linecap="round" stroke-linejoin="round"/>
<path d="M9.18435 22.5978C9.96185 22.5978 10.5921 21.9675 10.5921 21.19C10.5921 20.4125 9.96185 19.7822 9.18435 19.7822C8.40684 19.7822 7.77655 20.4125 7.77655 21.19C7.77655 21.9675 8.40684 22.5978 9.18435 22.5978Z" stroke="#475467" stroke-width="1.5" stroke-miterlimit="10" stroke-linecap="round" stroke-linejoin="round"/>
<path d="M5.25232 16.6754L7.0726 14.8551V13.4473M18.7476 16.6754L16.9273 14.8551V13.4473M13.4078 13.4473V16.2629L14.8156 17.6707V19.7824M10.5922 13.4473V16.2629L9.18432 17.6707V19.7824" stroke="#475467" stroke-width="1.5" stroke-miterlimit="10" stroke-linecap="round" stroke-linejoin="round"/>
<path d="M7.50239 4.39359C8.27317 2.67714 9.99807 1.48047 12 1.48047C14.0019 1.48047 15.7268 2.67714 16.4976 4.39359C16.7531 4.32865 17.0157 4.2959 17.2793 4.29611C19.0275 4.29611 20.4469 5.71556 20.4469 7.46369V9.22347C21.6122 9.22347 22.5586 10.1699 22.5586 11.3352C22.5586 12.5005 21.6122 13.4469 20.4469 13.4469H3.55313C2.38782 13.4469 1.44141 12.5005 1.44141 11.3352C1.44141 10.1699 2.38782 9.22347 3.55313 9.22347V7.46369C3.55313 5.71556 4.97253 4.29611 6.7207 4.29611C6.99028 4.29611 7.25249 4.32989 7.50239 4.39359Z" stroke="#475467" stroke-width="1.5" stroke-miterlimit="10" stroke-linecap="round" stroke-linejoin="round"/>
</g>
<defs>
<clipPath id="clip0_6316_4581">
<rect width="24" height="24" fill="white" transform="translate(0 0.0390625)"/>
</clipPath>
</defs>
</svg>
