<svg width="24" height="25" viewBox="0 0 24 25" fill="none" xmlns="http://www.w3.org/2000/svg">
<path d="M4 15.0391C3.16667 15.0391 2.45833 14.7474 1.875 14.1641C1.29167 13.5807 1 12.8724 1 12.0391C1 11.2057 1.29167 10.4974 1.875 9.91406C2.45833 9.33073 3.16667 9.03906 4 9.03906V7.03906C4 6.48906 4.19583 6.01823 4.5875 5.62656C4.97917 5.2349 5.45 5.03906 6 5.03906H9C9 4.20573 9.29167 3.4974 9.875 2.91406C10.4583 2.33073 11.1667 2.03906 12 2.03906C12.8333 2.03906 13.5417 2.33073 14.125 2.91406C14.7083 3.4974 15 4.20573 15 5.03906H18C18.55 5.03906 19.0208 5.2349 19.4125 5.62656C19.8042 6.01823 20 6.48906 20 7.03906V9.03906C20.8333 9.03906 21.5417 9.33073 22.125 9.91406C22.7083 10.4974 23 11.2057 23 12.0391C23 12.8724 22.7083 13.5807 22.125 14.1641C21.5417 14.7474 20.8333 15.0391 20 15.0391V19.0391C20 19.5891 19.8042 20.0599 19.4125 20.4516C19.0208 20.8432 18.55 21.0391 18 21.0391H6C5.45 21.0391 4.97917 20.8432 4.5875 20.4516C4.19583 20.0599 4 19.5891 4 19.0391V15.0391ZM9 13.0391C9.41667 13.0391 9.77083 12.8932 10.0625 12.6016C10.3542 12.3099 10.5 11.9557 10.5 11.5391C10.5 11.1224 10.3542 10.7682 10.0625 10.4766C9.77083 10.1849 9.41667 10.0391 9 10.0391C8.58333 10.0391 8.22917 10.1849 7.9375 10.4766C7.64583 10.7682 7.5 11.1224 7.5 11.5391C7.5 11.9557 7.64583 12.3099 7.9375 12.6016C8.22917 12.8932 8.58333 13.0391 9 13.0391ZM15 13.0391C15.4167 13.0391 15.7708 12.8932 16.0625 12.6016C16.3542 12.3099 16.5 11.9557 16.5 11.5391C16.5 11.1224 16.3542 10.7682 16.0625 10.4766C15.7708 10.1849 15.4167 10.0391 15 10.0391C14.5833 10.0391 14.2292 10.1849 13.9375 10.4766C13.6458 10.7682 13.5 11.1224 13.5 11.5391C13.5 11.9557 13.6458 12.3099 13.9375 12.6016C14.2292 12.8932 14.5833 13.0391 15 13.0391ZM9 17.0391H15C15.2833 17.0391 15.5208 16.9432 15.7125 16.7516C15.9042 16.5599 16 16.3224 16 16.0391C16 15.7557 15.9042 15.5182 15.7125 15.3266C15.5208 15.1349 15.2833 15.0391 15 15.0391H9C8.71667 15.0391 8.47917 15.1349 8.2875 15.3266C8.09583 15.5182 8 15.7557 8 16.0391C8 16.3224 8.09583 16.5599 8.2875 16.7516C8.47917 16.9432 8.71667 17.0391 9 17.0391ZM6 19.0391H18V7.03906H6V19.0391Z" fill="#475467"/>
</svg>
