<svg width="24" height="25" viewBox="0 0 24 25" fill="none" xmlns="http://www.w3.org/2000/svg">
<path d="M10.6 13.8391L8.45 11.6891C8.26667 11.5057 8.03333 11.4141 7.75 11.4141C7.46667 11.4141 7.23333 11.5057 7.05 11.6891C6.86667 11.8724 6.775 12.1057 6.775 12.3891C6.775 12.6724 6.86667 12.9057 7.05 13.0891L9.9 15.9391C10.1 16.1391 10.3333 16.2391 10.6 16.2391C10.8667 16.2391 11.1 16.1391 11.3 15.9391L16.95 10.2891C17.1333 10.1057 17.225 9.8724 17.225 9.58906C17.225 9.30573 17.1333 9.0724 16.95 8.88906C16.7667 8.70573 16.5333 8.61406 16.25 8.61406C15.9667 8.61406 15.7333 8.70573 15.55 8.88906L10.6 13.8391ZM12 22.0391C10.6167 22.0391 9.31667 21.7766 8.1 21.2516C6.88333 20.7266 5.825 20.0141 4.925 19.1141C4.025 18.2141 3.3125 17.1557 2.7875 15.9391C2.2625 14.7224 2 13.4224 2 12.0391C2 10.6557 2.2625 9.35573 2.7875 8.13906C3.3125 6.9224 4.025 5.86406 4.925 4.96406C5.825 4.06406 6.88333 3.35156 8.1 2.82656C9.31667 2.30156 10.6167 2.03906 12 2.03906C13.3833 2.03906 14.6833 2.30156 15.9 2.82656C17.1167 3.35156 18.175 4.06406 19.075 4.96406C19.975 5.86406 20.6875 6.9224 21.2125 8.13906C21.7375 9.35573 22 10.6557 22 12.0391C22 13.4224 21.7375 14.7224 21.2125 15.9391C20.6875 17.1557 19.975 18.2141 19.075 19.1141C18.175 20.0141 17.1167 20.7266 15.9 21.2516C14.6833 21.7766 13.3833 22.0391 12 22.0391ZM12 20.0391C14.2333 20.0391 16.125 19.2641 17.675 17.7141C19.225 16.1641 20 14.2724 20 12.0391C20 9.80573 19.225 7.91406 17.675 6.36406C16.125 4.81406 14.2333 4.03906 12 4.03906C9.76667 4.03906 7.875 4.81406 6.325 6.36406C4.775 7.91406 4 9.80573 4 12.0391C4 14.2724 4.775 16.1641 6.325 17.7141C7.875 19.2641 9.76667 20.0391 12 20.0391Z" fill="#475467"/>
</svg>
