<svg width="24" height="25" viewBox="0 0 24 25" fill="none" xmlns="http://www.w3.org/2000/svg">
<path d="M5 21.0391C4.45 21.0391 3.97917 20.8432 3.5875 20.4516C3.19583 20.0599 3 19.5891 3 19.0391V5.03906C3 4.48906 3.19583 4.01823 3.5875 3.62656C3.97917 3.2349 4.45 3.03906 5 3.03906H19C19.55 3.03906 20.0208 3.2349 20.4125 3.62656C20.8042 4.01823 21 4.48906 21 5.03906V19.0391C21 19.5891 20.8042 20.0599 20.4125 20.4516C20.0208 20.8432 19.55 21.0391 19 21.0391H5ZM5 19.0391H11V5.03906H5V19.0391ZM13 19.0391H19V12.0391H13V19.0391ZM13 10.0391H19V5.03906H13V10.0391Z" fill="#475467"/>
</svg>
