<svg width="24" height="25" viewBox="0 0 24 25" fill="none" xmlns="http://www.w3.org/2000/svg">
<path d="M5 21.0391C4.45 21.0391 3.97917 20.8432 3.5875 20.4516C3.19583 20.0599 3 19.5891 3 19.0391V5.03906C3 4.48906 3.19583 4.01823 3.5875 3.62656C3.97917 3.2349 4.45 3.03906 5 3.03906H19C19.55 3.03906 20.0208 3.2349 20.4125 3.62656C20.8042 4.01823 21 4.48906 21 5.03906V19.0391C21 19.5891 20.8042 20.0599 20.4125 20.4516C20.0208 20.8432 19.55 21.0391 19 21.0391H5ZM5 19.0391H19V7.03906H5V19.0391ZM8 12.0391C7.71667 12.0391 7.47917 11.9432 7.2875 11.7516C7.09583 11.5599 7 11.3224 7 11.0391C7 10.7557 7.09583 10.5182 7.2875 10.3266C7.47917 10.1349 7.71667 10.0391 8 10.0391H16C16.2833 10.0391 16.5208 10.1349 16.7125 10.3266C16.9042 10.5182 17 10.7557 17 11.0391C17 11.3224 16.9042 11.5599 16.7125 11.7516C16.5208 11.9432 16.2833 12.0391 16 12.0391H8ZM8 16.0391C7.71667 16.0391 7.47917 15.9432 7.2875 15.7516C7.09583 15.5599 7 15.3224 7 15.0391C7 14.7557 7.09583 14.5182 7.2875 14.3266C7.47917 14.1349 7.71667 14.0391 8 14.0391H12C12.2833 14.0391 12.5208 14.1349 12.7125 14.3266C12.9042 14.5182 13 14.7557 13 15.0391C13 15.3224 12.9042 15.5599 12.7125 15.7516C12.5208 15.9432 12.2833 16.0391 12 16.0391H8Z" fill="#475467"/>
</svg>
