<svg width="24" height="25" viewBox="0 0 24 25" fill="none" xmlns="http://www.w3.org/2000/svg">
<path d="M6 22.0391C5.45 22.0391 4.97917 21.8432 4.5875 21.4516C4.19583 21.0599 4 20.5891 4 20.0391V10.0391C4 9.48906 4.19583 9.01823 4.5875 8.62656C4.97917 8.2349 5.45 8.03906 6 8.03906H7V6.03906C7 4.65573 7.4875 3.47656 8.4625 2.50156C9.4375 1.52656 10.6167 1.03906 12 1.03906C13.3833 1.03906 14.5625 1.52656 15.5375 2.50156C16.5125 3.47656 17 4.65573 17 6.03906V8.03906H18C18.55 8.03906 19.0208 8.2349 19.4125 8.62656C19.8042 9.01823 20 9.48906 20 10.0391V20.0391C20 20.5891 19.8042 21.0599 19.4125 21.4516C19.0208 21.8432 18.55 22.0391 18 22.0391H6ZM6 20.0391H18V10.0391H6V20.0391ZM12 17.0391C12.55 17.0391 13.0208 16.8432 13.4125 16.4516C13.8042 16.0599 14 15.5891 14 15.0391C14 14.4891 13.8042 14.0182 13.4125 13.6266C13.0208 13.2349 12.55 13.0391 12 13.0391C11.45 13.0391 10.9792 13.2349 10.5875 13.6266C10.1958 14.0182 10 14.4891 10 15.0391C10 15.5891 10.1958 16.0599 10.5875 16.4516C10.9792 16.8432 11.45 17.0391 12 17.0391ZM9 8.03906H15V6.03906C15 5.20573 14.7083 4.4974 14.125 3.91406C13.5417 3.33073 12.8333 3.03906 12 3.03906C11.1667 3.03906 10.4583 3.33073 9.875 3.91406C9.29167 4.4974 9 5.20573 9 6.03906V8.03906Z" fill="#475467"/>
</svg>
