<svg width="24" height="25" viewBox="0 0 24 25" fill="none" xmlns="http://www.w3.org/2000/svg">
<path d="M5 21.0195C4.45 21.0195 3.97917 20.8237 3.5875 20.432C3.19583 20.0404 3 19.5695 3 19.0195V5.01953C3 4.46953 3.19583 3.9987 3.5875 3.60703C3.97917 3.21536 4.45 3.01953 5 3.01953H11C11.2833 3.01953 11.5208 3.11536 11.7125 3.30703C11.9042 3.4987 12 3.7362 12 4.01953C12 4.30286 11.9042 4.54036 11.7125 4.73203C11.5208 4.9237 11.2833 5.01953 11 5.01953H5V19.0195H11C11.2833 19.0195 11.5208 19.1154 11.7125 19.307C11.9042 19.4987 12 19.7362 12 20.0195C12 20.3029 11.9042 20.5404 11.7125 20.732C11.5208 20.9237 11.2833 21.0195 11 21.0195H5ZM17.175 13.0195H10C9.71667 13.0195 9.47917 12.9237 9.2875 12.732C9.09583 12.5404 9 12.3029 9 12.0195C9 11.7362 9.09583 11.4987 9.2875 11.307C9.47917 11.1154 9.71667 11.0195 10 11.0195H17.175L15.3 9.14453C15.1167 8.9612 15.025 8.7362 15.025 8.46953C15.025 8.20286 15.1167 7.96953 15.3 7.76953C15.4833 7.56953 15.7167 7.46536 16 7.45703C16.2833 7.4487 16.525 7.54453 16.725 7.74453L20.3 11.3195C20.5 11.5195 20.6 11.7529 20.6 12.0195C20.6 12.2862 20.5 12.5195 20.3 12.7195L16.725 16.2945C16.525 16.4945 16.2875 16.5904 16.0125 16.582C15.7375 16.5737 15.5 16.4695 15.3 16.2695C15.1167 16.0695 15.0292 15.832 15.0375 15.557C15.0458 15.282 15.1417 15.0529 15.325 14.8695L17.175 13.0195Z" fill="#475467"/>
</svg>
