<svg width="24" height="25" viewBox="0 0 24 25" fill="none" xmlns="http://www.w3.org/2000/svg">
<path d="M4 20.0391C3.45 20.0391 2.97917 19.8432 2.5875 19.4516C2.19583 19.0599 2 18.5891 2 18.0391V6.03906C2 5.48906 2.19583 5.01823 2.5875 4.62656C2.97917 4.2349 3.45 4.03906 4 4.03906H20C20.55 4.03906 21.0208 4.2349 21.4125 4.62656C21.8042 5.01823 22 5.48906 22 6.03906V18.0391C22 18.5891 21.8042 19.0599 21.4125 19.4516C21.0208 19.8432 20.55 20.0391 20 20.0391H4ZM4 18.0391H14.5V14.5391H4V18.0391ZM16.5 18.0391H20V9.03906H16.5V18.0391ZM4 12.5391H14.5V9.03906H4V12.5391Z" fill="#475467"/>
</svg>
