<svg width="24" height="25" viewBox="0 0 24 25" fill="none" xmlns="http://www.w3.org/2000/svg">
<path d="M9 18.0391H15C15.2833 18.0391 15.5208 17.9432 15.7125 17.7516C15.9042 17.5599 16 17.3224 16 17.0391C16 16.7557 15.9042 16.5182 15.7125 16.3266C15.5208 16.1349 15.2833 16.0391 15 16.0391H9C8.71667 16.0391 8.47917 16.1349 8.2875 16.3266C8.09583 16.5182 8 16.7557 8 17.0391C8 17.3224 8.09583 17.5599 8.2875 17.7516C8.47917 17.9432 8.71667 18.0391 9 18.0391ZM9 14.0391H15C15.2833 14.0391 15.5208 13.9432 15.7125 13.7516C15.9042 13.5599 16 13.3224 16 13.0391C16 12.7557 15.9042 12.5182 15.7125 12.3266C15.5208 12.1349 15.2833 12.0391 15 12.0391H9C8.71667 12.0391 8.47917 12.1349 8.2875 12.3266C8.09583 12.5182 8 12.7557 8 13.0391C8 13.3224 8.09583 13.5599 8.2875 13.7516C8.47917 13.9432 8.71667 14.0391 9 14.0391ZM6 22.0391C5.45 22.0391 4.97917 21.8432 4.5875 21.4516C4.19583 21.0599 4 20.5891 4 20.0391V4.03906C4 3.48906 4.19583 3.01823 4.5875 2.62656C4.97917 2.2349 5.45 2.03906 6 2.03906H13.175C13.4417 2.03906 13.6958 2.08906 13.9375 2.18906C14.1792 2.28906 14.3917 2.43073 14.575 2.61406L19.425 7.46406C19.6083 7.6474 19.75 7.8599 19.85 8.10156C19.95 8.34323 20 8.5974 20 8.86406V20.0391C20 20.5891 19.8042 21.0599 19.4125 21.4516C19.0208 21.8432 18.55 22.0391 18 22.0391H6ZM13 8.03906V4.03906H6V20.0391H18V9.03906H14C13.7167 9.03906 13.4792 8.94323 13.2875 8.75156C13.0958 8.5599 13 8.3224 13 8.03906Z" fill="#475467"/>
</svg>
