<svg width="24" height="25" viewBox="0 0 24 25" fill="none" xmlns="http://www.w3.org/2000/svg">
<path d="M10.825 22.0195C10.375 22.0195 9.98748 21.8695 9.66248 21.5695C9.33748 21.2695 9.14165 20.9029 9.07498 20.4695L8.84998 18.8195C8.63331 18.7362 8.42915 18.6362 8.23748 18.5195C8.04581 18.4029 7.85831 18.2779 7.67498 18.1445L6.12498 18.7945C5.70831 18.9779 5.29165 18.9945 4.87498 18.8445C4.45831 18.6945 4.13331 18.4279 3.89998 18.0445L2.72498 15.9945C2.49165 15.6112 2.42498 15.2029 2.52498 14.7695C2.62498 14.3362 2.84998 13.9779 3.19998 13.6945L4.52498 12.6945C4.50831 12.5779 4.49998 12.4654 4.49998 12.357V11.682C4.49998 11.5737 4.50831 11.4612 4.52498 11.3445L3.19998 10.3445C2.84998 10.0612 2.62498 9.70286 2.52498 9.26953C2.42498 8.8362 2.49165 8.42786 2.72498 8.04453L3.89998 5.99453C4.13331 5.6112 4.45831 5.34453 4.87498 5.19453C5.29165 5.04453 5.70831 5.0612 6.12498 5.24453L7.67498 5.89453C7.85831 5.7612 8.04998 5.6362 8.24998 5.51953C8.44998 5.40286 8.64998 5.30286 8.84998 5.21953L9.07498 3.56953C9.14165 3.1362 9.33748 2.76953 9.66248 2.46953C9.98748 2.16953 10.375 2.01953 10.825 2.01953H13.175C13.625 2.01953 14.0125 2.16953 14.3375 2.46953C14.6625 2.76953 14.8583 3.1362 14.925 3.56953L15.15 5.21953C15.3666 5.30286 15.5708 5.40286 15.7625 5.51953C15.9541 5.6362 16.1416 5.7612 16.325 5.89453L17.875 5.24453C18.2916 5.0612 18.7083 5.04453 19.125 5.19453C19.5416 5.34453 19.8666 5.6112 20.1 5.99453L21.275 8.04453C21.5083 8.42786 21.575 8.8362 21.475 9.26953C21.375 9.70286 21.15 10.0612 20.8 10.3445L19.475 11.3445C19.4916 11.4612 19.5 11.5737 19.5 11.682V12.357C19.5 12.4654 19.4833 12.5779 19.45 12.6945L20.775 13.6945C21.125 13.9779 21.35 14.3362 21.45 14.7695C21.55 15.2029 21.4833 15.6112 21.25 15.9945L20.05 18.0445C19.8166 18.4279 19.4916 18.6945 19.075 18.8445C18.6583 18.9945 18.2416 18.9779 17.825 18.7945L16.325 18.1445C16.1416 18.2779 15.95 18.4029 15.75 18.5195C15.55 18.6362 15.35 18.7362 15.15 18.8195L14.925 20.4695C14.8583 20.9029 14.6625 21.2695 14.3375 21.5695C14.0125 21.8695 13.625 22.0195 13.175 22.0195H10.825ZM11 20.0195H12.975L13.325 17.3695C13.8416 17.2362 14.3208 17.0404 14.7625 16.782C15.2041 16.5237 15.6083 16.2112 15.975 15.8445L18.45 16.8695L19.425 15.1695L17.275 13.5445C17.3583 13.3112 17.4166 13.0654 17.45 12.807C17.4833 12.5487 17.5 12.2862 17.5 12.0195C17.5 11.7529 17.4833 11.4904 17.45 11.232C17.4166 10.9737 17.3583 10.7279 17.275 10.4945L19.425 8.86953L18.45 7.16953L15.975 8.21953C15.6083 7.8362 15.2041 7.51536 14.7625 7.25703C14.3208 6.9987 13.8416 6.80286 13.325 6.66953L13 4.01953H11.025L10.675 6.66953C10.1583 6.80286 9.67915 6.9987 9.23748 7.25703C8.79581 7.51536 8.39165 7.82786 8.02498 8.19453L5.54998 7.16953L4.57498 8.86953L6.72498 10.4695C6.64165 10.7195 6.58331 10.9695 6.54998 11.2195C6.51665 11.4695 6.49998 11.7362 6.49998 12.0195C6.49998 12.2862 6.51665 12.5445 6.54998 12.7945C6.58331 13.0445 6.64165 13.2945 6.72498 13.5445L4.57498 15.1695L5.54998 16.8695L8.02498 15.8195C8.39165 16.2029 8.79581 16.5237 9.23748 16.782C9.67915 17.0404 10.1583 17.2362 10.675 17.3695L11 20.0195ZM12.05 15.5195C13.0166 15.5195 13.8416 15.1779 14.525 14.4945C15.2083 13.8112 15.55 12.9862 15.55 12.0195C15.55 11.0529 15.2083 10.2279 14.525 9.54453C13.8416 8.8612 13.0166 8.51953 12.05 8.51953C11.0666 8.51953 10.2375 8.8612 9.56248 9.54453C8.88748 10.2279 8.54998 11.0529 8.54998 12.0195C8.54998 12.9862 8.88748 13.8112 9.56248 14.4945C10.2375 15.1779 11.0666 15.5195 12.05 15.5195Z" fill="#475467"/>
</svg>
