<svg width="24" height="25" viewBox="0 0 24 25" fill="none" xmlns="http://www.w3.org/2000/svg">
<path d="M12 22.0391C10.6333 22.0391 9.34167 21.7766 8.125 21.2516C6.90833 20.7266 5.84583 20.0099 4.9375 19.1016C4.02917 18.1932 3.3125 17.1307 2.7875 15.9141C2.2625 14.6974 2 13.4057 2 12.0391C2 10.6557 2.2625 9.3599 2.7875 8.15156C3.3125 6.94323 4.02917 5.8849 4.9375 4.97656C5.84583 4.06823 6.90833 3.35156 8.125 2.82656C9.34167 2.30156 10.6333 2.03906 12 2.03906C13.3833 2.03906 14.6792 2.30156 15.8875 2.82656C17.0958 3.35156 18.1542 4.06823 19.0625 4.97656C19.9708 5.8849 20.6875 6.94323 21.2125 8.15156C21.7375 9.3599 22 10.6557 22 12.0391C22 13.4057 21.7375 14.6974 21.2125 15.9141C20.6875 17.1307 19.9708 18.1932 19.0625 19.1016C18.1542 20.0099 17.0958 20.7266 15.8875 21.2516C14.6792 21.7766 13.3833 22.0391 12 22.0391ZM12 19.9891C12.4333 19.3891 12.8083 18.7641 13.125 18.1141C13.4417 17.4641 13.7 16.7724 13.9 16.0391H10.1C10.3 16.7724 10.5583 17.4641 10.875 18.1141C11.1917 18.7641 11.5667 19.3891 12 19.9891ZM9.4 19.5891C9.1 19.0391 8.8375 18.4682 8.6125 17.8766C8.3875 17.2849 8.2 16.6724 8.05 16.0391H5.1C5.58333 16.8724 6.1875 17.5974 6.9125 18.2141C7.6375 18.8307 8.46667 19.2891 9.4 19.5891ZM14.6 19.5891C15.5333 19.2891 16.3625 18.8307 17.0875 18.2141C17.8125 17.5974 18.4167 16.8724 18.9 16.0391H15.95C15.8 16.6724 15.6125 17.2849 15.3875 17.8766C15.1625 18.4682 14.9 19.0391 14.6 19.5891ZM4.25 14.0391H7.65C7.6 13.7057 7.5625 13.3766 7.5375 13.0516C7.5125 12.7266 7.5 12.3891 7.5 12.0391C7.5 11.6891 7.5125 11.3516 7.5375 11.0266C7.5625 10.7016 7.6 10.3724 7.65 10.0391H4.25C4.16667 10.3724 4.10417 10.7016 4.0625 11.0266C4.02083 11.3516 4 11.6891 4 12.0391C4 12.3891 4.02083 12.7266 4.0625 13.0516C4.10417 13.3766 4.16667 13.7057 4.25 14.0391ZM9.65 14.0391H14.35C14.4 13.7057 14.4375 13.3766 14.4625 13.0516C14.4875 12.7266 14.5 12.3891 14.5 12.0391C14.5 11.6891 14.4875 11.3516 14.4625 11.0266C14.4375 10.7016 14.4 10.3724 14.35 10.0391H9.65C9.6 10.3724 9.5625 10.7016 9.5375 11.0266C9.5125 11.3516 9.5 11.6891 9.5 12.0391C9.5 12.3891 9.5125 12.7266 9.5375 13.0516C9.5625 13.3766 9.6 13.7057 9.65 14.0391ZM16.35 14.0391H19.75C19.8333 13.7057 19.8958 13.3766 19.9375 13.0516C19.9792 12.7266 20 12.3891 20 12.0391C20 11.6891 19.9792 11.3516 19.9375 11.0266C19.8958 10.7016 19.8333 10.3724 19.75 10.0391H16.35C16.4 10.3724 16.4375 10.7016 16.4625 11.0266C16.4875 11.3516 16.5 11.6891 16.5 12.0391C16.5 12.3891 16.4875 12.7266 16.4625 13.0516C16.4375 13.3766 16.4 13.7057 16.35 14.0391ZM15.95 8.03906H18.9C18.4167 7.20573 17.8125 6.48073 17.0875 5.86406C16.3625 5.2474 15.5333 4.78906 14.6 4.48906C14.9 5.03906 15.1625 5.6099 15.3875 6.20156C15.6125 6.79323 15.8 7.40573 15.95 8.03906ZM10.1 8.03906H13.9C13.7 7.30573 13.4417 6.61406 13.125 5.96406C12.8083 5.31406 12.4333 4.68906 12 4.08906C11.5667 4.68906 11.1917 5.31406 10.875 5.96406C10.5583 6.61406 10.3 7.30573 10.1 8.03906ZM5.1 8.03906H8.05C8.2 7.40573 8.3875 6.79323 8.6125 6.20156C8.8375 5.6099 9.1 5.03906 9.4 4.48906C8.46667 4.78906 7.6375 5.2474 6.9125 5.86406C6.1875 6.48073 5.58333 7.20573 5.1 8.03906Z" fill="#475467"/>
</svg>
