<svg width="24" height="25" viewBox="0 0 24 25" fill="none" xmlns="http://www.w3.org/2000/svg">
<path d="M22.1904 22.2295H1.80957V1.84866H22.1904V22.2295Z" stroke="#475467" stroke-width="1.5" stroke-miterlimit="10" stroke-linecap="round" stroke-linejoin="round"/>
<path d="M1.80957 6.92285H22.1904" stroke="#475467" stroke-width="1.5" stroke-miterlimit="10" stroke-linecap="round" stroke-linejoin="round"/>
<path d="M17.074 6.92285V1.84879" stroke="#475467" stroke-width="1.5" stroke-miterlimit="10" stroke-linecap="round" stroke-linejoin="round"/>
<path d="M4.3889 4.27051C4.32496 4.27051 4.27316 4.32232 4.27316 4.38625C4.27316 4.45018 4.32496 4.50199 4.3889 4.50199C4.45283 4.50199 4.50464 4.45018 4.50464 4.38625C4.50464 4.32232 4.45283 4.27051 4.3889 4.27051Z" fill="#475467" stroke="#475467" stroke-width="1.5"/>
<path d="M6.92595 4.27051C6.86201 4.27051 6.8102 4.32232 6.8102 4.38625C6.8102 4.45018 6.86201 4.50199 6.92595 4.50199C6.98988 4.50199 7.04169 4.45018 7.04169 4.38625C7.04169 4.32232 6.98988 4.27051 6.92595 4.27051Z" fill="#475467" stroke="#475467" stroke-width="1.5"/>
<path d="M9.46293 4.27051C9.399 4.27051 9.34719 4.32232 9.34719 4.38625C9.34719 4.45018 9.399 4.50199 9.46293 4.50199C9.52687 4.50199 9.57867 4.45018 9.57867 4.38625C9.57867 4.32232 9.52687 4.27051 9.46293 4.27051Z" fill="#475467" stroke="#475467" stroke-width="1.5"/>
<path d="M17.074 12.0392V17.1133H19.6533" stroke="#475467" stroke-width="1.5" stroke-miterlimit="10" stroke-linecap="round" stroke-linejoin="round"/>
<path d="M12.6342 17.1133C11.5833 17.1133 10.7314 16.2614 10.7314 15.2105V13.942C10.7314 12.8911 11.5833 12.0392 12.6342 12.0392C13.6851 12.0392 14.537 12.8911 14.537 13.942V15.2105C14.537 16.2614 13.6851 17.1133 12.6342 17.1133Z" stroke="#475467" stroke-width="1.5" stroke-miterlimit="10" stroke-linecap="round" stroke-linejoin="round"/>
<path d="M8.19438 12.0392H6.92587C6.22531 12.0392 5.65735 12.6072 5.65735 13.3077C5.65735 14.0083 6.22531 14.5762 6.92587 14.5762C7.62642 14.5762 8.19438 15.1442 8.19438 15.8448C8.19438 16.5453 7.62642 17.1133 6.92587 17.1133H5.65735" stroke="#475467" stroke-width="1.5" stroke-miterlimit="10" stroke-linecap="round" stroke-linejoin="round"/>
<path d="M13.2685 15.8448L14.537 17.1133" stroke="#475467" stroke-width="1.5" stroke-miterlimit="10" stroke-linecap="round" stroke-linejoin="round"/>
</svg>
