<svg width="24" height="25" viewBox="0 0 24 25" fill="none" xmlns="http://www.w3.org/2000/svg">
<path d="M12 13.0393C11.0333 13.0393 10.2083 12.6976 9.525 12.0143C8.84167 11.3309 8.5 10.5059 8.5 9.53926C8.5 8.57259 8.84167 7.74759 9.525 7.06426C10.2083 6.38092 11.0333 6.03926 12 6.03926C12.9667 6.03926 13.7917 6.38092 14.475 7.06426C15.1583 7.74759 15.5 8.57259 15.5 9.53926C15.5 10.5059 15.1583 11.3309 14.475 12.0143C13.7917 12.6976 12.9667 13.0393 12 13.0393ZM12 11.0393C12.4167 11.0393 12.7708 10.8934 13.0625 10.6018C13.3542 10.3101 13.5 9.95592 13.5 9.53926C13.5 9.12259 13.3542 8.76842 13.0625 8.47676C12.7708 8.18509 12.4167 8.03926 12 8.03926C11.5833 8.03926 11.2292 8.18509 10.9375 8.47676C10.6458 8.76842 10.5 9.12259 10.5 9.53926C10.5 9.95592 10.6458 10.3101 10.9375 10.6018C11.2292 10.8934 11.5833 11.0393 12 11.0393ZM3.95 17.6143C3.65 17.4309 3.41667 17.1893 3.25 16.8893C3.08333 16.5893 3 16.2643 3 15.9143V8.16426C3 7.81426 3.08333 7.48926 3.25 7.18926C3.41667 6.88926 3.65 6.64759 3.95 6.46426L10.95 2.16426C11.2833 1.96426 11.6333 1.86426 12 1.86426C12.3667 1.86426 12.7167 1.96426 13.05 2.16426L20.05 6.46426C20.35 6.64759 20.5833 6.88926 20.75 7.18926C20.9167 7.48926 21 7.81426 21 8.16426V15.9143C21 16.2643 20.9167 16.5893 20.75 16.8893C20.5833 17.1893 20.35 17.4309 20.05 17.6143L13.05 21.9143C12.7167 22.1143 12.3667 22.2143 12 22.2143C11.6333 22.2143 11.2833 22.1143 10.95 21.9143L3.95 17.6143ZM12 17.0393C11.3667 17.0393 10.7375 17.1143 10.1125 17.2643C9.4875 17.4143 8.89167 17.6393 8.325 17.9393L12 20.2143L15.675 17.9393C15.1083 17.6393 14.5125 17.4143 13.8875 17.2643C13.2625 17.1143 12.6333 17.0393 12 17.0393ZM6.4 16.7643C7.23333 16.1976 8.125 15.7684 9.075 15.4768C10.025 15.1851 11 15.0393 12 15.0393C13 15.0393 13.975 15.1851 14.925 15.4768C15.875 15.7684 16.7667 16.1976 17.6 16.7643L19 15.9393V8.16426L12 3.88926L5 8.16426V15.9393L6.4 16.7643Z" fill="#475467"/>
</svg>
