<svg width="24" height="25" viewBox="0 0 24 25" fill="none" xmlns="http://www.w3.org/2000/svg">
<g clip-path="url(#clip0_6316_4608)">
<path d="M11.9999 21.6523C3.70197 15.8635 4.67292 7.40839 4.67292 7.40839C10.5207 5.61951 11.9999 3.65553 11.9999 3.65553C11.9999 3.65553 13.4792 5.61951 19.327 7.40839C19.327 7.40839 20.2979 15.8635 11.9999 21.6523Z" stroke="#475467" stroke-width="1.5" stroke-miterlimit="10" stroke-linecap="round" stroke-linejoin="round"/>
<path d="M14.3432 10.9963H9.65678C9.36746 10.9963 9.13293 11.2309 9.13293 11.5202V15.1666C9.13293 15.4559 9.36746 15.6904 9.65678 15.6904H14.3432C14.6325 15.6904 14.867 15.4559 14.867 15.1666V11.5202C14.867 11.2309 14.6325 10.9963 14.3432 10.9963Z" stroke="#475467" stroke-width="1.5" stroke-miterlimit="10" stroke-linecap="round" stroke-linejoin="round"/>
<path d="M14.0891 10.9961V10.0101C14.0891 8.85634 13.1538 7.921 12 7.921C10.8462 7.921 9.91083 8.85634 9.91083 10.0101V10.9961" stroke="#475467" stroke-width="1.5" stroke-miterlimit="10" stroke-linecap="round" stroke-linejoin="round"/>
<path d="M11.9999 13.1181V13.5674" stroke="#475467" stroke-width="1.5" stroke-miterlimit="10" stroke-linecap="round" stroke-linejoin="round"/>
<path d="M4.31689 3.69824C4.31689 4.40152 3.74673 4.97168 3.04346 4.97168C2.34018 4.97168 1.77002 4.40152 1.77002 3.69824C1.77002 2.99497 2.34018 2.4248 3.04346 2.4248C3.74673 2.4248 4.31689 2.99497 4.31689 3.69824Z" stroke="#475467" stroke-width="1.5" stroke-miterlimit="10" stroke-linecap="round" stroke-linejoin="round"/>
<path d="M4.31689 18.9131C4.31689 19.6164 3.74673 20.1865 3.04346 20.1865C2.34018 20.1865 1.77002 19.6164 1.77002 18.9131C1.77002 18.2098 2.34018 17.6396 3.04346 17.6396C3.74673 17.6396 4.31689 18.2098 4.31689 18.9131ZM4.31689 18.9131H8.86451" stroke="#475467" stroke-width="1.5" stroke-miterlimit="10" stroke-linecap="round" stroke-linejoin="round"/>
<path d="M19.683 18.9131C19.683 19.6164 20.2532 20.1865 20.9564 20.1865C21.6597 20.1865 22.2299 19.6164 22.2299 18.9131C22.2299 18.2098 21.6597 17.6396 20.9564 17.6396C20.2532 17.6396 19.683 18.2098 19.683 18.9131ZM19.683 18.9131H15.1354" stroke="#475467" stroke-width="1.5" stroke-miterlimit="10" stroke-linecap="round" stroke-linejoin="round"/>
<path d="M4.31696 3.69776H7.6675V6.33691" stroke="#475467" stroke-width="1.5" stroke-miterlimit="10" stroke-linecap="round" stroke-linejoin="round"/>
<path d="M19.6831 3.69776C19.6831 4.40103 20.2532 4.97119 20.9565 4.97119C21.6598 4.97119 22.2299 4.40103 22.2299 3.69776C22.2299 2.99448 21.6598 2.42432 20.9565 2.42432C20.2532 2.42432 19.6831 2.99448 19.6831 3.69776ZM19.6831 3.69776H16.3325V6.33691" stroke="#475467" stroke-width="1.5" stroke-miterlimit="10" stroke-linecap="round" stroke-linejoin="round"/>
<path d="M19.0403 11.2676H22.2299" stroke="#475467" stroke-width="1.5" stroke-miterlimit="10" stroke-linecap="round" stroke-linejoin="round"/>
<path d="M4.95956 11.2676H1.77002" stroke="#475467" stroke-width="1.5" stroke-miterlimit="10" stroke-linecap="round" stroke-linejoin="round"/>
<path d="M5.89689 14.2832H3.21796" stroke="#475467" stroke-width="1.5" stroke-miterlimit="10" stroke-linecap="round" stroke-linejoin="round"/>
<path d="M18.1031 14.2832H20.7821" stroke="#475467" stroke-width="1.5" stroke-miterlimit="10" stroke-linecap="round" stroke-linejoin="round"/>
</g>
<defs>
<clipPath id="clip0_6316_4608">
<rect width="21.7334" height="21.7334" fill="white" transform="translate(1.1333 1.17188)"/>
</clipPath>
</defs>
</svg>
