<svg width="24" height="25" viewBox="0 0 24 25" fill="none" xmlns="http://www.w3.org/2000/svg">
<path d="M2.72497 21.0391C2.54164 21.0391 2.37497 20.9932 2.22497 20.9016C2.07497 20.8099 1.95831 20.6891 1.87497 20.5391C1.79164 20.3891 1.74581 20.2266 1.73747 20.0516C1.72914 19.8766 1.77497 19.7057 1.87497 19.5391L11.125 3.53906C11.225 3.3724 11.3541 3.2474 11.5125 3.16406C11.6708 3.08073 11.8333 3.03906 12 3.03906C12.1666 3.03906 12.3291 3.08073 12.4875 3.16406C12.6458 3.2474 12.775 3.3724 12.875 3.53906L22.125 19.5391C22.225 19.7057 22.2708 19.8766 22.2625 20.0516C22.2541 20.2266 22.2083 20.3891 22.125 20.5391C22.0416 20.6891 21.925 20.8099 21.775 20.9016C21.625 20.9932 21.4583 21.0391 21.275 21.0391H2.72497ZM4.44997 19.0391H19.55L12 6.03906L4.44997 19.0391ZM12 18.0391C12.2833 18.0391 12.5208 17.9432 12.7125 17.7516C12.9041 17.5599 13 17.3224 13 17.0391C13 16.7557 12.9041 16.5182 12.7125 16.3266C12.5208 16.1349 12.2833 16.0391 12 16.0391C11.7166 16.0391 11.4791 16.1349 11.2875 16.3266C11.0958 16.5182 11 16.7557 11 17.0391C11 17.3224 11.0958 17.5599 11.2875 17.7516C11.4791 17.9432 11.7166 18.0391 12 18.0391ZM12 15.0391C12.2833 15.0391 12.5208 14.9432 12.7125 14.7516C12.9041 14.5599 13 14.3224 13 14.0391V11.0391C13 10.7557 12.9041 10.5182 12.7125 10.3266C12.5208 10.1349 12.2833 10.0391 12 10.0391C11.7166 10.0391 11.4791 10.1349 11.2875 10.3266C11.0958 10.5182 11 10.7557 11 11.0391V14.0391C11 14.3224 11.0958 14.5599 11.2875 14.7516C11.4791 14.9432 11.7166 15.0391 12 15.0391Z" fill="#475467"/>
</svg>
