<svg width="24" height="25" viewBox="0 0 24 25" fill="none" xmlns="http://www.w3.org/2000/svg">
<path d="M12 13.9391L13.5 15.0891C13.6833 15.2391 13.8833 15.2432 14.1 15.1016C14.3167 14.9599 14.3833 14.7724 14.3 14.5391L13.7 12.6391L15.375 11.3391C15.5583 11.1891 15.6083 11.0016 15.525 10.7766C15.4417 10.5516 15.2833 10.4391 15.05 10.4391H13.1L12.475 8.51406C12.3917 8.28073 12.2333 8.16406 12 8.16406C11.7667 8.16406 11.6083 8.28073 11.525 8.51406L10.9 10.4391H8.925C8.69167 10.4391 8.5375 10.5516 8.4625 10.7766C8.3875 11.0016 8.44167 11.1891 8.625 11.3391L10.25 12.6391L9.65 14.5641C9.56667 14.7974 9.625 14.9849 9.825 15.1266C10.025 15.2682 10.225 15.2641 10.425 15.1141L12 13.9391ZM4 20.0391C3.45 20.0391 2.97917 19.8432 2.5875 19.4516C2.19583 19.0599 2 18.5891 2 18.0391V14.6641C2 14.4807 2.05833 14.3224 2.175 14.1891C2.29167 14.0557 2.44167 13.9724 2.625 13.9391C3.025 13.8057 3.35417 13.5641 3.6125 13.2141C3.87083 12.8641 4 12.4724 4 12.0391C4 11.6057 3.87083 11.2141 3.6125 10.8641C3.35417 10.5141 3.025 10.2724 2.625 10.1391C2.44167 10.1057 2.29167 10.0224 2.175 9.88906C2.05833 9.75573 2 9.5974 2 9.41406V6.03906C2 5.48906 2.19583 5.01823 2.5875 4.62656C2.97917 4.2349 3.45 4.03906 4 4.03906H20C20.55 4.03906 21.0208 4.2349 21.4125 4.62656C21.8042 5.01823 22 5.48906 22 6.03906V9.41406C22 9.5974 21.9417 9.75573 21.825 9.88906C21.7083 10.0224 21.5583 10.1057 21.375 10.1391C20.975 10.2724 20.6458 10.5141 20.3875 10.8641C20.1292 11.2141 20 11.6057 20 12.0391C20 12.4724 20.1292 12.8641 20.3875 13.2141C20.6458 13.5641 20.975 13.8057 21.375 13.9391C21.5583 13.9724 21.7083 14.0557 21.825 14.1891C21.9417 14.3224 22 14.4807 22 14.6641V18.0391C22 18.5891 21.8042 19.0599 21.4125 19.4516C21.0208 19.8432 20.55 20.0391 20 20.0391H4ZM4 18.0391H20V15.4891C19.3833 15.1224 18.8958 14.6349 18.5375 14.0266C18.1792 13.4182 18 12.7557 18 12.0391C18 11.3224 18.1792 10.6599 18.5375 10.0516C18.8958 9.44323 19.3833 8.95573 20 8.58906V6.03906H4V8.58906C4.61667 8.95573 5.10417 9.44323 5.4625 10.0516C5.82083 10.6599 6 11.3224 6 12.0391C6 12.7557 5.82083 13.4182 5.4625 14.0266C5.10417 14.6349 4.61667 15.1224 4 15.4891V18.0391Z" fill="#475467"/>
</svg>
