<svg width="24" height="25" viewBox="0 0 24 25" fill="none" xmlns="http://www.w3.org/2000/svg">
<path d="M6 20.0391C5.71667 20.0391 5.47917 19.9432 5.2875 19.7516C5.09583 19.5599 5 19.3224 5 19.0391C5 18.7557 5.09583 18.5182 5.2875 18.3266C5.47917 18.1349 5.71667 18.0391 6 18.0391H18C18.2833 18.0391 18.5208 18.1349 18.7125 18.3266C18.9042 18.5182 19 18.7557 19 19.0391C19 19.3224 18.9042 19.5599 18.7125 19.7516C18.5208 19.9432 18.2833 20.0391 18 20.0391H6ZM6.7 16.5391C6.21667 16.5391 5.7875 16.3807 5.4125 16.0641C5.0375 15.7474 4.80833 15.3474 4.725 14.8641L3.725 8.51406C3.69167 8.51406 3.65417 8.51823 3.6125 8.52656C3.57083 8.5349 3.53333 8.53906 3.5 8.53906C3.08333 8.53906 2.72917 8.39323 2.4375 8.10156C2.14583 7.8099 2 7.45573 2 7.03906C2 6.6224 2.14583 6.26823 2.4375 5.97656C2.72917 5.6849 3.08333 5.53906 3.5 5.53906C3.91667 5.53906 4.27083 5.6849 4.5625 5.97656C4.85417 6.26823 5 6.6224 5 7.03906C5 7.15573 4.9875 7.26406 4.9625 7.36406C4.9375 7.46406 4.90833 7.55573 4.875 7.63906L8 9.03906L11.125 4.76406C10.9417 4.63073 10.7917 4.45573 10.675 4.23906C10.5583 4.0224 10.5 3.78906 10.5 3.53906C10.5 3.1224 10.6458 2.76823 10.9375 2.47656C11.2292 2.1849 11.5833 2.03906 12 2.03906C12.4167 2.03906 12.7708 2.1849 13.0625 2.47656C13.3542 2.76823 13.5 3.1224 13.5 3.53906C13.5 3.78906 13.4417 4.0224 13.325 4.23906C13.2083 4.45573 13.0583 4.63073 12.875 4.76406L16 9.03906L19.125 7.63906C19.0917 7.55573 19.0625 7.46406 19.0375 7.36406C19.0125 7.26406 19 7.15573 19 7.03906C19 6.6224 19.1458 6.26823 19.4375 5.97656C19.7292 5.6849 20.0833 5.53906 20.5 5.53906C20.9167 5.53906 21.2708 5.6849 21.5625 5.97656C21.8542 6.26823 22 6.6224 22 7.03906C22 7.45573 21.8542 7.8099 21.5625 8.10156C21.2708 8.39323 20.9167 8.53906 20.5 8.53906C20.4667 8.53906 20.4292 8.5349 20.3875 8.52656C20.3458 8.51823 20.3083 8.51406 20.275 8.51406L19.275 14.8641C19.1917 15.3474 18.9625 15.7474 18.5875 16.0641C18.2125 16.3807 17.7833 16.5391 17.3 16.5391H6.7Z" fill="white"/>
</svg>
