<svg width="40" height="40" viewBox="0 0 40 40" fill="none" xmlns="http://www.w3.org/2000/svg">
<g clip-path="url(#clip0_6252_11084)">
<path d="M37.4561 9.21877C36.9625 8.8639 36.4343 8.62281 35.8716 8.49551C35.5697 8.42693 35.053 8.3929 34.3215 8.39342C28.3993 8.39601 22.4771 8.39523 16.5549 8.39108C15.7958 8.39056 15.2825 8.35003 15.0149 8.2695C14.3477 8.06894 13.8417 7.62392 13.4967 6.93443C13.4353 6.81181 13.3444 6.57151 13.2239 6.21351C12.6807 4.59866 11.0923 3.43739 9.38158 3.4109C8.76223 3.40102 7.33988 3.39427 5.11452 3.39063C4.20058 3.38907 3.37548 3.65302 2.63924 4.18247C2.61274 4.2017 2.5826 4.2043 2.54883 4.19027" stroke="black" stroke-width="0.155874"/>
<path d="M20.8756 27.9044C21.4098 28.4271 21.9392 28.9545 22.464 29.4865C22.69 29.7162 22.8677 29.8593 22.9971 29.9159C23.6268 30.1903 24.3244 29.573 24.0944 28.9067C24.0466 28.7674 23.8986 28.5733 23.6502 28.3245C22.6864 27.3575 21.721 26.3919 20.7541 25.4275C20.1563 24.8313 19.751 24.9256 19.1657 25.5086C18.2143 26.4579 17.264 27.4084 16.3148 28.3603C16.1069 28.5687 15.9768 28.7355 15.9243 28.8607C15.6531 29.5044 16.3062 30.1825 16.9632 29.9354C17.1009 29.8835 17.3033 29.7224 17.5703 29.4522C18.0837 28.9321 18.6027 28.4154 19.1275 27.902C19.153 27.8771 19.166 27.8826 19.1665 27.9184C19.1712 30.4514 19.1717 32.9843 19.168 35.5173C19.168 35.96 19.2109 36.3247 19.5936 36.5344C20.037 36.7767 20.5881 36.5959 20.7681 36.1112C20.8128 35.9906 20.8349 35.7937 20.8343 35.5204C20.8276 32.9869 20.8284 30.4537 20.8367 27.9207C20.8367 27.8849 20.8497 27.8794 20.8756 27.9044Z" stroke="black" stroke-width="0.155874"/>
<path d="M6.48543 0.0761719H33.5039C35.7384 0.249972 37.4553 2.00044 37.4584 4.26607C37.461 5.89652 37.4602 7.54749 37.4561 9.21898C36.9625 8.8641 36.4343 8.62302 35.8716 8.49572C35.5698 8.42714 35.053 8.3931 34.3215 8.39362C28.3993 8.39622 22.4771 8.39544 16.5549 8.39128C15.7958 8.39077 15.2825 8.35024 15.0149 8.2697C14.3477 8.06914 13.8417 7.62412 13.4967 6.93464C13.4353 6.81202 13.3444 6.57171 13.2239 6.21372C12.6807 4.59886 11.0923 3.4376 9.38158 3.4111C8.76224 3.40123 7.33988 3.39448 5.11452 3.39084C4.20058 3.38928 3.37548 3.65323 2.63924 4.18268C2.61274 4.2019 2.5826 4.2045 2.54883 4.19047C2.57455 1.95212 4.27591 0.262442 6.48543 0.0761719Z" fill="#78B1FF"/>
<path d="M37.4556 9.21877C37.573 9.32009 37.698 9.43466 37.8305 9.56247C38.4399 10.1532 38.834 10.8451 39.0128 11.6379C39.0824 11.9466 39.1172 12.4638 39.1172 13.1897C39.1157 17.684 39.1167 22.1784 39.1203 26.6728C39.1208 27.4184 39.0959 27.9367 39.0455 28.2276C38.7018 30.2026 36.9794 31.6623 34.9437 31.6654C33.5689 31.667 32.1935 31.6652 30.8177 31.66C30.7912 31.66 30.7785 31.6467 30.7795 31.6202C30.9348 28.6451 30.0892 26.0576 28.2426 23.8577C23.9717 18.7707 16.0276 18.7707 11.7589 23.8569C9.91131 26.0579 9.06491 28.6456 9.21975 31.6202C9.22131 31.6467 9.20884 31.6602 9.18234 31.6608C7.91248 31.666 6.64211 31.666 5.37121 31.6608C4.80435 31.6582 4.36894 31.62 4.06499 31.5462C2.21164 31.0949 0.882033 29.4224 0.882813 27.4904C0.883332 20.8787 0.883592 14.267 0.883592 7.65535C0.883592 6.25664 1.42344 5.13201 2.50313 4.28145C2.5304 4.25963 2.54677 4.22222 2.54833 4.19027C2.5821 4.2043 2.61224 4.2017 2.63874 4.18247C3.37498 3.65302 4.20008 3.38907 5.11402 3.39063C7.33938 3.39427 8.76174 3.40102 9.38108 3.4109C11.0918 3.43739 12.6802 4.59866 13.2234 6.21351C13.3439 6.57151 13.4348 6.81181 13.4962 6.93443C13.8412 7.62392 14.3472 8.06894 15.0144 8.2695C15.282 8.35003 15.7953 8.39056 16.5544 8.39108C22.4766 8.39524 28.3988 8.39601 34.321 8.39342C35.0525 8.3929 35.5693 8.42693 35.8711 8.49551C36.4338 8.62281 36.962 8.8639 37.4556 9.21877Z" fill="#2173E3"/>
<path d="M20.1868 39.98H19.8065C17.6533 39.9046 15.7831 39.2102 14.1958 37.8967C10.3052 34.6779 9.737 28.9004 12.9581 25.0075C16.1614 21.1363 21.9381 20.5869 25.8139 23.7815C29.936 27.178 30.2859 33.473 26.4802 37.274C24.7786 38.9736 22.6808 39.8756 20.1868 39.98ZM20.8758 27.9044C21.4099 28.4271 21.9394 28.9545 22.4641 29.4865C22.6902 29.7162 22.8679 29.8593 22.9972 29.916C23.627 30.1903 24.3245 29.573 24.0946 28.9067C24.0468 28.7674 23.8987 28.5734 23.6503 28.3245C22.6865 27.3576 21.7211 26.3919 20.7542 25.4276C20.1564 24.8313 19.7511 24.9257 19.1658 25.5086C18.2145 26.4579 17.2642 27.4085 16.3149 28.3603C16.1071 28.5687 15.9769 28.7355 15.9244 28.8607C15.6532 29.5045 16.3063 30.1825 16.9633 29.9355C17.101 29.8835 17.3034 29.7224 17.5705 29.4522C18.0838 28.9321 18.6029 28.4154 19.1276 27.9021C19.1531 27.8771 19.1661 27.8826 19.1666 27.9184C19.1713 30.4514 19.1718 32.9844 19.1682 35.5173C19.1682 35.96 19.211 36.3247 19.5937 36.5344C20.0372 36.7768 20.5882 36.596 20.7682 36.1112C20.8129 35.9906 20.835 35.7937 20.8345 35.5204C20.8277 32.9869 20.8285 30.4537 20.8368 27.9208C20.8368 27.8849 20.8498 27.8795 20.8758 27.9044Z" fill="#78B1FF"/>
<path d="M20.8367 27.9207C20.8284 30.4537 20.8276 32.9869 20.8343 35.5204C20.8349 35.7937 20.8128 35.9906 20.7681 36.1112C20.5881 36.5959 20.037 36.7767 19.5936 36.5344C19.2109 36.3247 19.168 35.96 19.168 35.5173C19.1717 32.9843 19.1712 30.4514 19.1665 27.9184C19.166 27.8826 19.153 27.8771 19.1275 27.902C18.6027 28.4154 18.0837 28.9321 17.5703 29.4522C17.3033 29.7224 17.1009 29.8835 16.9632 29.9354C16.3062 30.1825 15.6531 29.5044 15.9243 28.8607C15.9768 28.7355 16.1069 28.5687 16.3148 28.3603C17.264 27.4084 18.2143 26.4579 19.1657 25.5086C19.751 24.9256 20.1563 24.8313 20.7541 25.4275C21.721 26.3919 22.6864 27.3575 23.6502 28.3245C23.8986 28.5733 24.0466 28.7674 24.0944 28.9067C24.3244 29.573 23.6268 30.1903 22.9971 29.9159C22.8677 29.8593 22.69 29.7162 22.464 29.4865C21.9392 28.9545 21.4098 28.4271 20.8756 27.9044C20.8497 27.8794 20.8367 27.8849 20.8367 27.9207Z" fill="white"/>
</g>
<defs>
<clipPath id="clip0_6252_11084">
<rect width="39.9038" height="39.9038" fill="white" transform="translate(0.0488281 0.0761719)"/>
</clipPath>
</defs>
</svg>
