<svg width="41" height="41" viewBox="0 0 41 41" fill="none" xmlns="http://www.w3.org/2000/svg">
<rect x="0.333496" y="0.552734" width="40" height="40" rx="10" fill="url(#paint0_linear_6317_5134)"/>
<path d="M13.3333 29.5527C12.7833 29.5527 12.3125 29.3569 11.9208 28.9652C11.5291 28.5736 11.3333 28.1027 11.3333 27.5527V14.3777L10.4083 13.4527C10.225 13.2694 10.1333 13.0402 10.1333 12.7652C10.1333 12.4902 10.2333 12.2527 10.4333 12.0527C10.6166 11.8694 10.85 11.7777 11.1333 11.7777C11.4166 11.7777 11.65 11.8694 11.8333 12.0527L28.8333 29.0527C29.0333 29.2527 29.1291 29.4861 29.1208 29.7527C29.1125 30.0194 29.0083 30.2527 28.8083 30.4527C28.6083 30.6361 28.375 30.7319 28.1083 30.7402C27.8416 30.7486 27.6083 30.6527 27.4083 30.4527L26.5083 29.5527H13.3333ZM13.3333 27.5527H24.5083L13.3333 16.3777V27.5527ZM28.3333 25.5527C28.0833 25.5527 27.8541 25.4652 27.6458 25.2902C27.4375 25.1152 27.3333 24.8611 27.3333 24.5277V16.5527H19.9833C19.7166 16.5527 19.4625 16.5027 19.2208 16.4027C18.9791 16.3027 18.7666 16.1611 18.5833 15.9777L15.8583 13.2527C15.6916 13.0861 15.5958 12.9111 15.5708 12.7277C15.5458 12.5444 15.575 12.3611 15.6583 12.1777C15.7416 11.9944 15.8583 11.8444 16.0083 11.7277C16.1583 11.6111 16.35 11.5527 16.5833 11.5527H27.3333C27.8833 11.5527 28.3541 11.7486 28.7458 12.1402C29.1375 12.5319 29.3333 13.0027 29.3333 13.5527V24.5527C29.3333 24.8861 29.2291 25.1361 29.0208 25.3027C28.8125 25.4694 28.5833 25.5527 28.3333 25.5527Z" fill="white"/>
<defs>
<linearGradient id="paint0_linear_6317_5134" x1="34.207" y1="-12.7758" x2="50.6804" y2="115.603" gradientUnits="userSpaceOnUse">
<stop stop-color="#2CD7B2"/>
<stop offset="1" stop-color="#2173E3"/>
</linearGradient>
</defs>
</svg>
