<svg width="40" height="41" viewBox="0 0 40 41" fill="none" xmlns="http://www.w3.org/2000/svg">
<rect y="0.552734" width="40" height="40" rx="10" fill="url(#paint0_linear_6317_5112)"/>
<path d="M13 27.5527C12.7167 27.5527 12.4792 27.4569 12.2875 27.2652C12.0958 27.0736 12 26.8361 12 26.5527C12 26.2694 12.0958 26.0319 12.2875 25.8402C12.4792 25.6486 12.7167 25.5527 13 25.5527H14V18.5527C14 17.1694 14.4167 15.9402 15.25 14.8652C16.0833 13.7902 17.1667 13.0861 18.5 12.7527V12.0527C18.5 11.6361 18.6458 11.2819 18.9375 10.9902C19.2292 10.6986 19.5833 10.5527 20 10.5527C20.4167 10.5527 20.7708 10.6986 21.0625 10.9902C21.3542 11.2819 21.5 11.6361 21.5 12.0527V12.7527C22.8333 13.0861 23.9167 13.7902 24.75 14.8652C25.5833 15.9402 26 17.1694 26 18.5527V25.5527H27C27.2833 25.5527 27.5208 25.6486 27.7125 25.8402C27.9042 26.0319 28 26.2694 28 26.5527C28 26.8361 27.9042 27.0736 27.7125 27.2652C27.5208 27.4569 27.2833 27.5527 27 27.5527H13ZM20 30.5527C19.45 30.5527 18.9792 30.3569 18.5875 29.9652C18.1958 29.5736 18 29.1027 18 28.5527H22C22 29.1027 21.8042 29.5736 21.4125 29.9652C21.0208 30.3569 20.55 30.5527 20 30.5527ZM16 25.5527H24V18.5527C24 17.4527 23.6083 16.5111 22.825 15.7277C22.0417 14.9444 21.1 14.5527 20 14.5527C18.9 14.5527 17.9583 14.9444 17.175 15.7277C16.3917 16.5111 16 17.4527 16 18.5527V25.5527Z" fill="white"/>
<defs>
<linearGradient id="paint0_linear_6317_5112" x1="33.8735" y1="-12.7758" x2="50.3469" y2="115.603" gradientUnits="userSpaceOnUse">
<stop stop-color="#2CD7B2"/>
<stop offset="1" stop-color="#2173E3"/>
</linearGradient>
</defs>
</svg>
