<svg width="41" height="41" viewBox="0 0 41 41" fill="none" xmlns="http://www.w3.org/2000/svg">
<rect x="0.666504" y="0.552734" width="40" height="40" rx="10" fill="url(#paint0_linear_6317_5123)"/>
<path d="M27.1665 26.3527V24.0527C27.1665 23.9194 27.1165 23.8027 27.0165 23.7027C26.9165 23.6027 26.7998 23.5527 26.6665 23.5527C26.5332 23.5527 26.4165 23.6027 26.3165 23.7027C26.2165 23.8027 26.1665 23.9194 26.1665 24.0527V26.3527C26.1665 26.4861 26.1915 26.6111 26.2415 26.7277C26.2915 26.8444 26.3665 26.9527 26.4665 27.0527L27.9915 28.5777C28.0915 28.6777 28.2082 28.7277 28.3415 28.7277C28.4748 28.7277 28.5915 28.6777 28.6915 28.5777C28.7915 28.4777 28.8415 28.3611 28.8415 28.2277C28.8415 28.0944 28.7915 27.9777 28.6915 27.8777L27.1665 26.3527ZM13.6665 29.5527C13.1165 29.5527 12.6457 29.3569 12.254 28.9652C11.8623 28.5736 11.6665 28.1027 11.6665 27.5527V13.5527C11.6665 13.0027 11.8623 12.5319 12.254 12.1402C12.6457 11.7486 13.1165 11.5527 13.6665 11.5527H27.6665C28.2165 11.5527 28.6873 11.7486 29.079 12.1402C29.4707 12.5319 29.6665 13.0027 29.6665 13.5527V18.5527C29.6665 18.8361 29.5707 19.0736 29.379 19.2652C29.1873 19.4569 28.9498 19.5527 28.6665 19.5527C28.3832 19.5527 28.1457 19.4569 27.954 19.2652C27.7623 19.0736 27.6665 18.8361 27.6665 18.5527V13.5527H13.6665V27.5527H18.6665C18.9498 27.5527 19.1873 27.6486 19.379 27.8402C19.5707 28.0319 19.6665 28.2694 19.6665 28.5527C19.6665 28.8361 19.5707 29.0736 19.379 29.2652C19.1873 29.4569 18.9498 29.5527 18.6665 29.5527H13.6665ZM13.6665 26.5527V27.5527V13.5527V19.6277V19.5527V26.5527ZM15.6665 24.5527C15.6665 24.8361 15.7623 25.0736 15.954 25.2652C16.1457 25.4569 16.3832 25.5527 16.6665 25.5527H18.7415C19.0248 25.5527 19.2623 25.4569 19.454 25.2652C19.6457 25.0736 19.7415 24.8361 19.7415 24.5527C19.7415 24.2694 19.6457 24.0319 19.454 23.8402C19.2623 23.6486 19.0248 23.5527 18.7415 23.5527H16.6665C16.3832 23.5527 16.1457 23.6486 15.954 23.8402C15.7623 24.0319 15.6665 24.2694 15.6665 24.5527ZM15.6665 20.5527C15.6665 20.8361 15.7623 21.0736 15.954 21.2652C16.1457 21.4569 16.3832 21.5527 16.6665 21.5527H21.6665C21.9498 21.5527 22.1873 21.4569 22.379 21.2652C22.5707 21.0736 22.6665 20.8361 22.6665 20.5527C22.6665 20.2694 22.5707 20.0319 22.379 19.8402C22.1873 19.6486 21.9498 19.5527 21.6665 19.5527H16.6665C16.3832 19.5527 16.1457 19.6486 15.954 19.8402C15.7623 20.0319 15.6665 20.2694 15.6665 20.5527ZM15.6665 16.5527C15.6665 16.8361 15.7623 17.0736 15.954 17.2652C16.1457 17.4569 16.3832 17.5527 16.6665 17.5527H24.6665C24.9498 17.5527 25.1873 17.4569 25.379 17.2652C25.5707 17.0736 25.6665 16.8361 25.6665 16.5527C25.6665 16.2694 25.5707 16.0319 25.379 15.8402C25.1873 15.6486 24.9498 15.5527 24.6665 15.5527H16.6665C16.3832 15.5527 16.1457 15.6486 15.954 15.8402C15.7623 16.0319 15.6665 16.2694 15.6665 16.5527ZM26.6665 31.5527C25.2832 31.5527 24.104 31.0652 23.129 30.0902C22.154 29.1152 21.6665 27.9361 21.6665 26.5527C21.6665 25.1694 22.154 23.9902 23.129 23.0152C24.104 22.0402 25.2832 21.5527 26.6665 21.5527C28.0498 21.5527 29.229 22.0402 30.204 23.0152C31.179 23.9902 31.6665 25.1694 31.6665 26.5527C31.6665 27.9361 31.179 29.1152 30.204 30.0902C29.229 31.0652 28.0498 31.5527 26.6665 31.5527Z" fill="white"/>
<defs>
<linearGradient id="paint0_linear_6317_5123" x1="34.54" y1="-12.7758" x2="51.0134" y2="115.603" gradientUnits="userSpaceOnUse">
<stop stop-color="#2CD7B2"/>
<stop offset="1" stop-color="#2173E3"/>
</linearGradient>
</defs>
</svg>
