<svg width="24" height="25" viewBox="0 0 24 25" fill="none" xmlns="http://www.w3.org/2000/svg">
<path d="M6.26138 17.3295C7.11138 16.6795 8.06138 16.167 9.11138 15.792C10.1614 15.417 11.2614 15.2295 12.4114 15.2295C13.5614 15.2295 14.6614 15.417 15.7114 15.792C16.7614 16.167 17.7114 16.6795 18.5614 17.3295C19.1447 16.6462 19.5989 15.8712 19.9239 15.0045C20.2489 14.1378 20.4114 13.2128 20.4114 12.2295C20.4114 10.0128 19.6322 8.12533 18.0739 6.56699C16.5155 5.00866 14.628 4.22949 12.4114 4.22949C10.1947 4.22949 8.30721 5.00866 6.74888 6.56699C5.19054 8.12533 4.41138 10.0128 4.41138 12.2295C4.41138 13.2128 4.57388 14.1378 4.89888 15.0045C5.22388 15.8712 5.67804 16.6462 6.26138 17.3295ZM12.4114 13.2295C11.428 13.2295 10.5989 12.892 9.92388 12.217C9.24888 11.542 8.91138 10.7128 8.91138 9.72949C8.91138 8.74616 9.24888 7.91699 9.92388 7.24199C10.5989 6.56699 11.428 6.22949 12.4114 6.22949C13.3947 6.22949 14.2239 6.56699 14.8989 7.24199C15.5739 7.91699 15.9114 8.74616 15.9114 9.72949C15.9114 10.7128 15.5739 11.542 14.8989 12.217C14.2239 12.892 13.3947 13.2295 12.4114 13.2295ZM12.4114 22.2295C11.028 22.2295 9.72804 21.967 8.51138 21.442C7.29471 20.917 6.23638 20.2045 5.33638 19.3045C4.43638 18.4045 3.72388 17.3462 3.19888 16.1295C2.67388 14.9128 2.41138 13.6128 2.41138 12.2295C2.41138 10.8462 2.67388 9.54616 3.19888 8.32949C3.72388 7.11283 4.43638 6.05449 5.33638 5.15449C6.23638 4.25449 7.29471 3.54199 8.51138 3.01699C9.72804 2.49199 11.028 2.22949 12.4114 2.22949C13.7947 2.22949 15.0947 2.49199 16.3114 3.01699C17.528 3.54199 18.5864 4.25449 19.4864 5.15449C20.3864 6.05449 21.0989 7.11283 21.6239 8.32949C22.1489 9.54616 22.4114 10.8462 22.4114 12.2295C22.4114 13.6128 22.1489 14.9128 21.6239 16.1295C21.0989 17.3462 20.3864 18.4045 19.4864 19.3045C18.5864 20.2045 17.528 20.917 16.3114 21.442C15.0947 21.967 13.7947 22.2295 12.4114 22.2295ZM12.4114 20.2295C13.2947 20.2295 14.128 20.1003 14.9114 19.842C15.6947 19.5837 16.4114 19.2128 17.0614 18.7295C16.4114 18.2462 15.6947 17.8753 14.9114 17.617C14.128 17.3587 13.2947 17.2295 12.4114 17.2295C11.528 17.2295 10.6947 17.3587 9.91138 17.617C9.12804 17.8753 8.41138 18.2462 7.76138 18.7295C8.41138 19.2128 9.12804 19.5837 9.91138 19.842C10.6947 20.1003 11.528 20.2295 12.4114 20.2295ZM12.4114 11.2295C12.8447 11.2295 13.203 11.0878 13.4864 10.8045C13.7697 10.5212 13.9114 10.1628 13.9114 9.72949C13.9114 9.29616 13.7697 8.93783 13.4864 8.65449C13.203 8.37116 12.8447 8.22949 12.4114 8.22949C11.978 8.22949 11.6197 8.37116 11.3364 8.65449C11.053 8.93783 10.9114 9.29616 10.9114 9.72949C10.9114 10.1628 11.053 10.5212 11.3364 10.8045C11.6197 11.0878 11.978 11.2295 12.4114 11.2295Z" fill="#101828"/>
</svg>
