<svg width="24" height="25" viewBox="0 0 24 25" fill="none" xmlns="http://www.w3.org/2000/svg">
<path d="M6.41138 22.2295C5.86138 22.2295 5.39054 22.0337 4.99888 21.642C4.60721 21.2503 4.41138 20.7795 4.41138 20.2295V10.2295C4.41138 9.67949 4.60721 9.20866 4.99888 8.81699C5.39054 8.42533 5.86138 8.22949 6.41138 8.22949H7.41138V6.22949C7.41138 4.84616 7.89888 3.66699 8.87388 2.69199C9.84888 1.71699 11.028 1.22949 12.4114 1.22949C13.7947 1.22949 14.9739 1.71699 15.9489 2.69199C16.9239 3.66699 17.4114 4.84616 17.4114 6.22949V8.22949H18.4114C18.9614 8.22949 19.4322 8.42533 19.8239 8.81699C20.2155 9.20866 20.4114 9.67949 20.4114 10.2295V20.2295C20.4114 20.7795 20.2155 21.2503 19.8239 21.642C19.4322 22.0337 18.9614 22.2295 18.4114 22.2295H6.41138ZM6.41138 20.2295H18.4114V10.2295H6.41138V20.2295ZM12.4114 17.2295C12.9614 17.2295 13.4322 17.0337 13.8239 16.642C14.2155 16.2503 14.4114 15.7795 14.4114 15.2295C14.4114 14.6795 14.2155 14.2087 13.8239 13.817C13.4322 13.4253 12.9614 13.2295 12.4114 13.2295C11.8614 13.2295 11.3905 13.4253 10.9989 13.817C10.6072 14.2087 10.4114 14.6795 10.4114 15.2295C10.4114 15.7795 10.6072 16.2503 10.9989 16.642C11.3905 17.0337 11.8614 17.2295 12.4114 17.2295ZM9.41138 8.22949H15.4114V6.22949C15.4114 5.39616 15.1197 4.68783 14.5364 4.10449C13.953 3.52116 13.2447 3.22949 12.4114 3.22949C11.578 3.22949 10.8697 3.52116 10.2864 4.10449C9.70304 4.68783 9.41138 5.39616 9.41138 6.22949V8.22949Z" fill="#475467"/>
</svg>
