<svg width="24" height="25" viewBox="0 0 24 25" fill="none" xmlns="http://www.w3.org/2000/svg">
<path d="M12.4114 21.2295C12.128 21.2295 11.8905 21.1337 11.6989 20.942C11.5072 20.7503 11.4114 20.5128 11.4114 20.2295V16.2295C11.4114 15.9462 11.5072 15.7087 11.6989 15.517C11.8905 15.3253 12.128 15.2295 12.4114 15.2295C12.6947 15.2295 12.9322 15.3253 13.1239 15.517C13.3155 15.7087 13.4114 15.9462 13.4114 16.2295V17.2295H20.4114C20.6947 17.2295 20.9322 17.3253 21.1239 17.517C21.3155 17.7087 21.4114 17.9462 21.4114 18.2295C21.4114 18.5128 21.3155 18.7503 21.1239 18.942C20.9322 19.1337 20.6947 19.2295 20.4114 19.2295H13.4114V20.2295C13.4114 20.5128 13.3155 20.7503 13.1239 20.942C12.9322 21.1337 12.6947 21.2295 12.4114 21.2295ZM4.41138 19.2295C4.12804 19.2295 3.89054 19.1337 3.69888 18.942C3.50721 18.7503 3.41138 18.5128 3.41138 18.2295C3.41138 17.9462 3.50721 17.7087 3.69888 17.517C3.89054 17.3253 4.12804 17.2295 4.41138 17.2295H8.41138C8.69471 17.2295 8.93221 17.3253 9.12388 17.517C9.31554 17.7087 9.41138 17.9462 9.41138 18.2295C9.41138 18.5128 9.31554 18.7503 9.12388 18.942C8.93221 19.1337 8.69471 19.2295 8.41138 19.2295H4.41138ZM8.41138 15.2295C8.12804 15.2295 7.89054 15.1337 7.69888 14.942C7.50721 14.7503 7.41138 14.5128 7.41138 14.2295V13.2295H4.41138C4.12804 13.2295 3.89054 13.1337 3.69888 12.942C3.50721 12.7503 3.41138 12.5128 3.41138 12.2295C3.41138 11.9462 3.50721 11.7087 3.69888 11.517C3.89054 11.3253 4.12804 11.2295 4.41138 11.2295H7.41138V10.2295C7.41138 9.94616 7.50721 9.70866 7.69888 9.51699C7.89054 9.32533 8.12804 9.22949 8.41138 9.22949C8.69471 9.22949 8.93221 9.32533 9.12388 9.51699C9.31554 9.70866 9.41138 9.94616 9.41138 10.2295V14.2295C9.41138 14.5128 9.31554 14.7503 9.12388 14.942C8.93221 15.1337 8.69471 15.2295 8.41138 15.2295ZM12.4114 13.2295C12.128 13.2295 11.8905 13.1337 11.6989 12.942C11.5072 12.7503 11.4114 12.5128 11.4114 12.2295C11.4114 11.9462 11.5072 11.7087 11.6989 11.517C11.8905 11.3253 12.128 11.2295 12.4114 11.2295H20.4114C20.6947 11.2295 20.9322 11.3253 21.1239 11.517C21.3155 11.7087 21.4114 11.9462 21.4114 12.2295C21.4114 12.5128 21.3155 12.7503 21.1239 12.942C20.9322 13.1337 20.6947 13.2295 20.4114 13.2295H12.4114ZM16.4114 9.22949C16.128 9.22949 15.8905 9.13366 15.6989 8.94199C15.5072 8.75033 15.4114 8.51283 15.4114 8.22949V4.22949C15.4114 3.94616 15.5072 3.70866 15.6989 3.51699C15.8905 3.32533 16.128 3.22949 16.4114 3.22949C16.6947 3.22949 16.9322 3.32533 17.1239 3.51699C17.3155 3.70866 17.4114 3.94616 17.4114 4.22949V5.22949H20.4114C20.6947 5.22949 20.9322 5.32533 21.1239 5.51699C21.3155 5.70866 21.4114 5.94616 21.4114 6.22949C21.4114 6.51283 21.3155 6.75033 21.1239 6.94199C20.9322 7.13366 20.6947 7.22949 20.4114 7.22949H17.4114V8.22949C17.4114 8.51283 17.3155 8.75033 17.1239 8.94199C16.9322 9.13366 16.6947 9.22949 16.4114 9.22949ZM4.41138 7.22949C4.12804 7.22949 3.89054 7.13366 3.69888 6.94199C3.50721 6.75033 3.41138 6.51283 3.41138 6.22949C3.41138 5.94616 3.50721 5.70866 3.69888 5.51699C3.89054 5.32533 4.12804 5.22949 4.41138 5.22949H12.4114C12.6947 5.22949 12.9322 5.32533 13.1239 5.51699C13.3155 5.70866 13.4114 5.94616 13.4114 6.22949C13.4114 6.51283 13.3155 6.75033 13.1239 6.94199C12.9322 7.13366 12.6947 7.22949 12.4114 7.22949H4.41138Z" fill="#475467"/>
</svg>
