<svg width="24" height="25" viewBox="0 0 24 25" fill="none" xmlns="http://www.w3.org/2000/svg">
<path d="M11.3614 12.9294L9.96138 11.5294C9.76138 11.3294 9.52804 11.2294 9.26138 11.2294C8.99471 11.2294 8.76138 11.3294 8.56138 11.5294C8.36138 11.7294 8.26138 11.9669 8.26138 12.2419C8.26138 12.5169 8.36138 12.7544 8.56138 12.9544L10.6614 15.0794C10.8614 15.2794 11.0947 15.3794 11.3614 15.3794C11.628 15.3794 11.8614 15.2794 12.0614 15.0794L16.3114 10.8294C16.5114 10.6294 16.6114 10.3919 16.6114 10.1169C16.6114 9.84189 16.5114 9.60439 16.3114 9.40439C16.1114 9.20439 15.8739 9.10439 15.5989 9.10439C15.3239 9.10439 15.0864 9.20439 14.8864 9.40439L11.3614 12.9294ZM12.4114 22.1294C12.2947 22.1294 12.1864 22.1211 12.0864 22.1044C11.9864 22.0877 11.8864 22.0627 11.7864 22.0294C9.53638 21.2794 7.74471 19.8919 6.41138 17.8669C5.07804 15.8419 4.41138 13.6627 4.41138 11.3294V6.60439C4.41138 6.18773 4.53221 5.81273 4.77388 5.47939C5.01554 5.14606 5.32804 4.90439 5.71138 4.75439L11.7114 2.50439C11.9447 2.42106 12.178 2.37939 12.4114 2.37939C12.6447 2.37939 12.878 2.42106 13.1114 2.50439L19.1114 4.75439C19.4947 4.90439 19.8072 5.14606 20.0489 5.47939C20.2905 5.81273 20.4114 6.18773 20.4114 6.60439V11.3294C20.4114 13.6627 19.7447 15.8419 18.4114 17.8669C17.078 19.8919 15.2864 21.2794 13.0364 22.0294C12.9364 22.0627 12.8364 22.0877 12.7364 22.1044C12.6364 22.1211 12.528 22.1294 12.4114 22.1294ZM12.4114 20.1294C14.1447 19.5794 15.578 18.4794 16.7114 16.8294C17.8447 15.1794 18.4114 13.3461 18.4114 11.3294V6.60439L12.4114 4.35439L6.41138 6.60439V11.3294C6.41138 13.3461 6.97804 15.1794 8.11138 16.8294C9.24471 18.4794 10.678 19.5794 12.4114 20.1294Z" fill="#475467"/>
</svg>
