<svg width="25" height="25" viewBox="0 0 25 25" fill="none" xmlns="http://www.w3.org/2000/svg">
<path d="M11.5146 13.6885H6.51465C6.23132 13.6885 5.99382 13.5926 5.80215 13.401C5.61048 13.2093 5.51465 12.9718 5.51465 12.6885C5.51465 12.4051 5.61048 12.1676 5.80215 11.976C5.99382 11.7843 6.23132 11.6885 6.51465 11.6885H11.5146V6.68848C11.5146 6.40514 11.6105 6.16764 11.8021 5.97598C11.9938 5.78431 12.2313 5.68848 12.5146 5.68848C12.798 5.68848 13.0355 5.78431 13.2271 5.97598C13.4188 6.16764 13.5146 6.40514 13.5146 6.68848V11.6885H18.5146C18.798 11.6885 19.0355 11.7843 19.2271 11.976C19.4188 12.1676 19.5146 12.4051 19.5146 12.6885C19.5146 12.9718 19.4188 13.2093 19.2271 13.401C19.0355 13.5926 18.798 13.6885 18.5146 13.6885H13.5146V18.6885C13.5146 18.9718 13.4188 19.2093 13.2271 19.401C13.0355 19.5926 12.798 19.6885 12.5146 19.6885C12.2313 19.6885 11.9938 19.5926 11.8021 19.401C11.6105 19.2093 11.5146 18.9718 11.5146 18.6885V13.6885Z" fill="#2173E3"/>
</svg>
