<svg width="10" height="6" viewBox="0 0 10 6" fill="none" xmlns="http://www.w3.org/2000/svg">
<path d="M0.810387 0.121094H9.18939C9.3377 0.121125 9.48267 0.165129 9.60598 0.247542C9.72929 0.329955 9.82539 0.447078 9.88214 0.584102C9.9389 0.721127 9.95375 0.871901 9.92482 1.01737C9.8959 1.16283 9.82449 1.29645 9.71964 1.40134L5.53014 5.59083C5.38949 5.73144 5.19876 5.81042 4.99989 5.81042C4.80101 5.81042 4.61028 5.73144 4.46964 5.59083L0.280137 1.40134C0.17528 1.29645 0.103875 1.16283 0.0749494 1.01737C0.0460238 0.871901 0.0608762 0.721127 0.117629 0.584102C0.174381 0.447078 0.270486 0.329955 0.393793 0.247542C0.517101 0.165129 0.662075 0.121125 0.810387 0.121094Z" fill="#858D9D"/>
</svg>
