<svg width="19" height="19" viewBox="0 0 19 19" fill="none" xmlns="http://www.w3.org/2000/svg">
<path d="M8.36113 10.7211L6.74863 9.10859C6.61113 8.97109 6.43613 8.90234 6.22363 8.90234C6.01113 8.90234 5.83613 8.97109 5.69863 9.10859C5.56113 9.24609 5.49238 9.42109 5.49238 9.63359C5.49238 9.84609 5.56113 10.0211 5.69863 10.1586L7.83613 12.2961C7.98613 12.4461 8.16113 12.5211 8.36113 12.5211C8.56113 12.5211 8.73613 12.4461 8.88613 12.2961L13.1236 8.05859C13.2611 7.92109 13.3299 7.74609 13.3299 7.53359C13.3299 7.32109 13.2611 7.14609 13.1236 7.00859C12.9861 6.87109 12.8111 6.80234 12.5986 6.80234C12.3861 6.80234 12.2111 6.87109 12.0736 7.00859L8.36113 10.7211ZM9.41113 16.8711C8.37363 16.8711 7.39863 16.6742 6.48613 16.2805C5.57363 15.8867 4.77988 15.3523 4.10488 14.6773C3.42988 14.0023 2.89551 13.2086 2.50176 12.2961C2.10801 11.3836 1.91113 10.4086 1.91113 9.37109C1.91113 8.33359 2.10801 7.35859 2.50176 6.44609C2.89551 5.53359 3.42988 4.73984 4.10488 4.06484C4.77988 3.38984 5.57363 2.85547 6.48613 2.46172C7.39863 2.06797 8.37363 1.87109 9.41113 1.87109C10.4486 1.87109 11.4236 2.06797 12.3361 2.46172C13.2486 2.85547 14.0424 3.38984 14.7174 4.06484C15.3924 4.73984 15.9268 5.53359 16.3205 6.44609C16.7143 7.35859 16.9111 8.33359 16.9111 9.37109C16.9111 10.4086 16.7143 11.3836 16.3205 12.2961C15.9268 13.2086 15.3924 14.0023 14.7174 14.6773C14.0424 15.3523 13.2486 15.8867 12.3361 16.2805C11.4236 16.6742 10.4486 16.8711 9.41113 16.8711ZM9.41113 15.3711C11.0861 15.3711 12.5049 14.7898 13.6674 13.6273C14.8299 12.4648 15.4111 11.0461 15.4111 9.37109C15.4111 7.69609 14.8299 6.27734 13.6674 5.11484C12.5049 3.95234 11.0861 3.37109 9.41113 3.37109C7.73613 3.37109 6.31738 3.95234 5.15488 5.11484C3.99238 6.27734 3.41113 7.69609 3.41113 9.37109C3.41113 11.0461 3.99238 12.4648 5.15488 13.6273C6.31738 14.7898 7.73613 15.3711 9.41113 15.3711Z" fill="#2173E3"/>
</svg>
