<svg width="19" height="19" viewBox="0 0 19 19" fill="none" xmlns="http://www.w3.org/2000/svg">
<path d="M9.51426 10.4207L5.83926 14.0957C5.70176 14.2332 5.52676 14.302 5.31426 14.302C5.10176 14.302 4.92676 14.2332 4.78926 14.0957C4.65176 13.9582 4.58301 13.7832 4.58301 13.5707C4.58301 13.3582 4.65176 13.1832 4.78926 13.0457L8.46426 9.3707L4.78926 5.6957C4.65176 5.5582 4.58301 5.3832 4.58301 5.1707C4.58301 4.9582 4.65176 4.7832 4.78926 4.6457C4.92676 4.5082 5.10176 4.43945 5.31426 4.43945C5.52676 4.43945 5.70176 4.5082 5.83926 4.6457L9.51426 8.3207L13.1893 4.6457C13.3268 4.5082 13.5018 4.43945 13.7143 4.43945C13.9268 4.43945 14.1018 4.5082 14.2393 4.6457C14.3768 4.7832 14.4455 4.9582 14.4455 5.1707C14.4455 5.3832 14.3768 5.5582 14.2393 5.6957L10.5643 9.3707L14.2393 13.0457C14.3768 13.1832 14.4455 13.3582 14.4455 13.5707C14.4455 13.7832 14.3768 13.9582 14.2393 14.0957C14.1018 14.2332 13.9268 14.302 13.7143 14.302C13.5018 14.302 13.3268 14.2332 13.1893 14.0957L9.51426 10.4207Z" fill="#C61B1B"/>
</svg>
