<svg width="48" height="49" viewBox="0 0 48 49" fill="none" xmlns="http://www.w3.org/2000/svg">
<rect y="0.924805" width="48" height="48" rx="12" fill="url(#paint0_linear_6257_3009)"/>
<path d="M13.2003 31.0763H34.8003C35.1403 31.0763 35.4253 31.1913 35.6553 31.4213C35.8853 31.6513 36.0003 31.9363 36.0003 32.2763C36.0003 32.6163 35.8853 32.9013 35.6553 33.1313C35.4253 33.3613 35.1403 33.4763 34.8003 33.4763H13.2003C12.8603 33.4763 12.5753 33.3613 12.3453 33.1313C12.1153 32.9013 12.0003 32.6163 12.0003 32.2763C12.0003 31.9363 12.1153 31.6513 12.3453 31.4213C12.5753 31.1913 12.8603 31.0763 13.2003 31.0763ZM14.4003 24.4163L13.8303 25.4363C13.7103 25.6563 13.5303 25.7963 13.2903 25.8563C13.0503 25.9163 12.8203 25.8863 12.6003 25.7663C12.3803 25.6463 12.2403 25.4663 12.1803 25.2263C12.1203 24.9863 12.1503 24.7563 12.2703 24.5363L12.8403 23.5163H11.7003C11.4403 23.5163 11.2253 23.4313 11.0553 23.2613C10.8853 23.0913 10.8003 22.8763 10.8003 22.6163C10.8003 22.3563 10.8853 22.1413 11.0553 21.9713C11.2253 21.8012 11.4403 21.7163 11.7003 21.7163H12.8403L12.2703 20.7563C12.1503 20.5362 12.1203 20.3063 12.1803 20.0663C12.2403 19.8263 12.3803 19.6463 12.6003 19.5263C12.8203 19.4062 13.0503 19.3762 13.2903 19.4363C13.5303 19.4963 13.7103 19.6363 13.8303 19.8563L14.4003 20.8163L14.9703 19.8563C15.0903 19.6363 15.2703 19.4963 15.5103 19.4363C15.7503 19.3762 15.9803 19.4062 16.2003 19.5263C16.4203 19.6463 16.5603 19.8263 16.6203 20.0663C16.6803 20.3063 16.6503 20.5362 16.5303 20.7563L15.9603 21.7163H17.1003C17.3603 21.7163 17.5753 21.8012 17.7453 21.9713C17.9153 22.1413 18.0003 22.3563 18.0003 22.6163C18.0003 22.8763 17.9153 23.0913 17.7453 23.2613C17.5753 23.4313 17.3603 23.5163 17.1003 23.5163H15.9603L16.5303 24.5363C16.6503 24.7563 16.6803 24.9863 16.6203 25.2263C16.5603 25.4663 16.4203 25.6463 16.2003 25.7663C15.9803 25.8863 15.7503 25.9163 15.5103 25.8563C15.2703 25.7963 15.0903 25.6563 14.9703 25.4363L14.4003 24.4163ZM24.0003 24.4163L23.4303 25.4363C23.3103 25.6563 23.1303 25.7963 22.8903 25.8563C22.6503 25.9163 22.4203 25.8863 22.2003 25.7663C21.9803 25.6463 21.8403 25.4663 21.7803 25.2263C21.7203 24.9863 21.7503 24.7563 21.8703 24.5363L22.4403 23.5163H21.3003C21.0403 23.5163 20.8253 23.4313 20.6553 23.2613C20.4853 23.0913 20.4003 22.8763 20.4003 22.6163C20.4003 22.3563 20.4853 22.1413 20.6553 21.9713C20.8253 21.8012 21.0403 21.7163 21.3003 21.7163H22.4403L21.8703 20.7563C21.7503 20.5362 21.7203 20.3063 21.7803 20.0663C21.8403 19.8263 21.9803 19.6463 22.2003 19.5263C22.4203 19.4062 22.6503 19.3762 22.8903 19.4363C23.1303 19.4963 23.3103 19.6363 23.4303 19.8563L24.0003 20.8163L24.5703 19.8563C24.6903 19.6363 24.8703 19.4963 25.1103 19.4363C25.3503 19.3762 25.5803 19.4062 25.8003 19.5263C26.0203 19.6463 26.1603 19.8263 26.2203 20.0663C26.2803 20.3063 26.2503 20.5362 26.1303 20.7563L25.5603 21.7163H26.7003C26.9603 21.7163 27.1753 21.8012 27.3453 21.9713C27.5153 22.1413 27.6003 22.3563 27.6003 22.6163C27.6003 22.8763 27.5153 23.0913 27.3453 23.2613C27.1753 23.4313 26.9603 23.5163 26.7003 23.5163H25.5603L26.1303 24.5363C26.2503 24.7563 26.2803 24.9863 26.2203 25.2263C26.1603 25.4663 26.0203 25.6463 25.8003 25.7663C25.5803 25.8863 25.3503 25.9163 25.1103 25.8563C24.8703 25.7963 24.6903 25.6563 24.5703 25.4363L24.0003 24.4163ZM33.6003 24.4163L33.0303 25.4363C32.9103 25.6563 32.7303 25.7963 32.4903 25.8563C32.2503 25.9163 32.0203 25.8863 31.8003 25.7663C31.5803 25.6463 31.4403 25.4663 31.3803 25.2263C31.3203 24.9863 31.3503 24.7563 31.4703 24.5363L32.0403 23.5163H30.9003C30.6403 23.5163 30.4253 23.4313 30.2553 23.2613C30.0853 23.0913 30.0003 22.8763 30.0003 22.6163C30.0003 22.3563 30.0853 22.1413 30.2553 21.9713C30.4253 21.8012 30.6403 21.7163 30.9003 21.7163H32.0403L31.4703 20.7563C31.3503 20.5362 31.3203 20.3063 31.3803 20.0663C31.4403 19.8263 31.5803 19.6463 31.8003 19.5263C32.0203 19.4062 32.2503 19.3762 32.4903 19.4363C32.7303 19.4963 32.9103 19.6363 33.0303 19.8563L33.6003 20.8163L34.1703 19.8563C34.2903 19.6363 34.4703 19.4963 34.7103 19.4363C34.9503 19.3762 35.1803 19.4062 35.4003 19.5263C35.6203 19.6463 35.7603 19.8263 35.8203 20.0663C35.8803 20.3063 35.8503 20.5362 35.7303 20.7563L35.1603 21.7163H36.3003C36.5603 21.7163 36.7753 21.8012 36.9453 21.9713C37.1153 22.1413 37.2003 22.3563 37.2003 22.6163C37.2003 22.8763 37.1153 23.0913 36.9453 23.2613C36.7753 23.4313 36.5603 23.5163 36.3003 23.5163H35.1603L35.7303 24.5363C35.8503 24.7563 35.8803 24.9863 35.8203 25.2263C35.7603 25.4663 35.6203 25.6463 35.4003 25.7663C35.1803 25.8863 34.9503 25.9163 34.7103 25.8563C34.4703 25.7963 34.2903 25.6563 34.1703 25.4363L33.6003 24.4163Z" fill="white"/>
<defs>
<linearGradient id="paint0_linear_6257_3009" x1="40.6481" y1="-15.0695" x2="60.4162" y2="138.985" gradientUnits="userSpaceOnUse">
<stop stop-color="#2CD7B2"/>
<stop offset="1" stop-color="#2173E3"/>
</linearGradient>
</defs>
</svg>
