<svg width="28" height="29" viewBox="0 0 28 29" fill="none" xmlns="http://www.w3.org/2000/svg">
<path d="M2.54545 19.8407H25.4545C25.8152 19.8407 26.1174 19.9626 26.3614 20.2066C26.6053 20.4505 26.7273 20.7528 26.7273 21.1134C26.7273 21.474 26.6053 21.7763 26.3614 22.0202C26.1174 22.2641 25.8152 22.3861 25.4545 22.3861H2.54545C2.18485 22.3861 1.88258 22.2641 1.63864 22.0202C1.3947 21.7763 1.27273 21.474 1.27273 21.1134C1.27273 20.7528 1.3947 20.4505 1.63864 20.2066C1.88258 19.9626 2.18485 19.8407 2.54545 19.8407ZM3.81818 12.777L3.21364 13.8588C3.08636 14.0922 2.89545 14.2407 2.64091 14.3043C2.38636 14.3679 2.14242 14.3361 1.90909 14.2088C1.67576 14.0816 1.52727 13.8907 1.46364 13.6361C1.4 13.3816 1.43182 13.1376 1.55909 12.9043L2.16364 11.8225H0.954545C0.678788 11.8225 0.450758 11.7323 0.270455 11.552C0.0901515 11.3717 0 11.1437 0 10.8679C0 10.5922 0.0901515 10.3641 0.270455 10.1838C0.450758 10.0035 0.678788 9.91338 0.954545 9.91338H2.16364L1.55909 8.8952C1.43182 8.66186 1.4 8.41792 1.46364 8.16338C1.52727 7.90883 1.67576 7.71792 1.90909 7.59065C2.14242 7.46338 2.38636 7.43156 2.64091 7.4952C2.89545 7.55883 3.08636 7.70732 3.21364 7.94065L3.81818 8.95883L4.42273 7.94065C4.55 7.70732 4.74091 7.55883 4.99545 7.4952C5.25 7.43156 5.49394 7.46338 5.72727 7.59065C5.96061 7.71792 6.10909 7.90883 6.17273 8.16338C6.23636 8.41792 6.20455 8.66186 6.07727 8.8952L5.47273 9.91338H6.68182C6.95758 9.91338 7.18561 10.0035 7.36591 10.1838C7.54621 10.3641 7.63636 10.5922 7.63636 10.8679C7.63636 11.1437 7.54621 11.3717 7.36591 11.552C7.18561 11.7323 6.95758 11.8225 6.68182 11.8225H5.47273L6.07727 12.9043C6.20455 13.1376 6.23636 13.3816 6.17273 13.6361C6.10909 13.8907 5.96061 14.0816 5.72727 14.2088C5.49394 14.3361 5.25 14.3679 4.99545 14.3043C4.74091 14.2407 4.55 14.0922 4.42273 13.8588L3.81818 12.777ZM14 12.777L13.3955 13.8588C13.2682 14.0922 13.0773 14.2407 12.8227 14.3043C12.5682 14.3679 12.3242 14.3361 12.0909 14.2088C11.8576 14.0816 11.7091 13.8907 11.6455 13.6361C11.5818 13.3816 11.6136 13.1376 11.7409 12.9043L12.3455 11.8225H11.1364C10.8606 11.8225 10.6326 11.7323 10.4523 11.552C10.272 11.3717 10.1818 11.1437 10.1818 10.8679C10.1818 10.5922 10.272 10.3641 10.4523 10.1838C10.6326 10.0035 10.8606 9.91338 11.1364 9.91338H12.3455L11.7409 8.8952C11.6136 8.66186 11.5818 8.41792 11.6455 8.16338C11.7091 7.90883 11.8576 7.71792 12.0909 7.59065C12.3242 7.46338 12.5682 7.43156 12.8227 7.4952C13.0773 7.55883 13.2682 7.70732 13.3955 7.94065L14 8.95883L14.6045 7.94065C14.7318 7.70732 14.9227 7.55883 15.1773 7.4952C15.4318 7.43156 15.6758 7.46338 15.9091 7.59065C16.1424 7.71792 16.2909 7.90883 16.3545 8.16338C16.4182 8.41792 16.3864 8.66186 16.2591 8.8952L15.6545 9.91338H16.8636C17.1394 9.91338 17.3674 10.0035 17.5477 10.1838C17.728 10.3641 17.8182 10.5922 17.8182 10.8679C17.8182 11.1437 17.728 11.3717 17.5477 11.552C17.3674 11.7323 17.1394 11.8225 16.8636 11.8225H15.6545L16.2591 12.9043C16.3864 13.1376 16.4182 13.3816 16.3545 13.6361C16.2909 13.8907 16.1424 14.0816 15.9091 14.2088C15.6758 14.3361 15.4318 14.3679 15.1773 14.3043C14.9227 14.2407 14.7318 14.0922 14.6045 13.8588L14 12.777ZM24.1818 12.777L23.5773 13.8588C23.45 14.0922 23.2591 14.2407 23.0045 14.3043C22.75 14.3679 22.5061 14.3361 22.2727 14.2088C22.0394 14.0816 21.8909 13.8907 21.8273 13.6361C21.7636 13.3816 21.7955 13.1376 21.9227 12.9043L22.5273 11.8225H21.3182C21.0424 11.8225 20.8144 11.7323 20.6341 11.552C20.4538 11.3717 20.3636 11.1437 20.3636 10.8679C20.3636 10.5922 20.4538 10.3641 20.6341 10.1838C20.8144 10.0035 21.0424 9.91338 21.3182 9.91338H22.5273L21.9227 8.8952C21.7955 8.66186 21.7636 8.41792 21.8273 8.16338C21.8909 7.90883 22.0394 7.71792 22.2727 7.59065C22.5061 7.46338 22.75 7.43156 23.0045 7.4952C23.2591 7.55883 23.45 7.70732 23.5773 7.94065L24.1818 8.95883L24.7864 7.94065C24.9136 7.70732 25.1045 7.55883 25.3591 7.4952C25.6136 7.43156 25.8576 7.46338 26.0909 7.59065C26.3242 7.71792 26.4727 7.90883 26.5364 8.16338C26.6 8.41792 26.5682 8.66186 26.4409 8.8952L25.8364 9.91338H27.0455C27.3212 9.91338 27.5492 10.0035 27.7295 10.1838C27.9098 10.3641 28 10.5922 28 10.8679C28 11.1437 27.9098 11.3717 27.7295 11.552C27.5492 11.7323 27.3212 11.8225 27.0455 11.8225H25.8364L26.4409 12.9043C26.5682 13.1376 26.6 13.3816 26.5364 13.6361C26.4727 13.8907 26.3242 14.0816 26.0909 14.2088C25.8576 14.3361 25.6136 14.3679 25.3591 14.3043C25.1045 14.2407 24.9136 14.0922 24.7864 13.8588L24.1818 12.777Z" fill="#101828"/>
</svg>
