<svg width="17" height="17" viewBox="0 0 17 17" fill="none" xmlns="http://www.w3.org/2000/svg">
<path d="M8.58887 11.9461C8.45553 11.9461 8.33053 11.9253 8.21387 11.8836C8.0972 11.8419 7.98887 11.7711 7.88887 11.6711L4.28887 8.07109C4.08887 7.87109 3.99303 7.63776 4.00137 7.37109C4.0097 7.10443 4.10553 6.87109 4.28887 6.67109C4.48887 6.47109 4.72637 6.36693 5.00137 6.35859C5.27637 6.35026 5.51387 6.44609 5.71387 6.64609L7.58887 8.52109V1.37109C7.58887 1.08776 7.6847 0.85026 7.87637 0.658594C8.06803 0.466927 8.30553 0.371094 8.58887 0.371094C8.8722 0.371094 9.1097 0.466927 9.30137 0.658594C9.49303 0.85026 9.58887 1.08776 9.58887 1.37109V8.52109L11.4639 6.64609C11.6639 6.44609 11.9014 6.35026 12.1764 6.35859C12.4514 6.36693 12.6889 6.47109 12.8889 6.67109C13.0722 6.87109 13.168 7.10443 13.1764 7.37109C13.1847 7.63776 13.0889 7.87109 12.8889 8.07109L9.28887 11.6711C9.18887 11.7711 9.08053 11.8419 8.96387 11.8836C8.8472 11.9253 8.7222 11.9461 8.58887 11.9461ZM2.58887 16.3711C2.03887 16.3711 1.56803 16.1753 1.17637 15.7836C0.784701 15.3919 0.588867 14.9211 0.588867 14.3711V12.3711C0.588867 12.0878 0.684701 11.8503 0.876367 11.6586C1.06803 11.4669 1.30553 11.3711 1.58887 11.3711C1.8722 11.3711 2.1097 11.4669 2.30137 11.6586C2.49303 11.8503 2.58887 12.0878 2.58887 12.3711V14.3711H14.5889V12.3711C14.5889 12.0878 14.6847 11.8503 14.8764 11.6586C15.068 11.4669 15.3055 11.3711 15.5889 11.3711C15.8722 11.3711 16.1097 11.4669 16.3014 11.6586C16.493 11.8503 16.5889 12.0878 16.5889 12.3711V14.3711C16.5889 14.9211 16.393 15.3919 16.0014 15.7836C15.6097 16.1753 15.1389 16.3711 14.5889 16.3711H2.58887Z" fill="white"/>
</svg>
