<svg width="19" height="19" viewBox="0 0 19 19" fill="none" xmlns="http://www.w3.org/2000/svg">
<path d="M4.26465 14.6211H5.3334L12.6646 7.28984L11.5959 6.22109L4.26465 13.5523V14.6211ZM3.51465 16.1211C3.30215 16.1211 3.12402 16.0492 2.98027 15.9055C2.83652 15.7617 2.76465 15.5836 2.76465 15.3711V13.5523C2.76465 13.3523 2.80215 13.1617 2.87715 12.9805C2.95215 12.7992 3.0584 12.6398 3.1959 12.5023L12.6646 3.05234C12.8146 2.91484 12.9803 2.80859 13.1615 2.73359C13.3428 2.65859 13.5334 2.62109 13.7334 2.62109C13.9334 2.62109 14.1271 2.65859 14.3146 2.73359C14.5021 2.80859 14.6646 2.92109 14.8021 3.07109L15.8334 4.12109C15.9834 4.25859 16.0928 4.42109 16.1615 4.60859C16.2303 4.79609 16.2646 4.98359 16.2646 5.17109C16.2646 5.37109 16.2303 5.56172 16.1615 5.74297C16.0928 5.92422 15.9834 6.08984 15.8334 6.23984L6.3834 15.6898C6.2459 15.8273 6.08652 15.9336 5.90527 16.0086C5.72402 16.0836 5.5334 16.1211 5.3334 16.1211H3.51465ZM12.1209 6.76484L11.5959 6.22109L12.6646 7.28984L12.1209 6.76484Z" fill="#2173E3"/>
</svg>
