<svg width="48" height="49" viewBox="0 0 48 49" fill="none" xmlns="http://www.w3.org/2000/svg">
<rect y="0.924805" width="48" height="48" rx="12" fill="url(#paint0_linear_6267_2205)"/>
<path d="M14.4 34.5247C13.74 34.5247 13.175 34.2897 12.705 33.8197C12.235 33.3497 12 32.7847 12 32.1247V17.7247C12 17.0647 12.235 16.4997 12.705 16.0297C13.175 15.5597 13.74 15.3247 14.4 15.3247H33.6C34.26 15.3247 34.825 15.5597 35.295 16.0297C35.765 16.4997 36 17.0647 36 17.7247V32.1247C36 32.7847 35.765 33.3497 35.295 33.8197C34.825 34.2897 34.26 34.5247 33.6 34.5247H14.4ZM33.6 20.1247L24.63 25.7347C24.53 25.7947 24.425 25.8397 24.315 25.8697C24.205 25.8997 24.1 25.9147 24 25.9147C23.9 25.9147 23.795 25.8997 23.685 25.8697C23.575 25.8397 23.47 25.7947 23.37 25.7347L14.4 20.1247V32.1247H33.6V20.1247ZM24 23.7247L33.6 17.7247H14.4L24 23.7247ZM14.4 20.4247V18.6547V18.6847V18.6697V20.4247Z" fill="white"/>
<defs>
<linearGradient id="paint0_linear_6267_2205" x1="40.6481" y1="-15.0695" x2="60.4162" y2="138.985" gradientUnits="userSpaceOnUse">
<stop stop-color="#2CD7B2"/>
<stop offset="1" stop-color="#2173E3"/>
</linearGradient>
</defs>
</svg>
