<svg width="19" height="19" viewBox="0 0 19 19" fill="none" xmlns="http://www.w3.org/2000/svg">
<path d="M9.08867 12.3711C10.0262 12.3711 10.823 12.043 11.4793 11.3867C12.1355 10.7305 12.4637 9.93359 12.4637 8.99609C12.4637 8.05859 12.1355 7.26172 11.4793 6.60547C10.823 5.94922 10.0262 5.62109 9.08867 5.62109C8.15117 5.62109 7.3543 5.94922 6.69805 6.60547C6.0418 7.26172 5.71367 8.05859 5.71367 8.99609C5.71367 9.93359 6.0418 10.7305 6.69805 11.3867C7.3543 12.043 8.15117 12.3711 9.08867 12.3711ZM9.08867 11.0211C8.52617 11.0211 8.04805 10.8242 7.6543 10.4305C7.26055 10.0367 7.06367 9.55859 7.06367 8.99609C7.06367 8.43359 7.26055 7.95547 7.6543 7.56172C8.04805 7.16797 8.52617 6.97109 9.08867 6.97109C9.65117 6.97109 10.1293 7.16797 10.523 7.56172C10.9168 7.95547 11.1137 8.43359 11.1137 8.99609C11.1137 9.55859 10.9168 10.0367 10.523 10.4305C10.1293 10.8242 9.65117 11.0211 9.08867 11.0211ZM9.08867 14.6211C7.41367 14.6211 5.88555 14.1711 4.5043 13.2711C3.12305 12.3711 2.03242 11.1836 1.23242 9.70859C1.16992 9.59609 1.12305 9.48047 1.0918 9.36172C1.06055 9.24297 1.04492 9.12109 1.04492 8.99609C1.04492 8.87109 1.06055 8.74922 1.0918 8.63047C1.12305 8.51172 1.16992 8.39609 1.23242 8.28359C2.03242 6.80859 3.12305 5.62109 4.5043 4.72109C5.88555 3.82109 7.41367 3.37109 9.08867 3.37109C10.7637 3.37109 12.2918 3.82109 13.673 4.72109C15.0543 5.62109 16.1449 6.80859 16.9449 8.28359C17.0074 8.39609 17.0543 8.51172 17.0855 8.63047C17.1168 8.74922 17.1324 8.87109 17.1324 8.99609C17.1324 9.12109 17.1168 9.24297 17.0855 9.36172C17.0543 9.48047 17.0074 9.59609 16.9449 9.70859C16.1449 11.1836 15.0543 12.3711 13.673 13.2711C12.2918 14.1711 10.7637 14.6211 9.08867 14.6211ZM9.08867 13.1211C10.5012 13.1211 11.798 12.7492 12.9793 12.0055C14.1605 11.2617 15.0637 10.2586 15.6887 8.99609C15.0637 7.73359 14.1605 6.73047 12.9793 5.98672C11.798 5.24297 10.5012 4.87109 9.08867 4.87109C7.67617 4.87109 6.3793 5.24297 5.19805 5.98672C4.0168 6.73047 3.11367 7.73359 2.48867 8.99609C3.11367 10.2586 4.0168 11.2617 5.19805 12.0055C6.3793 12.7492 7.67617 13.1211 9.08867 13.1211Z" fill="#2173E3"/>
</svg>
