<svg width="21" height="21" viewBox="0 0 21 21" fill="none" xmlns="http://www.w3.org/2000/svg">
<g clip-path="url(#clip0_6252_9144)">
<path d="M7.18164 14.8555L10.515 18.1888L13.8483 14.8555" stroke="#2173E3" stroke-width="2" stroke-linecap="round" stroke-linejoin="round"/>
<path d="M10.5146 10.6885V18.1885" stroke="#2173E3" stroke-width="2" stroke-linecap="round" stroke-linejoin="round"/>
<path d="M17.915 15.7634C18.6395 15.254 19.1828 14.5269 19.466 13.6877C19.7493 12.8485 19.7578 11.9409 19.4903 11.0966C19.2228 10.2523 18.6932 9.51516 17.9784 8.99222C17.2635 8.46928 16.4006 8.18773 15.515 8.18842H14.465C14.2143 7.21165 13.7454 6.30446 13.0934 5.53515C12.4414 4.76585 11.6234 4.15447 10.701 3.74705C9.77852 3.33963 8.77566 3.14678 7.7679 3.18302C6.76013 3.21926 5.77372 3.48365 4.88292 3.95628C3.99212 4.42891 3.22015 5.09746 2.62512 5.91161C2.03008 6.72576 1.6275 7.66429 1.44768 8.65655C1.26785 9.6488 1.31547 10.6689 1.58694 11.6401C1.85842 12.6113 2.34667 13.5082 3.01496 14.2634" stroke="#2173E3" stroke-width="2" stroke-linecap="round" stroke-linejoin="round"/>
</g>
<defs>
<clipPath id="clip0_6252_9144">
<rect width="20" height="20" fill="white" transform="translate(0.514648 0.688477)"/>
</clipPath>
</defs>
</svg>
