<svg width="318" height="197" viewBox="0 0 318 197" fill="none" xmlns="http://www.w3.org/2000/svg">
<path d="M185.355 76.9127C184.384 79.9487 181.229 81.7149 178.134 80.9534C178.074 80.9387 178.014 80.9241 177.955 80.9094C174.87 80.1504 172.893 77.1397 173.423 74.0075C177.104 52.2607 180.797 30.4453 184.538 8.33885C185.126 4.86572 188.539 2.6221 191.961 3.45991C195.079 4.22352 198.181 4.98302 201.296 5.74538C204.71 6.58105 206.701 10.135 205.631 13.4831C198.821 34.7931 192.095 55.8348 185.355 76.9127Z" fill="#FDAA31"/>
<path d="M147.202 73.6002C147.634 76.753 145.555 79.7031 142.441 80.3565C142.383 80.3687 142.324 80.3809 142.266 80.3931C139.152 81.0465 136.062 79.1811 135.189 76.1209C129.131 54.8796 123.062 33.6066 116.92 12.0752C115.956 8.69549 118.058 5.20641 121.496 4.4782C124.627 3.8151 127.752 3.15305 130.898 2.48617C134.345 1.75542 137.687 4.10586 138.165 7.59702C141.202 29.7749 144.202 51.6843 147.202 73.6002Z" fill="#BFC445"/>
<path d="M8.53359 132.875C5.0734 132.263 2.85541 128.847 3.70417 125.438C4.48567 122.298 5.2619 119.179 6.04208 116.044C6.89346 112.622 10.4733 110.645 13.8228 111.746C34.9959 118.709 55.9291 125.593 76.8707 132.48C79.8901 133.473 81.6304 136.629 80.8578 139.712C80.8399 139.784 80.8219 139.855 80.8039 139.927C80.0299 143.016 76.9992 144.981 73.8635 144.427C52.2429 140.604 30.5707 136.771 8.53359 132.875Z" fill="#65BB78"/>
<path d="M315.204 130.394C315.949 133.832 313.624 137.181 310.142 137.683C288.043 140.869 266.304 144 244.484 147.145C241.333 147.599 238.367 145.54 237.693 142.428C237.677 142.357 237.661 142.285 237.646 142.213C236.972 139.105 238.812 136.004 241.863 135.107C262.955 128.906 284.075 122.698 305.515 116.394C308.895 115.4 312.408 117.486 313.154 120.929C313.837 124.083 314.518 127.228 315.204 130.394Z" fill="#F63D68"/>
<path d="M217.278 17.7985C218.62 14.5386 222.448 13.1053 225.6 14.6836C228.472 16.1213 231.333 17.5541 234.207 18.9938C237.348 20.5665 238.5 24.4696 236.717 27.4955C225.373 46.7502 214.158 65.7883 202.936 84.8322C201.318 87.5788 197.849 88.6038 194.997 87.1793C194.942 87.1519 194.887 87.1245 194.832 87.0971C191.99 85.6776 190.727 82.3047 191.936 79.3669C200.334 58.9662 208.75 38.5189 217.278 17.7985Z" fill="#FB8B40"/>
<path d="M287.332 65.4562C289.483 68.2322 288.834 72.2495 285.919 74.2075C267.352 86.6777 249.042 98.978 230.774 111.247C228.124 113.026 224.548 112.447 222.596 109.922C222.554 109.867 222.512 109.812 222.469 109.758C220.528 107.248 220.849 103.666 223.205 101.541C239.586 86.7698 255.972 71.9932 272.563 57.0332C275.183 54.6711 279.258 55.0343 281.418 57.8228C283.392 60.3708 285.356 62.9062 287.332 65.4562Z" fill="#F86156"/>
<path d="M57.5608 44.7914C55.2363 42.1621 55.6218 38.1145 58.4012 35.9717C60.9462 34.0097 63.4807 32.0558 66.0313 30.0893C68.8255 27.935 72.862 28.6114 74.8014 31.5588C87.067 50.2002 99.2103 68.6546 111.372 87.14C113.116 89.7915 112.521 93.3395 110.008 95.2783C109.956 95.3186 109.904 95.359 109.851 95.3993C107.325 97.3489 103.72 97.0051 101.606 94.614C86.994 78.0836 72.3638 61.5355 57.5608 44.7914Z" fill="#7CBE6B"/>
<path d="M311.178 150.091C314.668 149.876 317.616 152.648 317.616 156.145C317.616 159.369 317.616 162.576 317.616 165.805C317.616 169.348 314.591 172.137 311.06 171.849C288.926 170.049 267.001 168.266 245.051 166.48C241.903 166.224 239.478 163.595 239.478 160.436C239.478 160.363 239.478 160.29 239.478 160.217C239.478 157.012 241.971 154.361 245.169 154.164C267.177 152.806 289.123 151.452 311.178 150.091Z" fill="#F63D68"/>
<path d="M84.883 114.902C87.6049 116.54 88.6007 120.002 87.1646 122.836C87.1333 122.897 87.1021 122.959 87.0709 123.02C85.6303 125.863 82.2357 127.108 79.2992 125.87C59.0096 117.31 38.7224 108.752 18.147 100.069C14.9121 98.7041 13.5085 94.8855 15.0893 91.7503C16.5396 88.8739 17.986 86.0048 19.4425 83.1157C21.0308 79.9655 24.9627 78.831 27.9853 80.6505C47.0928 92.1527 65.9696 103.517 84.883 114.902Z" fill="#65BB78"/>
<path d="M128.529 78.3544C129.645 81.3294 128.275 84.6614 125.39 85.9927C125.335 86.0181 125.28 86.0436 125.225 86.069C122.33 87.405 118.895 86.271 117.364 83.4739C106.769 64.1116 96.1522 44.711 85.4122 25.0855C83.7267 22.0055 85.0005 18.1421 88.1875 16.6691C91.1085 15.319 94.012 13.977 96.9197 12.6326C100.121 11.1523 103.907 12.7056 105.145 16.0084C113.004 36.9658 120.772 57.6744 128.529 78.3544Z" fill="#94C05E"/>
<path d="M166.459 73.1363C166.187 76.2705 163.563 78.6761 160.417 78.6761C160.361 78.6761 160.305 78.6761 160.249 78.6761C157.029 78.6761 154.37 76.16 154.193 72.9451C152.976 50.8623 151.758 28.8112 150.538 6.69953C150.347 3.22412 153.113 0.300781 156.594 0.300781C159.782 0.300781 162.966 0.300781 166.173 0.300781C169.73 0.300781 172.523 3.34711 172.215 6.89019C170.286 29.1109 168.374 51.0972 166.459 73.1363Z" fill="#E9C92D"/>
<path d="M292.364 84.8567C295.443 83.1348 299.336 84.3929 300.823 87.591C302.182 90.5125 303.537 93.4279 304.902 96.3622C306.383 99.5463 304.858 103.319 301.581 104.58C280.745 112.6 260.178 120.517 239.641 128.419C236.665 129.565 233.309 128.209 231.963 125.317C231.933 125.252 231.902 125.187 231.872 125.122C230.533 122.244 231.64 118.822 234.41 117.272C253.623 106.527 272.877 95.7571 292.364 84.8567Z" fill="#F63D67"/>
<path d="M0.383986 151.274C0.383986 147.701 3.4579 144.902 7.01545 145.236C29.2601 147.322 51.1066 149.37 72.9677 151.418C76.0844 151.71 78.467 154.326 78.467 157.456C78.467 157.528 78.467 157.6 78.467 157.673C78.467 160.906 75.9305 163.571 72.7013 163.73C50.6621 164.818 28.7046 165.902 6.74748 166.985C3.28491 167.156 0.383986 164.394 0.383986 160.928C0.383986 157.706 0.383986 154.497 0.383986 151.274Z" fill="#65BB78"/>
<path d="M263.368 39.2287C266.084 41.4569 266.343 45.5194 263.934 48.0759C248.593 64.355 233.451 80.4265 218.33 96.4747C216.14 98.7991 212.522 99.0267 210.058 96.9957C210.008 96.9545 209.958 96.9133 209.908 96.8721C207.461 94.8553 206.98 91.2936 208.806 88.7007C221.498 70.6772 234.217 52.6162 247.109 34.31C249.138 31.4286 253.188 30.8776 255.913 33.1126C258.392 35.1462 260.87 37.1791 263.368 39.2287Z" fill="#F9774B"/>
<path d="M96.5761 99.5274C98.8645 101.726 99.0707 105.318 97.05 107.765C97.0077 107.817 96.9654 107.868 96.9232 107.919C94.8913 110.38 91.2999 110.845 88.7085 108.982C70.8112 96.1184 52.904 83.2482 34.7573 70.2055C31.9069 68.1568 31.3855 64.1232 33.6215 61.4173C35.674 58.9335 37.7186 56.4592 39.7728 53.9736C42.0204 51.254 46.1063 51.0204 48.6499 53.4654C64.7704 68.9612 80.6881 84.26 96.5761 99.5274Z" fill="#66BC78"/>
<path d="M8.70094 190.288C5.66299 190.911 2.72151 188.933 2.20761 185.875V185.875C1.69415 182.819 3.81042 179.903 6.88243 179.498C29.9857 176.455 52.9904 173.426 76.1363 170.378C77.7191 170.17 79.1787 171.211 79.4533 172.784V172.784C79.7308 174.372 78.7014 175.929 77.1215 176.253C54.3752 180.919 31.6587 185.578 8.70094 190.288Z" fill="#65BB78"/>
<path d="M240.217 178.853C238.653 178.48 237.662 176.954 237.982 175.379V175.379C238.301 173.809 239.809 172.754 241.389 173.014C264.355 176.784 287.27 180.545 310.321 184.33C313.38 184.833 315.411 187.778 314.8 190.817V190.817C314.189 193.856 311.18 195.778 308.165 195.059C285.435 189.638 262.847 184.25 240.217 178.853Z" fill="#F63D68"/>
</svg>
