<svg width="25" height="25" viewBox="0 0 25 25" fill="none" xmlns="http://www.w3.org/2000/svg">
<path d="M11.5889 13.0762H6.58887C6.30553 13.0762 6.06803 12.9803 5.87637 12.7887C5.6847 12.597 5.58887 12.3595 5.58887 12.0762C5.58887 11.7928 5.6847 11.5553 5.87637 11.3637C6.06803 11.172 6.30553 11.0762 6.58887 11.0762H11.5889V6.07617C11.5889 5.79284 11.6847 5.55534 11.8764 5.36367C12.068 5.17201 12.3055 5.07617 12.5889 5.07617C12.8722 5.07617 13.1097 5.17201 13.3014 5.36367C13.493 5.55534 13.5889 5.79284 13.5889 6.07617V11.0762H18.5889C18.8722 11.0762 19.1097 11.172 19.3014 11.3637C19.493 11.5553 19.5889 11.7928 19.5889 12.0762C19.5889 12.3595 19.493 12.597 19.3014 12.7887C19.1097 12.9803 18.8722 13.0762 18.5889 13.0762H13.5889V18.0762C13.5889 18.3595 13.493 18.597 13.3014 18.7887C13.1097 18.9803 12.8722 19.0762 12.5889 19.0762C12.3055 19.0762 12.068 18.9803 11.8764 18.7887C11.6847 18.597 11.5889 18.3595 11.5889 18.0762V13.0762Z" fill="white"/>
</svg>
