<svg width="19" height="19" viewBox="0 0 19 19" fill="none" xmlns="http://www.w3.org/2000/svg">
<path d="M8.76465 10.1211H5.01465C4.80215 10.1211 4.62402 10.0492 4.48027 9.90547C4.33652 9.76172 4.26465 9.58359 4.26465 9.37109C4.26465 9.15859 4.33652 8.98047 4.48027 8.83672C4.62402 8.69297 4.80215 8.62109 5.01465 8.62109H8.76465V4.87109C8.76465 4.65859 8.83652 4.48047 8.98027 4.33672C9.12402 4.19297 9.30215 4.12109 9.51465 4.12109C9.72715 4.12109 9.90527 4.19297 10.049 4.33672C10.1928 4.48047 10.2646 4.65859 10.2646 4.87109V8.62109H14.0146C14.2271 8.62109 14.4053 8.69297 14.549 8.83672C14.6928 8.98047 14.7646 9.15859 14.7646 9.37109C14.7646 9.58359 14.6928 9.76172 14.549 9.90547C14.4053 10.0492 14.2271 10.1211 14.0146 10.1211H10.2646V13.8711C10.2646 14.0836 10.1928 14.2617 10.049 14.4055C9.90527 14.5492 9.72715 14.6211 9.51465 14.6211C9.30215 14.6211 9.12402 14.5492 8.98027 14.4055C8.83652 14.2617 8.76465 14.0836 8.76465 13.8711V10.1211Z" fill="#2173E3"/>
</svg>
