<svg width="19" height="19" viewBox="0 0 19 19" fill="none" xmlns="http://www.w3.org/2000/svg">
<path d="M8.72715 9.89688L7.67715 8.84688C7.52715 8.69688 7.35215 8.62188 7.15215 8.62188C6.95215 8.62188 6.77715 8.69688 6.62715 8.84688C6.47715 8.99688 6.40215 9.175 6.40215 9.38125C6.40215 9.5875 6.47715 9.76563 6.62715 9.91563L8.20215 11.5094C8.35215 11.6594 8.52715 11.7344 8.72715 11.7344C8.92715 11.7344 9.10215 11.6594 9.25215 11.5094L12.4396 8.32188C12.5896 8.17188 12.6646 7.99375 12.6646 7.7875C12.6646 7.58125 12.5896 7.40313 12.4396 7.25313C12.2896 7.10313 12.1115 7.02813 11.9053 7.02813C11.699 7.02813 11.5209 7.10313 11.3709 7.25313L8.72715 9.89688ZM9.51465 16.7969C9.42715 16.7969 9.3459 16.7906 9.2709 16.7781C9.1959 16.7656 9.1209 16.7469 9.0459 16.7219C7.3584 16.1594 6.01465 15.1188 5.01465 13.6C4.01465 12.0813 3.51465 10.4469 3.51465 8.69688V5.15313C3.51465 4.84063 3.60527 4.55938 3.78652 4.30938C3.96777 4.05938 4.20215 3.87813 4.48965 3.76563L8.98965 2.07812C9.16465 2.01563 9.33965 1.98438 9.51465 1.98438C9.68965 1.98438 9.86465 2.01563 10.0396 2.07812L14.5396 3.76563C14.8271 3.87813 15.0615 4.05938 15.2428 4.30938C15.424 4.55938 15.5146 4.84063 15.5146 5.15313V8.69688C15.5146 10.4469 15.0146 12.0813 14.0146 13.6C13.0146 15.1188 11.6709 16.1594 9.9834 16.7219C9.9084 16.7469 9.8334 16.7656 9.7584 16.7781C9.6834 16.7906 9.60215 16.7969 9.51465 16.7969ZM9.51465 15.2969C10.8146 14.8844 11.8896 14.0594 12.7396 12.8219C13.5896 11.5844 14.0146 10.2094 14.0146 8.69688V5.15313L9.51465 3.46563L5.01465 5.15313V8.69688C5.01465 10.2094 5.43965 11.5844 6.28965 12.8219C7.13965 14.0594 8.21465 14.8844 9.51465 15.2969Z" fill="#2173E3"/>
</svg>
