<svg width="19" height="19" viewBox="0 0 19 19" fill="none" xmlns="http://www.w3.org/2000/svg">
<path d="M9.51465 16.1211C7.93965 16.1211 6.5459 15.643 5.3334 14.6867C4.1209 13.7305 3.3334 12.5086 2.9709 11.0211C2.9209 10.8336 2.9584 10.6617 3.0834 10.5055C3.2084 10.3492 3.37715 10.2586 3.58965 10.2336C3.78965 10.2086 3.9709 10.2461 4.1334 10.3461C4.2959 10.4461 4.4084 10.5961 4.4709 10.7961C4.7709 11.9211 5.38965 12.8398 6.32715 13.5523C7.26465 14.2648 8.32715 14.6211 9.51465 14.6211C10.9771 14.6211 12.2178 14.1117 13.2365 13.093C14.2553 12.0742 14.7646 10.8336 14.7646 9.37109C14.7646 7.90859 14.2553 6.66797 13.2365 5.64922C12.2178 4.63047 10.9771 4.12109 9.51465 4.12109C8.65215 4.12109 7.8459 4.32109 7.0959 4.72109C6.3459 5.12109 5.71465 5.67109 5.20215 6.37109H6.51465C6.72715 6.37109 6.90527 6.44297 7.04902 6.58672C7.19277 6.73047 7.26465 6.90859 7.26465 7.12109C7.26465 7.33359 7.19277 7.51172 7.04902 7.65547C6.90527 7.79922 6.72715 7.87109 6.51465 7.87109H3.51465C3.30215 7.87109 3.12402 7.79922 2.98027 7.65547C2.83652 7.51172 2.76465 7.33359 2.76465 7.12109V4.12109C2.76465 3.90859 2.83652 3.73047 2.98027 3.58672C3.12402 3.44297 3.30215 3.37109 3.51465 3.37109C3.72715 3.37109 3.90527 3.44297 4.04902 3.58672C4.19277 3.73047 4.26465 3.90859 4.26465 4.12109V5.13359C4.90215 4.33359 5.68027 3.71484 6.59902 3.27734C7.51777 2.83984 8.48965 2.62109 9.51465 2.62109C10.4521 2.62109 11.3303 2.79922 12.149 3.15547C12.9678 3.51172 13.6803 3.99297 14.2865 4.59922C14.8928 5.20547 15.374 5.91797 15.7303 6.73672C16.0865 7.55547 16.2646 8.43359 16.2646 9.37109C16.2646 10.3086 16.0865 11.1867 15.7303 12.0055C15.374 12.8242 14.8928 13.5367 14.2865 14.143C13.6803 14.7492 12.9678 15.2305 12.149 15.5867C11.3303 15.943 10.4521 16.1211 9.51465 16.1211ZM10.2646 9.07109L12.1396 10.9461C12.2771 11.0836 12.3459 11.2586 12.3459 11.4711C12.3459 11.6836 12.2771 11.8586 12.1396 11.9961C12.0021 12.1336 11.8271 12.2023 11.6146 12.2023C11.4021 12.2023 11.2271 12.1336 11.0896 11.9961L8.98965 9.89609C8.91465 9.82109 8.8584 9.73672 8.8209 9.64297C8.7834 9.54922 8.76465 9.45234 8.76465 9.35234V6.37109C8.76465 6.15859 8.83652 5.98047 8.98027 5.83672C9.12402 5.69297 9.30215 5.62109 9.51465 5.62109C9.72715 5.62109 9.90527 5.69297 10.049 5.83672C10.1928 5.98047 10.2646 6.15859 10.2646 6.37109V9.07109Z" fill="#58A65C"/>
</svg>
