<svg width="48" height="49" viewBox="0 0 48 49" fill="none" xmlns="http://www.w3.org/2000/svg">
<rect y="0.924805" width="48" height="48" rx="12" fill="url(#paint0_linear_6257_3020)"/>
<path d="M22.7404 25.7645L21.0604 24.0845C20.8204 23.8445 20.5404 23.7245 20.2204 23.7245C19.9004 23.7245 19.6204 23.8445 19.3804 24.0845C19.1404 24.3245 19.0204 24.6095 19.0204 24.9395C19.0204 25.2695 19.1404 25.5545 19.3804 25.7945L21.9004 28.3445C22.1404 28.5845 22.4204 28.7045 22.7404 28.7045C23.0604 28.7045 23.3404 28.5845 23.5804 28.3445L28.6804 23.2445C28.9204 23.0045 29.0404 22.7195 29.0404 22.3895C29.0404 22.0595 28.9204 21.7745 28.6804 21.5345C28.4404 21.2945 28.1554 21.1745 27.8254 21.1745C27.4954 21.1745 27.2104 21.2945 26.9704 21.5345L22.7404 25.7645ZM24.0004 36.8045C23.8604 36.8045 23.7304 36.7945 23.6104 36.7745C23.4904 36.7545 23.3704 36.7245 23.2504 36.6845C20.5504 35.7845 18.4004 34.1195 16.8004 31.6895C15.2004 29.2595 14.4004 26.6445 14.4004 23.8445V18.1745C14.4004 17.6745 14.5454 17.2245 14.8354 16.8245C15.1254 16.4245 15.5004 16.1345 15.9604 15.9545L23.1604 13.2545C23.4404 13.1545 23.7204 13.1045 24.0004 13.1045C24.2804 13.1045 24.5604 13.1545 24.8404 13.2545L32.0404 15.9545C32.5004 16.1345 32.8754 16.4245 33.1654 16.8245C33.4554 17.2245 33.6004 17.6745 33.6004 18.1745V23.8445C33.6004 26.6445 32.8004 29.2595 31.2004 31.6895C29.6004 34.1195 27.4504 35.7845 24.7504 36.6845C24.6304 36.7245 24.5104 36.7545 24.3904 36.7745C24.2704 36.7945 24.1404 36.8045 24.0004 36.8045ZM24.0004 34.4045C26.0804 33.7445 27.8004 32.4245 29.1604 30.4445C30.5204 28.4645 31.2004 26.2645 31.2004 23.8445V18.1745L24.0004 15.4745L16.8004 18.1745V23.8445C16.8004 26.2645 17.4804 28.4645 18.8404 30.4445C20.2004 32.4245 21.9204 33.7445 24.0004 34.4045Z" fill="white"/>
<defs>
<linearGradient id="paint0_linear_6257_3020" x1="40.6481" y1="-15.0695" x2="60.4162" y2="138.985" gradientUnits="userSpaceOnUse">
<stop stop-color="#2CD7B2"/>
<stop offset="1" stop-color="#2173E3"/>
</linearGradient>
</defs>
</svg>
