<svg width="19" height="19" viewBox="0 0 19 19" fill="none" xmlns="http://www.w3.org/2000/svg">
<path d="M5.76465 16.1211C5.35215 16.1211 4.99902 15.9742 4.70527 15.6805C4.41152 15.3867 4.26465 15.0336 4.26465 14.6211V4.87109C4.05215 4.87109 3.87402 4.79922 3.73027 4.65547C3.58652 4.51172 3.51465 4.33359 3.51465 4.12109C3.51465 3.90859 3.58652 3.73047 3.73027 3.58672C3.87402 3.44297 4.05215 3.37109 4.26465 3.37109H7.26465C7.26465 3.15859 7.33652 2.98047 7.48027 2.83672C7.62402 2.69297 7.80215 2.62109 8.01465 2.62109H11.0146C11.2271 2.62109 11.4053 2.69297 11.549 2.83672C11.6928 2.98047 11.7646 3.15859 11.7646 3.37109H14.7646C14.9771 3.37109 15.1553 3.44297 15.299 3.58672C15.4428 3.73047 15.5146 3.90859 15.5146 4.12109C15.5146 4.33359 15.4428 4.51172 15.299 4.65547C15.1553 4.79922 14.9771 4.87109 14.7646 4.87109V14.6211C14.7646 15.0336 14.6178 15.3867 14.324 15.6805C14.0303 15.9742 13.6771 16.1211 13.2646 16.1211H5.76465ZM13.2646 4.87109H5.76465V14.6211H13.2646V4.87109ZM8.01465 13.1211C8.22715 13.1211 8.40527 13.0492 8.54902 12.9055C8.69277 12.7617 8.76465 12.5836 8.76465 12.3711V7.12109C8.76465 6.90859 8.69277 6.73047 8.54902 6.58672C8.40527 6.44297 8.22715 6.37109 8.01465 6.37109C7.80215 6.37109 7.62402 6.44297 7.48027 6.58672C7.33652 6.73047 7.26465 6.90859 7.26465 7.12109V12.3711C7.26465 12.5836 7.33652 12.7617 7.48027 12.9055C7.62402 13.0492 7.80215 13.1211 8.01465 13.1211ZM11.0146 13.1211C11.2271 13.1211 11.4053 13.0492 11.549 12.9055C11.6928 12.7617 11.7646 12.5836 11.7646 12.3711V7.12109C11.7646 6.90859 11.6928 6.73047 11.549 6.58672C11.4053 6.44297 11.2271 6.37109 11.0146 6.37109C10.8021 6.37109 10.624 6.44297 10.4803 6.58672C10.3365 6.73047 10.2646 6.90859 10.2646 7.12109V12.3711C10.2646 12.5836 10.3365 12.7617 10.4803 12.9055C10.624 13.0492 10.8021 13.1211 11.0146 13.1211Z" fill="#F04438"/>
</svg>
